<svg id="圖層_1" data-name="圖層 1" xmlns="http://www.w3.org/2000/svg" viewBox="0 0 566.93 566.93"><defs><style>.cls-1{fill:#231815;}</style></defs><path class="cls-1" d="M23.46,165.51v-1.46H77.67l1.27,45.5h-.81l-3.67-35.7a48.66,48.66,0,0,0-9.72-.88q-9.82,0-15.83,3.95-1,23.7-1,54.14,0,19,.4,30.86a87,87,0,0,0,10.23,1.32,39.7,39.7,0,0,0,11.86-1.9l2.29-24.87h.87v62.32h-.87l-2.39-26.33A30.86,30.86,0,0,0,60.52,271a40.08,40.08,0,0,0-12.22,1.76q-.66,17-.4,33.21.09,20.78.25,34.31t.56,23.33Q54.92,369,65,369a31.32,31.32,0,0,0,9.77-1.32l4.07-35.26h.71l-1.12,45.8H23.62v-1.47l12.16-5.12q.4-6,.74-18.29t.58-27.57q.26-15.3.36-25.61t.1-18.07V245.25q0-7-.15-20T37,198.43q-.3-13.91-.86-27.8Zm15.48,4.24V372.53h3.51V169.75Z"/><path class="cls-1" d="M83.37,164.05H126v1.46l-16.23,4.83q2.74,12.28,5.11,21.95T120,212.11q2.83,10.17,6.19,21.43t6.92,23.12q4-11.7,9.18-28.75t9.29-32Q155.7,181,158,170.34l-15.53-4.83v-1.46h34v1.46l-12,4.54q-3.21,8.47-7.3,21.58t-8.68,29Q144,236.48,140.63,249T136.1,267q3.06,11.71,8,29.63t8.91,31.6q4,13.68,7.58,25.17t6.36,18.5l9.47,4.83v1.47H135v-1.47l16.19-5.12q-4.18-20.32-11-44.77T127,282.41q-5.19,15.36-10.13,31.89t-9,31.67q-4.07,15.15-6.51,25.68l15.52,5.12v1.47H83.12v-1.47l11.7-5.12q7.28-20.47,15.76-49.82t13.61-50q-4.93-18.87-10.1-37.52T103.58,197.7q-5.35-18-8.86-27.36l-11.35-4.83Zm14,5,57.66,203.51h4.13L101.69,169Z"/><path class="cls-1" d="M178.4,163.46h35.32q8.49,0,13.28,4.46t7.89,13.39a93.22,93.22,0,0,1,4,18.36,176.92,176.92,0,0,1,1.4,22.46,154,154,0,0,1-3.13,32q-3.14,14.7-8.81,23.55T215.4,286.5A21,21,0,0,1,205,283.87v-1.46a13.68,13.68,0,0,0,3.26.29q5.7,0,10.56-5.63t7.81-17.56q3-11.92,3-29.92A164.44,164.44,0,0,0,225,190.24q-4.53-18.44-13.39-18.44a12.78,12.78,0,0,0-7.58,2.34q-.36,5.85-.77,29.12t-.4,32.62v69.79q0,4.38.23,19.82t.48,26.7q.25,11.26.76,18.88l12.73,5.41-.56,1.76H178.4l.2-2.05,12.32-5.12q.56-12.3.86-26.05t.54-33.13q.23-19.39.22-28.9V247.88q0-18.58-.4-41.62t-1-35.92l-12.62-5.12ZM193.92,169V372.24h3.56V169Zm20.41-2H212.5v1.46q5.75.87,10.05,9.43T229,200a184.28,184.28,0,0,1,2.19,29.26q0,17.85-2.65,29.55t-6.31,17q-3.66,5.28-7.28,6.29v1.76h.92c1.9,0,4.31-1.49,7.25-4.46s5.62-8.71,8.07-17.19S234.89,242,234.89,227a196.89,196.89,0,0,0-2-27.8q-2-13.89-6.65-23T214.33,167Z"/><path class="cls-1" d="M243.65,165.51v-1.46h38.47v1.46l-12.62,5.12q-.66,14.19-1.12,38.26T267.92,251v62.91q0,22.68.82,47.26,8.7,7.9,18,7.9a22.7,22.7,0,0,0,8.25-1.46,19.2,19.2,0,0,0,5.29-2.79l5.3-39.94h.76l-2.39,53.41H243.54v-1.47l12.17-5.12q.61-7,1-25t.69-37.16q.26-19.16.25-27.06V245.54q0-12.15-.2-27.87T257,190.09q-.28-11.85-.74-19.46Zm15.42,4V372.53h3.56V169.46Z"/><path class="cls-1" d="M352.36,161q10.84,0,18.78,10.38t13,27.21a218.57,218.57,0,0,1,7.43,35.78,293,293,0,0,1,2.36,36.35,282.62,282.62,0,0,1-2.67,39.06,200.91,200.91,0,0,1-7.89,35q-5.2,15.88-12.92,25.39t-17.18,9.51q-13.69,0-23.21-17T316,320.45a277.3,277.3,0,0,1-4.53-49.16,286.69,286.69,0,0,1,2.88-41.11,192.56,192.56,0,0,1,8.34-35.63q5.48-15.72,13.11-24.65T352.36,161Zm-2.09,5.7v-1.46q-7.12.15-13.89,8.78t-11.91,23.4a189.82,189.82,0,0,0-8,33.66,264,264,0,0,0-2.87,39.64,252,252,0,0,0,4.81,49.53q4.8,24.06,13.31,39.13t18.68,15.95V373.7q-9.88-2.49-17.46-17.7t-11.53-37.75a270.21,270.21,0,0,1-3.94-46.67,306.63,306.63,0,0,1,2.29-38.18,199,199,0,0,1,6.61-32.63q4.33-14.34,10.46-23.26T350.27,166.68Zm2.4,4.54q-7.89,0-14.59,11.85T327.45,217.3q-3.94,22.39-3.95,52.82,0,32.78,4.3,55.37T338.85,359q6.73,10.89,13.92,10.9,5.85,0,11.1-6.44t9.36-18.8q4.13-12.36,6.44-30.43A319.83,319.83,0,0,0,382,273.92q0-30.42-2.44-48.57a163.46,163.46,0,0,0-7.18-31.75q-4-11.55-9.13-17T352.67,171.22Zm2.59-6v1.46c3.29.69,6.6,2.9,9.93,6.66s6.44,9.61,9.34,17.55,5.23,18.66,7,32.12,2.64,29.65,2.64,48.57q0,18.59-1.55,35.55a221.68,221.68,0,0,1-5,31.31q-3.44,14.34-9,23.7T355.36,373.7v1.61q6.52-.87,12.37-8.05t10.41-20.55q4.56-13.4,7.2-32.7A317.79,317.79,0,0,0,388,271a336.94,336.94,0,0,0-2.75-45.72q-2.75-19.82-7.48-33t-10.51-19.9Q361.48,165.66,355.26,165.22Z"/><path class="cls-1" d="M412.83,291V245.83q0-17.42-.41-39.87t-1-35.33l-12.21-5.12v-1.46h33.44q9.51,0,15.19,10.9a80.47,80.47,0,0,1,7.86,24.87,158.79,158.79,0,0,1,2.19,24.06,126.57,126.57,0,0,1-2.19,24.8Q453.49,259.58,450,266t-7.21,7.61v.58a31.68,31.68,0,0,1,5.76,10.54q1.77,5.12,4.07,14.41t6.05,25.38q3.78,16.09,6.06,25.17t4.23,14.77q4.27,12.3,8.45,12.29v1.47h-8.86q-7.44,0-11.81-12.88-1.72-5-3.44-11.78t-5.39-22.31q-3.69-15.51-6.21-25.6t-4-14.34c-1.45-4.19-2.79-7-4-8.41a6.62,6.62,0,0,0-5.32-2.12,10.12,10.12,0,0,0-5,1q-.3,7.9-.3,17.56v27.07q0,17.12,1.27,45.2L437,376.77v1.47H399.19v-1.47l12-5.12q.77-14.77,1.22-41.55T412.83,291Zm1.27-121.29V372.53h3.66V169.75ZM423,224.18v24q0,12.74.3,23.7a14.67,14.67,0,0,0,5.75.88q6.53,0,10.51-6.44t5.7-16.75a151,151,0,0,0,0-45A93.51,93.51,0,0,0,441,187.24a37.82,37.82,0,0,0-5.85-11q-3.24-3.87-6.34-3.87a8,8,0,0,0-4.63,1.17q-.46,8.48-.84,24.28T423,224.18Zm5.09-56.91v1.46q7,.44,11.68,9.73t6.84,22.75a169,169,0,0,1,2.14,26.63q0,29.25-8.86,42.28l.31.58q5.19-3.79,8.57-16.24t3.39-29.7a147.91,147.91,0,0,0-1.83-24.36,81.32,81.32,0,0,0-5-18.21,34.8,34.8,0,0,0-7-11.12q-3.87-3.8-7.79-3.8Zm13.23,129.48,11,46.08q4,16.25,7.08,23.19t7.33,7.09v-1.46q-4-3.36-10.33-29.7l-8.86-36.57a131.74,131.74,0,0,0-5.35-18.14q-2.49-6.15-6.1-8.2l-.21,1.17Q438.73,285.48,441.28,296.75Z"/><path class="cls-1" d="M478.48,165.51v-1.46h54.21l1.27,45.5h-.81l-3.67-35.7a48.66,48.66,0,0,0-9.72-.88q-9.82,0-15.83,3.95-1,23.7-1,54.14,0,19,.41,30.86a87,87,0,0,0,10.23,1.32,39.7,39.7,0,0,0,11.86-1.9l2.29-24.87h.87v62.32h-.87l-2.39-26.33a30.86,30.86,0,0,0-9.77-1.47,40.08,40.08,0,0,0-12.22,1.76q-.66,17-.41,33.21.1,20.78.26,34.31t.56,23.33Q509.94,369,520,369a31.32,31.32,0,0,0,9.77-1.32l4.07-35.26h.71l-1.12,45.8H478.64v-1.47l12.16-5.12q.4-6,.74-18.29t.58-27.57q.25-15.3.36-25.61t.1-18.07V245.25q0-7-.15-20T492,198.43q-.3-13.91-.86-27.8ZM494,169.75V372.53h3.51V169.75Z"/></svg>