<svg id="圖層_1" data-name="圖層 1" xmlns="http://www.w3.org/2000/svg" viewBox="0 0 850.39 850.39"><defs><style>.cls-1{fill:#231815;}</style></defs><path class="cls-1" d="M37.82,285.29v-2H120l1.93,60.72h-1.24l-5.55-47.64a84.39,84.39,0,0,0-14.74-1.17q-14.88,0-24,5.27-1.55,31.64-1.55,72.25,0,25.38.62,41.2A150.47,150.47,0,0,0,91,415.73a68,68,0,0,0,18-2.54l3.47-33.2h1.31v83.18h-1.31L108.8,428a52.92,52.92,0,0,0-14.81-2,68.44,68.44,0,0,0-18.52,2.35q-1,22.65-.62,44.32.16,27.74.39,45.79t.85,31.15q9.41,7.22,24.69,7.22a53.59,53.59,0,0,0,14.81-1.76l6.17-47.05h1.08l-1.69,61.11H38.05v-2l18.44-6.83q.61-8,1.12-24.41t.89-36.81q.39-20.4.54-34.17t.15-24.12v-49.2q0-9.37-.23-26.66t-.69-35.83q-.47-18.54-1.31-37.1ZM61.28,291V561.59H66.6V291Z"/><path class="cls-1" d="M128.63,283.34H193.2v2l-24.61,6.44q4.17,16.41,7.76,29.29t7.87,26.46q4.28,13.57,9.37,28.61t10.49,30.85q6-15.62,13.93-38.37t14.08-42.67q6.16-19.9,9.64-34.17l-23.53-6.44v-2h51.61v2l-18.13,6q-4.86,11.32-11.07,28.8t-13.15,38.67q-6.94,21.18-12,37.88t-6.86,24.11q4.62,15.63,12.11,39.54t13.5,42.18q6,18.26,11.5,33.59t9.64,24.7l14.35,6.44v2H206.94v-2l24.53-6.83q-6.33-27.15-16.63-59.75t-20-59.36Q187,461.8,179.47,483.87t-13.65,42.28q-6.18,20.21-9.88,34.27l23.53,6.83v2H128.24v-2L146,560.42q11-27.34,23.88-66.49t20.63-66.68Q183,402,175.19,377.16t-15.93-48.91q-8.1-24-13.43-36.52l-17.2-6.44ZM149.92,290l87.41,271.61h6.25L156.4,290Z"/><path class="cls-1" d="M272.67,282.55h53.54q12.89,0,20.14,6t12,17.87a111,111,0,0,1,6.05,24.5,206.75,206.75,0,0,1,2.12,30,181.46,181.46,0,0,1-4.74,42.66Q357,423.16,348.39,435t-19.63,11.81a35.21,35.21,0,0,1-15.82-3.51v-1.95a22.92,22.92,0,0,0,4.94.39q8.64,0,16-7.52t11.84-23.43q4.47-15.92,4.48-39.93a194.53,194.53,0,0,0-6.87-52.53q-6.87-24.6-20.29-24.61a21.35,21.35,0,0,0-11.5,3.13q-.54,7.81-1.15,38.86t-.62,43.54v93.14q0,5.86.35,26.46t.73,35.64q.39,15,1.16,25.19l19.28,7.22-.84,2.34H272.67l.31-2.73,18.67-6.83q.84-16.41,1.31-34.76t.81-44.23q.35-25.87.35-38.57V395.22q0-24.8-.62-55.55T292,291.73l-19.14-6.83ZM296.2,290V561.2h5.4V290Zm30.94-2.74h-2.78v1.95q8.72,1.19,15.24,12.6t9.83,29.58a216.61,216.61,0,0,1,3.32,39.05q0,23.83-4,39.45t-9.57,22.65q-5.55,7-11,8.39v2.35h1.39q4.32,0,11-6t12.23-22.94q5.55-17,5.56-47.06a232,232,0,0,0-3-37.1q-3-18.54-10.07-30.75T327.14,287.24Z"/><path class="cls-1" d="M371.58,285.29v-2H429.9v2l-19.13,6.83q-1,18.94-1.7,51.07t-.69,56.13v84q0,30.27,1.23,63.07,13.2,10.54,27.24,10.54A38.4,38.4,0,0,0,449.34,555a30.59,30.59,0,0,0,8-3.71l8-53.31h1.16l-3.63,71.27h-91.5v-2l18.44-6.83q.93-9.37,1.58-33.39t1-49.6q.39-25.57.39-36.12V392.1q0-16.2-.31-37.2t-.73-36.81q-.42-15.81-1.12-26ZM395,290.56v271h5.4v-271Z"/><path class="cls-1" d="M536.37,279.24q16.44,0,28.47,13.86t19.71,36.32a260,260,0,0,1,11.26,47.74,344.46,344.46,0,0,1,3.59,48.53,332.83,332.83,0,0,1-4,52.13,240.87,240.87,0,0,1-12,46.76q-7.9,21.2-19.59,33.89t-26,12.69q-20.76,0-35.18-22.75t-21.29-56.33a327,327,0,0,1-6.87-65.62,338,338,0,0,1,4.36-54.87,231,231,0,0,1,12.65-47.54q8.29-21,19.87-32.9T536.37,279.24Zm-3.16,7.61v-2q-10.8.19-21.06,11.71t-18.06,31.25a228.84,228.84,0,0,0-12.15,44.91,310.64,310.64,0,0,0-4.36,52.92,297.63,297.63,0,0,0,7.29,66.09q7.29,32.13,20.18,52.23t28.31,21.29v-2.15q-15-3.31-26.46-23.63t-17.48-50.37a319.2,319.2,0,0,1-6-62.29,361.06,361.06,0,0,1,3.47-51,237.17,237.17,0,0,1,10-43.54q6.56-19.14,15.85-31.05T533.21,286.85Zm3.62,6.06q-12,0-22.1,15.81t-16.12,45.69q-6,29.88-6,70.49,0,43.76,6.51,73.91t16.75,44.72q10.22,14.54,21.1,14.54,8.87,0,16.82-8.59T568,524.39q6.25-16.5,9.76-40.62A375.37,375.37,0,0,0,581.27,430q0-40.61-3.7-64.83t-10.88-42.37q-6.09-15.42-13.85-22.65T536.83,292.91Zm3.94-8v2q7.49,1.36,15,8.88T570,319.17q6.6,15.91,10.61,42.86t4,64.83a458.84,458.84,0,0,1-2.35,47.44,262.87,262.87,0,0,1-7.56,41.79q-5.22,19.14-13.62,31.63t-20.14,15.43v2.15q9.89-1.17,18.75-10.74t15.78-27.44q6.9-17.86,10.91-43.64a374.36,374.36,0,0,0,4-57.41q0-34.56-4.17-61t-11.34-44q-7.17-17.58-15.93-26.55T540.77,284.9Z"/><path class="cls-1" d="M628,452.83V392.49q0-23.24-.62-53.21t-1.54-47.16l-18.52-6.83v-2H658q14.43,0,23,14.54A98.86,98.86,0,0,1,693,331.08a187.39,187.39,0,0,1,3.31,32.12A149.67,149.67,0,0,1,693,396.3q-3.33,14.55-8.68,23.13t-10.92,10.16v.78a41.07,41.07,0,0,1,8.72,14.06q2.7,6.84,6.17,19.23t9.18,33.88q5.71,21.48,9.18,33.59t6.41,19.72q6.48,16.39,12.8,16.4v2H712.43q-11.26,0-17.9-17.18-2.62-6.63-5.21-15.72t-8.17-29.78q-5.61-20.7-9.42-34.17t-6.05-19.14q-3.33-8.38-6.06-11.22c-1.83-1.89-4.51-2.83-8.06-2.83a17.2,17.2,0,0,0-7.56,1.36q-.46,10.55-.47,23.44v36.12q0,22.84,1.93,60.34l19.21,6.83v2H607.35v-2l18.13-6.83q1.15-19.73,1.85-55.46T628,452.83ZM630,291V561.59h5.55V291Zm13.42,72.64v32q0,17,.46,31.64a25.16,25.16,0,0,0,8.72,1.17q9.87,0,15.93-8.59t8.64-22.36a163.25,163.25,0,0,0,2.59-30.17,166.08,166.08,0,0,0-2.51-29.88,113.35,113.35,0,0,0-6.48-23.14q-4-9.46-8.87-14.64t-9.61-5.17a13.43,13.43,0,0,0-7,1.56q-.69,11.33-1.27,32.41T643.38,363.59Zm7.71-76v1.95q10.57.6,17.71,13t10.38,30.36a200,200,0,0,1,3.24,35.54q0,39.06-13.43,56.43l.47.79q7.86-5.08,13-21.68t5.13-39.64a174.14,174.14,0,0,0-2.78-32.51q-2.77-14.55-7.52-24.31t-10.61-14.84q-5.86-5.07-11.81-5.08Zm20.06,172.81L687.89,522q6,21.67,10.73,30.95t11.11,9.47v-2q-6.09-4.5-15.66-39.64L680.64,472q-4.32-16-8.1-24.21t-9.26-10.94l-.3,1.57Q667.3,445.4,671.15,460.44Z"/><path class="cls-1" d="M727.55,285.29v-2h82.16l1.93,60.72h-1.23l-5.56-47.64a84.27,84.27,0,0,0-14.73-1.17q-14.89,0-24,5.27-1.54,31.64-1.54,72.25,0,25.38.62,41.2a149.88,149.88,0,0,0,15.51,1.76,67.91,67.91,0,0,0,18-2.54l3.47-33.2h1.31v83.18h-1.31L798.53,428a53,53,0,0,0-14.82-2,68.37,68.37,0,0,0-18.51,2.35q-1,22.65-.62,44.32.15,27.74.39,45.79t.85,31.15q9.4,7.22,24.68,7.22a53.62,53.62,0,0,0,14.82-1.76l6.17-47.05h1.08l-1.7,61.11H727.78v-2l18.44-6.83q.62-8,1.12-24.41t.89-36.81q.38-20.4.54-34.17t.15-24.12v-49.2q0-9.37-.23-26.66t-.7-35.83q-.47-18.54-1.31-37.1ZM751,291V561.59h5.33V291Z"/></svg>