<svg id="圖層_1" data-name="圖層 1" xmlns="http://www.w3.org/2000/svg" xmlns:xlink="http://www.w3.org/1999/xlink" viewBox="0 0 1341.38 1290"><defs><style>.cls-1,.cls-28{fill:none;}.cls-2{fill:#199630;}.cls-3{fill:url(#linear-gradient);}.cls-4{fill:url(#radial-gradient);}.cls-5{fill:url(#linear-gradient-2);}.cls-6{fill:#fcc800;}.cls-7{fill:url(#linear-gradient-3);}.cls-8{fill:url(#linear-gradient-4);}.cls-9{fill:url(#radial-gradient-2);}.cls-10{fill:url(#linear-gradient-5);}.cls-11{fill:url(#radial-gradient-3);}.cls-12{fill:url(#linear-gradient-6);}.cls-13{fill:url(#linear-gradient-7);}.cls-14{fill:url(#linear-gradient-8);}.cls-15{fill:url(#linear-gradient-9);}.cls-16{fill:url(#linear-gradient-10);}.cls-17{fill:url(#linear-gradient-11);}.cls-18{fill:url(#radial-gradient-4);}.cls-19{fill:url(#linear-gradient-12);}.cls-20{fill:url(#linear-gradient-13);}.cls-21{fill:url(#linear-gradient-14);}.cls-22{fill:url(#linear-gradient-15);}.cls-23{fill:url(#radial-gradient-5);}.cls-24{fill:url(#linear-gradient-16);}.cls-25{fill:#231815;}.cls-26{fill:#888098;}.cls-27{fill:url(#葉子);}.cls-28{stroke:#000;stroke-miterlimit:10;}</style><linearGradient id="linear-gradient" x1="-39038.45" y1="-53021.07" x2="-39061.74" y2="-53013.14" gradientTransform="matrix(1, 0, 0, -1, 39406.56, -52792.32)" gradientUnits="userSpaceOnUse"><stop offset="0.23" stop-color="#f6ab00"/><stop offset="0.76" stop-color="#fcc800"/></linearGradient><radialGradient id="radial-gradient" cx="-38959.92" cy="-53051.51" r="133.44" gradientTransform="matrix(1, 0, 0, -1, 39406.56, -52792.32)" gradientUnits="userSpaceOnUse"><stop offset="0.35" stop-color="#56aa2d"/><stop offset="0.76" stop-color="#7fbe26"/></radialGradient><linearGradient id="linear-gradient-2" x1="55120.19" y1="-52965.25" x2="55120.19" y2="-52937.15" gradientTransform="translate(55537.87 -52792.32) rotate(180)" xlink:href="#linear-gradient"/><linearGradient id="linear-gradient-3" x1="55459.34" y1="-53021.07" x2="55436.05" y2="-53013.14" gradientTransform="translate(55537.87 -52792.32) rotate(180)" xlink:href="#linear-gradient"/><linearGradient id="linear-gradient-4" x1="-39377.59" y1="-52965.25" x2="-39377.59" y2="-52937.15" xlink:href="#linear-gradient"/><radialGradient id="radial-gradient-2" cx="-39406.56" cy="-53051.51" r="133.44" xlink:href="#radial-gradient"/><linearGradient id="linear-gradient-5" x1="55056.19" y1="37148.94" x2="55056.19" y2="37177.05" gradientTransform="matrix(-1, 0, 0, 1, 55473.87, -37062.69)" xlink:href="#linear-gradient"/><radialGradient id="radial-gradient-3" cx="-38959.92" cy="-52792.32" r="133.44" xlink:href="#radial-gradient"/><linearGradient id="linear-gradient-6" x1="-39038.45" y1="37107.66" x2="-39061.74" y2="37115.6" gradientTransform="translate(39406.56 -37077.23)" xlink:href="#linear-gradient"/><linearGradient id="linear-gradient-7" x1="55279.51" y1="37278.53" x2="55279.51" y2="37306.64" gradientTransform="matrix(-1, 0, 0, 1, 55473.87, -37062.69)" xlink:href="#linear-gradient"/><linearGradient id="linear-gradient-8" x1="-39090.27" y1="37278.53" x2="-39090.27" y2="37306.64" gradientTransform="translate(39342.56 -37062.69)" xlink:href="#linear-gradient"/><linearGradient id="linear-gradient-9" x1="55236.02" y1="-52891.48" x2="55212.73" y2="-52883.54" gradientTransform="translate(55537.87 -52792.32) rotate(180)" xlink:href="#linear-gradient"/><linearGradient id="linear-gradient-10" x1="-39261.77" y1="-52891.48" x2="-39285.06" y2="-52883.54" xlink:href="#linear-gradient"/><linearGradient id="linear-gradient-11" x1="-39154.27" y1="-52835.66" x2="-39154.27" y2="-52807.55" xlink:href="#linear-gradient"/><radialGradient id="radial-gradient-4" cx="-39183.24" cy="-52921.91" r="133.44" xlink:href="#radial-gradient"/><linearGradient id="linear-gradient-12" x1="55236.02" y1="37237.25" x2="55212.73" y2="37245.19" gradientTransform="matrix(-1, 0, 0, 1, 55537.87, -37077.23)" xlink:href="#linear-gradient"/><linearGradient id="linear-gradient-13" x1="-39261.77" y1="37237.25" x2="-39285.06" y2="37245.19" gradientTransform="translate(39406.56 -37077.23)" xlink:href="#linear-gradient"/><linearGradient id="linear-gradient-14" x1="55343.51" y1="-52835.66" x2="55343.51" y2="-52807.55" gradientTransform="translate(55537.87 -52792.32) rotate(180)" xlink:href="#linear-gradient"/><linearGradient id="linear-gradient-15" x1="-39313.59" y1="37148.94" x2="-39313.59" y2="37177.05" gradientTransform="translate(39342.56 -37062.69)" xlink:href="#linear-gradient"/><radialGradient id="radial-gradient-5" cx="-39406.56" cy="-52792.32" r="133.44" xlink:href="#radial-gradient"/><linearGradient id="linear-gradient-16" x1="55459.34" y1="37107.66" x2="55436.05" y2="37115.6" gradientTransform="matrix(-1, 0, 0, 1, 55537.87, -37077.23)" xlink:href="#linear-gradient"/><pattern id="葉子" data-name="葉子" width="446.64" height="259.18" patternTransform="translate(-137.19 -261.81) rotate(-90) scale(0.7)" patternUnits="userSpaceOnUse" viewBox="0 0 446.64 259.18"><rect class="cls-1" width="446.64" height="259.18"/><path class="cls-2" d="M378.84,190.69a32.84,32.84,0,0,1,11.44,22.75c1.08-10.23,3.2-18.13,8.21-24,0,0-6.32,3.09-8.61,9.15C386.92,193.38,378.84,190.69,378.84,190.69Z"/><path class="cls-2" d="M364.84,139.81c1.22,6,6.31,11.17,12.92,13.73a21.14,21.14,0,0,1,2.16-19.79,21.48,21.48,0,0,0,5.78,18,18.19,18.19,0,0,1,1.08-13.87c-.94,8.48,6.17,12.79,15.62,18.44,12.66,7.58,17.27,16,19.25,27.23-3.46-6.87-9.91-13.14-27.86-17.29C371.49,161.14,363.39,153.88,364.84,139.81Z"/><path class="cls-3" d="M365.11,232c-4.69-4.59-6.91-12.18-7.27-21.72-.47-12.52-5.41-17.65-13.33-18.52,11.8,4.57,4.45,17.11,7.95,25.84-6.45-4.78-4.39-20.68-17.64-21.4,9.78,3.19,2.84,16.67,9.29,24.5-7.81-.11-11.4,6.12-21.54,3.23,4.72,3.63,10,5.92,18.85,5.92-6.26,3.86-9,8.63-11.31,15.35C340.24,234.61,355,230.54,365.11,232Z"/><path class="cls-4" d="M482.48,266.46c29.44,4,46.23,20.79,49.15,36.55-3.92-9.25-13-15.22-23.6-18.63,10.62,14,7.19,31.87,21.12,41.7-10.37-11-7.22-24.47-14.91-36.73,12.26,6.89,14.12,16.67,17,27.15,4.39,15.84,11.55,20.08,17.23,22.17-11.7.45-28.66-4.53-36.79-20.1-8.61-16.51-1.45-34.41-22.48-43.77,9.61,8.05,14.73,19.52,8.7,34.42,2.25-21.92-20.63-25.51-24.31-40.45-.63,11.53,7.18,21.22,14.55,25.9-10.29-3.37-19.22-9-23.42-21.82-6.93,21.39,5.31,38.45,12.9,38.45,2.62,0,4.53-1.67,4.53-4.16,0-6.45-11.64-6.45-14.59-18.86,5.32,10.83,25.55,8.88,25.55,20.76,0,9.74-13.64,14-22.36,8,6.39,8.34,21.26,8.62,25.55-1.42.66,4.3-1.31,10.75-7.45,13.13-7,2.7-13.49-2.49-13.49-2.49,7.64,11,20.94,3.67,34.07,3.91,10.87.19,18.11,5.82,21.29,11.17a15.32,15.32,0,0,0-7.63-1.95,21.13,21.13,0,0,1,9,21.47c-1.3-6.25-8.57-10.68-22.35-11.63-15.56-1.08-23.81-3.57-29.1-9.3,11.2,4.95,28.93-1.91,41,6-7.45-8.54-23.93-6.09-35.71-8-20.71-3.33-33.33-38.29-31.71-53.64-5.66,23.43,9.46,36.21,12.79,49.14,3.63,14.13-3.37,23.82-9.95,28.8,10.28-15.4-7.42-24.63-4.61-44.36-5.23,19.19,4.43,24.67,4.43,34.6,0,9.76-8.58,13-10.29,25.55-1.71-12.55-10.29-15.79-10.29-25.55,0-9.93,9.66-15.41,4.43-34.6,2.81,19.73-14.89,29-4.61,44.36-6.58-5-13.58-14.67-9.95-28.8,3.33-12.93,18.45-25.71,12.79-49.14,1.62,15.35-11,50.31-31.71,53.64-11.78,1.89-28.26-.56-35.71,8,12.05-7.94,29.78-1.08,41-6-5.29,5.73-13.54,8.22-29.09,9.3-13.79.95-21.06,5.38-22.36,11.63a21.13,21.13,0,0,1,9.05-21.47,15.32,15.32,0,0,0-7.63,1.95c3.18-5.35,10.42-11,21.29-11.17,13.13-.24,26.42,7.11,34.07-3.91,0,0-6.5,5.19-13.49,2.49-6.14-2.38-8.11-8.83-7.45-13.13,4.29,10,19.16,9.76,25.55,1.42-8.72,6.05-22.36,1.75-22.36-8,0-11.88,20.23-9.93,25.55-20.76-2.95,12.41-14.59,12.41-14.59,18.86,0,2.49,1.91,4.16,4.53,4.16,7.59,0,19.83-17.06,12.9-38.45-4.2,12.83-13.13,18.45-23.42,21.82,7.37-4.68,15.18-14.37,14.55-25.9-3.68,14.94-26.56,18.53-24.31,40.45-6-14.9-.91-26.37,8.7-34.42-21,9.36-13.87,27.26-22.48,43.77-8.13,15.57-25.09,20.55-36.79,20.1,5.68-2.09,12.84-6.33,17.23-22.17,2.89-10.48,4.76-20.26,17-27.15-7.69,12.26-4.54,25.69-14.9,36.73,13.92-9.83,10.49-27.69,21.11-41.7-10.62,3.41-19.68,9.38-23.6,18.63,2.92-15.76,19.71-32.53,49.15-36.55-30.33-1.29-36.17,15.55-51.46,16.16-9.68.39-18.13-8.39-28-13.68,12.11,3.08,31.11,11.33,41.16-2.13,0,0-6.19,5.27-18.27,3.73-12.27-1.56-23.46-9.4-54.12-11.35,30.66-2,41.85-9.8,54.12-11.36,12.08-1.54,18.27,3.72,18.27,3.72-10.05-13.45-29.05-5.19-41.16-2.12,9.9-5.29,18.35-14.06,28-13.68,15.29.61,21.13,17.45,51.46,16.16-29.44-4-46.23-20.79-49.15-36.55,3.92,9.25,13,15.22,23.6,18.63-10.62-14-7.19-31.87-21.11-41.7,10.36,11,7.21,24.47,14.9,36.73-12.26-6.89-14.13-16.67-17-27.14-4.39-15.85-11.55-20.09-17.23-22.18,11.7-.45,28.66,4.53,36.79,20.1,8.61,16.51,1.44,34.41,22.48,43.77-9.61-8.06-14.73-19.52-8.7-34.42-2.25,21.92,20.63,25.5,24.31,40.45.63-11.53-7.18-21.22-14.55-25.9,10.29,3.37,19.22,9,23.42,21.82,6.93-21.39-5.31-38.45-12.9-38.45-2.62,0-4.53,1.67-4.53,4.16,0,6.45,11.64,6.45,14.59,18.86-5.32-10.83-25.55-8.87-25.55-20.76,0-9.74,13.64-14,22.36-8-6.39-8.34-21.26-8.62-25.55,1.42-.66-4.3,1.31-10.75,7.45-13.13,7-2.7,13.49,2.49,13.49,2.49-7.65-11-20.94-3.67-34.07-3.91C373,188,365.72,182.39,362.54,177a15.32,15.32,0,0,0,7.63,2,21.13,21.13,0,0,1-9.05-21.47c1.3,6.25,8.57,10.68,22.36,11.63,15.55,1.08,23.8,3.57,29.09,9.31-11.2-5-28.93,1.9-41-6,7.45,8.54,23.93,6.09,35.71,8C428,183.73,440.63,218.69,439,234c5.66-23.42-9.46-36.2-12.79-49.13-3.63-14.13,3.37-23.83,9.95-28.8-10.28,15.4,7.42,24.63,4.61,44.36,5.23-19.19-4.43-24.67-4.43-34.6,0-9.76,8.58-13,10.29-25.55,1.71,12.55,10.29,15.79,10.29,25.55,0,9.93-9.66,15.41-4.43,34.6-2.81-19.73,14.89-29,4.61-44.36,6.58,5,13.58,14.67,9.95,28.8-3.33,12.93-18.45,25.71-12.79,49.13-1.62-15.34,11-50.3,31.71-53.63,11.78-1.89,28.26.56,35.71-8-12.05,7.94-29.78,1.08-41,6,5.29-5.74,13.54-8.23,29.1-9.31,13.78-1,21.05-5.38,22.35-11.63a21.13,21.13,0,0,1-9,21.47,15.32,15.32,0,0,0,7.63-2c-3.18,5.35-10.42,11-21.29,11.17-13.13.24-26.43-7.11-34.07,3.91,0,0,6.5-5.19,13.49-2.49,6.14,2.38,8.11,8.83,7.45,13.13-4.29-10-19.16-9.76-25.55-1.42,8.72-6.05,22.36-1.75,22.36,8,0,11.89-20.23,9.93-25.55,20.76,2.95-12.41,14.59-12.41,14.59-18.86,0-2.49-1.91-4.16-4.53-4.16-7.59,0-19.83,17.06-12.9,38.45,4.2-12.83,13.13-18.45,23.42-21.82-7.37,4.68-15.18,14.37-14.55,25.9,3.68-14.95,26.56-18.53,24.31-40.45,6,14.9.91,26.36-8.7,34.42,21-9.36,13.87-27.26,22.48-43.77,8.13-15.57,25.09-20.55,36.79-20.1-5.68,2.09-12.84,6.33-17.23,22.18-2.9,10.47-4.76,20.25-17,27.14,7.69-12.26,4.54-25.69,14.91-36.73C515.22,202.12,518.65,220,508,234c10.62-3.41,19.68-9.38,23.6-18.63-2.92,15.76-19.71,32.53-49.15,36.55,30.33,1.29,36.17-15.55,51.45-16.16,9.69-.38,18.14,8.39,28,13.68-12.11-3.07-31.11-11.33-41.16,2.12,0,0,6.19-5.26,18.27-3.72,12.27,1.56,23.46,9.4,54.12,11.36-30.66,1.95-41.85,9.79-54.12,11.35-12.08,1.54-18.27-3.73-18.27-3.73,10.05,13.46,29.05,5.21,41.16,2.13-9.9,5.29-18.35,14.07-28,13.68C518.65,282,512.81,265.17,482.48,266.46Zm33.36-7.27c4.61,1.24,8.63,3.77,14.49,3.77,7.11,0,11.07-2.76,16.74-3.77-5.67-1-9.63-3.77-16.74-3.77C524.47,255.42,520.45,257.94,515.84,259.19Zm-72.22-90.32c0,5.13,3,8.4,3,12.13,0-3.73,3-7,3-12.13,0-4.56-2.25-6.65-3-11.43C445.87,162.22,443.62,164.31,443.62,168.87Zm-66.18,90.32c-4.61-1.25-8.63-3.77-14.49-3.77-7.11,0-11.07,2.75-16.74,3.77,5.67,1,9.63,3.77,16.74,3.77C368.81,263,372.83,260.43,377.44,259.19Zm72.22,90.31c0-5.13-3-8.4-3-12.13,0,3.73-3,7-3,12.13,0,4.56,2.25,6.65,3,11.43C447.41,356.15,449.66,354.06,449.66,349.5Zm42-90.31c-9.94,0-24.09-5-35-3a24.73,24.73,0,0,0,7.46-6.74c-4.41.43-6.76.79-10.12,2.3,2.66-6,3.2-9.4,3.73-15.43a31.42,31.42,0,0,0-6.57,10.64c.71-12.42-4.25-15.24-4.61-31.76-.36,16.52-5.32,19.34-4.61,31.76a31.42,31.42,0,0,0-6.57-10.64c.53,6,1.07,9.42,3.73,15.43-3.36-1.51-5.71-1.87-10.12-2.3a24.73,24.73,0,0,0,7.46,6.74c-10.87-2-25,3-35,3,9.94,0,24.09,5,35,3a24.73,24.73,0,0,0-7.46,6.74c4.41-.43,6.76-.79,10.12-2.3-2.66,6-3.2,9.4-3.73,15.43A31.42,31.42,0,0,0,442,271.43c-.71,12.42,4.25,15.24,4.61,31.76.36-16.52,5.32-19.34,4.61-31.76a31.42,31.42,0,0,0,6.57,10.64c-.53-6-1.07-9.42-3.73-15.43,3.36,1.51,5.71,1.87,10.12,2.3a24.73,24.73,0,0,0-7.46-6.74C467.62,264.17,481.77,259.19,491.71,259.19Z"/><path class="cls-5" d="M391.76,137.92c2.64,13.83,25.37,16.26,30.29,34.06,3.77-19.12,21.29-19.87,21.54-33.12-3.18,7.8-10.84,5.79-15.89,12.12.85-6.15,4.64-11.89,12.39-15.08-7.67-1.07-15.63,1.83-19.12,9.56-2.55-4.17-2.81-8.45-.67-13.87a15.2,15.2,0,0,0-5.65,16.56C407.38,140.88,396.74,144.92,391.76,137.92Z"/><path class="cls-6" d="M464.86,259.19c-4.26-.67-9.39-3.21-14.13-1.22,2.32-1.81,1.14-3.52,2.53-5.2-1.92,1.39-3.51.5-5,2.74,1.54-5.31-.53-8.14-1.63-14.11-1.1,6-3.17,8.8-1.63,14.11-1.48-2.24-3.07-1.35-5-2.74,1.39,1.68.21,3.39,2.53,5.2-4.74-2-9.87.55-14.13,1.22,4.26.66,9.39,3.19,14.13,1.21-2.32,1.81-1.14,3.52-2.53,5.2,1.92-1.39,3.51-.5,5-2.74-1.54,5.31.53,8.14,1.63,14.12,1.1-6,3.17-8.81,1.63-14.12,1.48,2.24,3.07,1.35,5,2.74-1.39-1.68-.21-3.39-2.53-5.2C455.47,262.38,460.6,259.85,464.86,259.19Z"/><path class="cls-7" d="M81.53,232c4.69-4.59,6.91-12.18,7.27-21.72.47-12.52,5.41-17.65,13.33-18.52-11.8,4.57-4.45,17.11-7.95,25.84,6.44-4.78,4.39-20.68,17.64-21.4-9.78,3.19-2.84,16.67-9.29,24.5,7.81-.11,11.4,6.12,21.54,3.23-4.72,3.63-10,5.92-18.85,5.92,6.26,3.86,9,8.63,11.31,15.35C106.4,234.61,91.68,230.54,81.53,232Z"/><path class="cls-2" d="M67.8,190.69a32.84,32.84,0,0,0-11.44,22.75c-1.08-10.23-3.2-18.13-8.21-24,0,0,6.32,3.09,8.61,9.15C59.72,193.38,67.8,190.69,67.8,190.69Z"/><path class="cls-2" d="M81.8,139.81c-1.22,6-6.31,11.17-12.92,13.73a21.14,21.14,0,0,0-2.16-19.79,21.46,21.46,0,0,1-5.79,18,18.14,18.14,0,0,0-1.07-13.87c.94,8.48-6.17,12.79-15.62,18.44C31.58,163.94,27,172.41,25,183.59c3.45-6.87,9.91-13.14,27.86-17.29C75.15,161.14,83.25,153.88,81.8,139.81Z"/><path class="cls-8" d="M54.88,137.92C52.24,151.75,29.51,154.18,24.59,172c-3.77-19.12-21.3-19.87-21.54-33.12,3.18,7.8,10.84,5.79,15.89,12.12-.85-6.15-4.64-11.89-12.39-15.08,7.67-1.07,15.63,1.83,19.12,9.56,2.55-4.17,2.81-8.45.67-13.87A15.2,15.2,0,0,1,32,148.15C39.26,140.88,49.9,144.92,54.88,137.92Z"/><path class="cls-9" d="M35.84,266.46c29.44,4,46.23,20.79,49.15,36.55-3.92-9.25-13-15.22-23.6-18.63,10.61,14,7.19,31.87,21.11,41.7-10.36-11-7.21-24.47-14.9-36.73,12.26,6.89,14.12,16.67,17,27.15,4.39,15.84,11.55,20.08,17.22,22.17-11.69.45-28.66-4.53-36.78-20.1-8.61-16.51-1.45-34.41-22.48-43.77,9.6,8.05,14.73,19.52,8.7,34.42C53.53,287.3,30.65,283.71,27,268.77c-.63,11.53,7.18,21.22,14.55,25.9-10.29-3.37-19.22-9-23.42-21.82C11.17,294.24,23.41,311.3,31,311.3c2.62,0,4.53-1.67,4.53-4.16,0-6.45-11.64-6.45-14.59-18.86,5.32,10.83,25.55,8.88,25.55,20.76,0,9.74-13.64,14-22.36,8,6.39,8.34,21.26,8.62,25.55-1.42.66,4.3-1.31,10.75-7.45,13.13-7,2.7-13.49-2.49-13.49-2.49,7.64,11,20.94,3.67,34.07,3.91,10.87.19,18.11,5.82,21.29,11.17a15.32,15.32,0,0,0-7.63-1.95,21.14,21.14,0,0,1,9,21.47c-1.3-6.25-8.57-10.68-22.35-11.63-15.56-1.08-23.81-3.57-29.1-9.3,11.2,4.95,28.93-1.91,41,6-7.45-8.54-23.93-6.09-35.71-8C18.63,334.64,6,299.68,7.63,284.33,2,307.76,17.09,320.54,20.42,333.47c3.63,14.13-3.37,23.82-10,28.8,10.28-15.4-7.42-24.63-4.62-44.36-5.22,19.19,4.44,24.67,4.44,34.6,0,9.76-8.58,13-10.29,25.55-1.71-12.55-10.29-15.79-10.29-25.55,0-9.93,9.66-15.41,4.43-34.6,2.81,19.73-14.89,29-4.61,44.36-6.58-5-13.58-14.67-10-28.8C-17.09,320.54-2,307.76-7.63,284.33c1.62,15.35-11,50.31-31.71,53.64-11.78,1.89-28.26-.56-35.71,8,12-7.94,29.78-1.08,41-6-5.29,5.73-13.54,8.22-29.09,9.3-13.79.95-21.06,5.38-22.36,11.63a21.13,21.13,0,0,1,9-21.47,15.32,15.32,0,0,0-7.63,1.95c3.18-5.35,10.42-11,21.29-11.17,13.13-.24,26.42,7.11,34.07-3.91,0,0-6.5,5.19-13.49,2.49-6.14-2.38-8.11-8.83-7.45-13.13,4.29,10,19.16,9.76,25.55,1.42-8.72,6.05-22.36,1.75-22.36-8,0-11.88,20.23-9.93,25.55-20.76-2.95,12.41-14.59,12.41-14.59,18.86,0,2.49,1.91,4.16,4.53,4.16,7.59,0,19.83-17.06,12.9-38.45-4.2,12.83-13.13,18.45-23.42,21.82C-34.15,290-26.34,280.3-27,268.77c-3.68,14.94-26.56,18.53-24.31,40.45-6-14.9-.91-26.37,8.7-34.42-21,9.36-13.87,27.26-22.49,43.77-8.12,15.57-25.08,20.55-36.78,20.1,5.68-2.09,12.84-6.33,17.23-22.17,2.89-10.48,4.76-20.26,17-27.15-7.69,12.26-4.54,25.69-14.9,36.73,13.92-9.83,10.49-27.69,21.11-41.7C-72,287.79-81.07,293.76-85,303c2.91-15.76,19.71-32.53,49.15-36.55C-66.17,265.17-72,282-87.3,282.62c-9.68.39-18.13-8.39-28-13.68,12.11,3.08,31.11,11.33,41.16-2.13,0,0-6.19,5.27-18.27,3.73-12.27-1.56-23.46-9.4-54.12-11.35,30.66-2,41.85-9.8,54.12-11.36,12.08-1.54,18.27,3.72,18.27,3.72-10-13.45-29-5.19-41.16-2.12,9.9-5.29,18.35-14.06,28-13.68,15.29.61,21.13,17.45,51.46,16.16-29.44-4-46.24-20.79-49.15-36.55,3.92,9.25,13,15.22,23.6,18.63-10.62-14-7.19-31.87-21.11-41.7,10.36,11,7.21,24.47,14.9,36.73-12.26-6.89-14.13-16.67-17-27.14C-89,186-96.17,181.79-101.85,179.7c11.7-.45,28.66,4.53,36.78,20.1,8.62,16.51,1.45,34.41,22.49,43.77-9.61-8.06-14.73-19.52-8.7-34.42-2.25,21.92,20.63,25.5,24.31,40.45.63-11.53-7.18-21.22-14.55-25.9,10.29,3.37,19.22,9,23.42,21.82,6.93-21.39-5.31-38.45-12.9-38.45-2.62,0-4.53,1.67-4.53,4.16,0,6.45,11.64,6.45,14.59,18.86-5.32-10.83-25.55-8.87-25.55-20.76,0-9.74,13.64-14,22.36-8-6.39-8.34-21.26-8.62-25.55,1.42-.66-4.3,1.31-10.75,7.45-13.13,7-2.7,13.49,2.49,13.49,2.49-7.65-11-20.94-3.67-34.07-3.91C-73.68,188-80.92,182.39-84.1,177a15.32,15.32,0,0,0,7.63,2,21.13,21.13,0,0,1-9-21.47c1.3,6.25,8.57,10.68,22.36,11.63,15.55,1.08,23.8,3.57,29.09,9.31-11.2-5-28.93,1.9-41-6,7.45,8.54,23.93,6.09,35.71,8C-18.63,183.73-6,218.69-7.63,234c5.65-23.42-9.46-36.2-12.79-49.13-3.63-14.13,3.37-23.83,10-28.8C-20.75,171.5-3,180.73-5.86,200.46c5.23-19.19-4.43-24.67-4.43-34.6,0-9.76,8.58-13,10.29-25.55,1.71,12.55,10.29,15.79,10.29,25.55,0,9.93-9.66,15.41-4.44,34.6-2.8-19.73,14.9-29,4.62-44.36,6.58,5,13.58,14.67,10,28.8C17.09,197.83,2,210.61,7.63,234c-1.62-15.34,11-50.3,31.71-53.63,11.78-1.89,28.26.56,35.71-8-12,7.94-29.78,1.08-41,6,5.29-5.74,13.54-8.23,29.1-9.31,13.78-1,21-5.38,22.35-11.63a21.14,21.14,0,0,1-9,21.47,15.32,15.32,0,0,0,7.63-2c-3.18,5.35-10.42,11-21.29,11.17-13.13.24-26.43-7.11-34.07,3.91,0,0,6.5-5.19,13.49-2.49,6.14,2.38,8.11,8.83,7.45,13.13-4.29-10-19.16-9.76-25.55-1.42,8.72-6.05,22.36-1.75,22.36,8,0,11.89-20.23,9.93-25.55,20.76,2.95-12.41,14.59-12.41,14.59-18.86,0-2.49-1.91-4.16-4.53-4.16-7.59,0-19.83,17.06-12.9,38.45,4.2-12.83,13.13-18.45,23.42-21.82-7.37,4.68-15.18,14.37-14.55,25.9,3.68-14.95,26.56-18.53,24.31-40.45,6,14.9.9,26.36-8.7,34.42,21-9.36,13.87-27.26,22.48-43.77,8.12-15.57,25.09-20.55,36.78-20.1C96.17,181.79,89,186,84.62,201.88c-2.9,10.47-4.76,20.25-17,27.14,7.69-12.26,4.54-25.69,14.9-36.73C68.58,202.12,72,220,61.39,234,72,230.58,81.07,224.61,85,215.36c-2.92,15.76-19.71,32.53-49.15,36.55C66.17,253.2,72,236.36,87.29,235.75c9.69-.38,18.14,8.39,28,13.68-12.11-3.07-31.11-11.33-41.16,2.12,0,0,6.19-5.26,18.27-3.72,12.27,1.56,23.46,9.4,54.12,11.36-30.66,1.95-41.85,9.79-54.12,11.35-12.08,1.54-18.27-3.73-18.27-3.73,10,13.46,29.05,5.21,41.16,2.13-9.9,5.29-18.35,14.07-28,13.68C72,282,66.17,265.17,35.84,266.46Zm33.36-7.27c4.61,1.24,8.63,3.77,14.48,3.77,7.12,0,11.08-2.76,16.74-3.77-5.66-1-9.62-3.77-16.74-3.77C77.83,255.42,73.81,257.94,69.2,259.19ZM-3,168.87c0,5.13,3,8.4,3,12.13,0-3.73,3-7,3-12.13,0-4.56-2.25-6.65-3-11.43C-.77,162.22-3,164.31-3,168.87ZM-69.2,259.19c-4.61-1.25-8.63-3.77-14.49-3.77-7.11,0-11.07,2.75-16.74,3.77,5.67,1,9.63,3.77,16.74,3.77C-77.83,263-73.81,260.43-69.2,259.19ZM3,349.5c0-5.13-3-8.4-3-12.13,0,3.73-3,7-3,12.13,0,4.56,2.25,6.65,3,11.43C.77,356.15,3,354.06,3,349.5Zm42.05-90.31c-9.94,0-24.09-5-35-3a24.73,24.73,0,0,0,7.46-6.74c-4.41.43-6.76.79-10.12,2.3,2.66-6,3.2-9.4,3.73-15.43a31.42,31.42,0,0,0-6.57,10.64C5.32,234.52.35,231.7,0,215.18c-.36,16.52-5.32,19.34-4.61,31.76a31.42,31.42,0,0,0-6.57-10.64c.53,6,1.07,9.42,3.73,15.43-3.36-1.51-5.71-1.87-10.12-2.3a24.73,24.73,0,0,0,7.46,6.74c-10.87-2-25,3-35,3,9.94,0,24.09,5,35,3a24.73,24.73,0,0,0-7.46,6.74c4.41-.43,6.76-.79,10.12-2.3-2.66,6-3.2,9.4-3.73,15.43a31.42,31.42,0,0,0,6.57-10.64C-5.32,283.85-.36,286.67,0,303.19c.35-16.52,5.32-19.34,4.61-31.76a31.42,31.42,0,0,0,6.57,10.64c-.53-6-1.07-9.42-3.73-15.43,3.36,1.51,5.71,1.87,10.12,2.3a24.73,24.73,0,0,0-7.46-6.74C21,264.17,35.13,259.19,45.07,259.19Z"/><path class="cls-6" d="M18.22,259.19C14,258.52,8.83,256,4.09,258c2.32-1.81,1.14-3.52,2.53-5.2-1.92,1.39-3.51.5-5,2.74C3.17,250.2,1.1,247.37,0,241.4c-1.1,6-3.17,8.8-1.63,14.11-1.48-2.24-3.07-1.35-5-2.74,1.39,1.68.21,3.39,2.53,5.2-4.74-2-9.87.55-14.13,1.22,4.26.66,9.39,3.19,14.13,1.21-2.32,1.81-1.14,3.52-2.53,5.2,1.92-1.39,3.51-.5,5-2.74C-3.17,268.17-1.1,271,0,277c1.1-6,3.17-8.81,1.63-14.12,1.48,2.24,3.07,1.35,5,2.74-1.39-1.68-.21-3.39-2.53-5.2C8.83,262.38,14,259.85,18.22,259.19Z"/><path class="cls-10" d="M391.76,121.26c2.64-13.83,25.37-16.25,30.29-34.05,3.77,19.11,21.29,19.87,21.54,33.11-3.18-7.8-10.84-5.78-15.89-12.11.85,6.15,4.64,11.89,12.39,15.07-7.67,1.08-15.63-1.83-19.12-9.56-2.55,4.18-2.81,8.45-.67,13.87A15.19,15.19,0,0,1,414.65,111C407.38,118.3,396.74,114.26,391.76,121.26Z"/><path class="cls-2" d="M378.84,68.5a32.84,32.84,0,0,0,11.44-22.75c1.08,10.23,3.2,18.13,8.21,24,0,0-6.32-3.1-8.61-9.16C386.92,65.8,378.84,68.5,378.84,68.5Z"/><path class="cls-2" d="M364.84,119.38c1.22-6,6.31-11.18,12.92-13.73a21.14,21.14,0,0,0,2.16,19.79,21.47,21.47,0,0,1,5.78-18,18.16,18.16,0,0,0,1.08,13.86c-.94-8.48,6.17-12.78,15.62-18.44,12.66-7.58,17.27-16,19.25-27.22-3.46,6.86-9.91,13.13-27.86,17.29C371.49,98.05,363.39,105.3,364.84,119.38Z"/><path class="cls-11" d="M482.48,7.27c29.44,4,46.23,20.79,49.15,36.56-3.92-9.26-13-15.23-23.6-18.64,10.62,14,7.19,31.87,21.12,41.7-10.37-11-7.22-24.46-14.91-36.73,12.26,6.9,14.12,16.67,17,27.15,4.39,15.84,11.55,20.09,17.23,22.18-11.7.45-28.66-4.53-36.79-20.1-8.61-16.51-1.45-34.41-22.48-43.78,9.61,8.06,14.73,19.52,8.7,34.43,2.25-21.93-20.63-25.51-24.31-40.46-.63,11.53,7.18,21.22,14.55,25.91-10.29-3.38-19.22-9-23.42-21.83-6.93,21.39,5.31,38.46,12.9,38.46,2.62,0,4.53-1.67,4.53-4.17,0-6.45-11.64-6.45-14.59-18.85,5.32,10.82,25.55,8.87,25.55,20.76,0,9.74-13.64,14-22.36,8,6.39,8.34,21.26,8.62,25.55-1.42.66,4.31-1.31,10.76-7.45,13.13-7,2.7-13.49-2.48-13.49-2.48,7.64,11,20.94,3.67,34.07,3.9,10.87.19,18.11,5.82,21.29,11.18a15.11,15.11,0,0,0-7.63-2,21.12,21.12,0,0,1,9,21.47C530.86,95.42,523.59,91,509.81,90c-15.56-1.07-23.81-3.57-29.1-9.3,11.2,5,28.93-1.91,41,6-7.45-8.54-23.93-6.09-35.71-8-20.71-3.32-33.33-38.28-31.71-53.63-5.66,23.42,9.46,36.2,12.79,49.13,3.63,14.14-3.37,23.83-9.95,28.81,10.28-15.4-7.42-24.63-4.61-44.36-5.23,19.19,4.43,24.66,4.43,34.6,0,9.76-8.58,13-10.29,25.55-1.71-12.56-10.29-15.79-10.29-25.55,0-9.94,9.66-15.41,4.43-34.6,2.81,19.73-14.89,29-4.61,44.36-6.58-5-13.58-14.67-9.95-28.81,3.33-12.93,18.45-25.71,12.79-49.13,1.62,15.35-11,50.31-31.71,53.63-11.78,1.89-28.26-.56-35.71,8,12.05-7.94,29.78-1.07,41-6C407.28,86.46,399,89,383.48,90c-13.79,1-21.06,5.39-22.36,11.64a21.12,21.12,0,0,1,9.05-21.47,15.11,15.11,0,0,0-7.63,2c3.18-5.36,10.42-11,21.29-11.18,13.13-.23,26.42,7.11,34.07-3.9,0,0-6.5,5.18-13.49,2.48-6.14-2.37-8.11-8.82-7.45-13.13,4.29,10,19.16,9.76,25.55,1.42-8.72,6-22.36,1.76-22.36-8,0-11.89,20.23-9.94,25.55-20.76C422.75,41.5,411.11,41.5,411.11,48c0,2.5,1.91,4.17,4.53,4.17,7.59,0,19.83-17.07,12.9-38.46-4.2,12.84-13.13,18.45-23.42,21.83,7.37-4.69,15.18-14.38,14.55-25.91C416,24.53,393.11,28.11,395.36,50c-6-14.91-.91-26.37,8.7-34.43C383,25,390.19,42.88,381.58,59.39c-8.13,15.57-25.09,20.55-36.79,20.1,5.68-2.09,12.84-6.34,17.23-22.18,2.89-10.48,4.76-20.25,17-27.15-7.69,12.27-4.54,25.69-14.9,36.73,13.92-9.83,10.49-27.68,21.11-41.7-10.62,3.41-19.68,9.38-23.6,18.64,2.92-15.77,19.71-32.53,49.15-36.56C380.47,6,374.63,22.83,359.34,23.44c-9.68.38-18.13-8.4-28-13.68,12.11,3.07,31.11,11.33,41.16-2.13,0,0-6.19,5.26-18.27,3.73C341.93,9.8,330.74,2,300.08,0c30.66-2,41.85-9.8,54.12-11.36,12.08-1.53,18.27,3.73,18.27,3.73-10.05-13.46-29.05-5.2-41.16-2.13,9.9-5.29,18.35-14.06,28-13.68C374.63-22.83,380.47-6,410.8-7.28c-29.44-4-46.23-20.79-49.15-36.54,3.92,9.24,13,15.22,23.6,18.62-10.62-14-7.19-31.86-21.11-41.69,10.36,11,7.21,24.46,14.9,36.73-12.26-6.9-14.13-16.67-17-27.15-4.39-15.85-11.55-20.09-17.23-22.18,11.7-.45,28.66,4.53,36.79,20.1C390.19-42.87,383-25,404.06-15.62c-9.61-8.05-14.73-19.51-8.7-34.42C393.11-28.11,416-24.53,419.67-9.58c.63-11.53-7.18-21.22-14.55-25.91,10.29,3.37,19.22,9,23.42,21.83,6.93-21.39-5.31-38.46-12.9-38.46-2.62,0-4.53,1.67-4.53,4.17,0,6.45,11.64,6.45,14.59,18.85-5.32-10.82-25.55-8.87-25.55-20.76,0-9.74,13.64-14,22.36-8-6.39-8.34-21.26-8.62-25.55,1.42-.66-4.31,1.31-10.76,7.45-13.13,7-2.7,13.49,2.48,13.49,2.48-7.65-11-20.94-3.67-34.07-3.9-10.87-.19-18.11-5.82-21.29-11.18a15.11,15.11,0,0,0,7.63,2,21.13,21.13,0,0,1-9.05-21.47c1.3,6.25,8.57,10.68,22.36,11.64,15.55,1.07,23.8,3.57,29.09,9.3-11.2-5-28.93,1.91-41-6,7.45,8.54,23.93,6.09,35.71,8C428-75.46,440.63-40.5,439-25.15c5.66-23.42-9.46-36.2-12.79-49.14-3.63-14.13,3.37-23.82,9.95-28.8-10.28,15.4,7.42,24.63,4.61,44.36,5.23-19.19-4.43-24.66-4.43-34.6,0-9.76,8.58-13,10.29-25.55,1.71,12.56,10.29,15.79,10.29,25.55,0,9.94-9.66,15.41-4.43,34.6-2.81-19.73,14.89-29,4.61-44.36,6.58,5,13.58,14.67,9.95,28.8-3.33,12.94-18.45,25.72-12.79,49.14-1.62-15.35,11-50.31,31.71-53.63,11.78-1.89,28.26.56,35.71-8-12.05,7.94-29.78,1.07-41,6C486-86.46,494.25-89,509.81-90c13.78-1,21.05-5.39,22.35-11.64a21.13,21.13,0,0,1-9,21.47,15.11,15.11,0,0,0,7.63-2c-3.18,5.36-10.42,11-21.29,11.18-13.13.23-26.43-7.11-34.07,3.9,0,0,6.5-5.18,13.49-2.48,6.14,2.37,8.11,8.82,7.45,13.13-4.29-10-19.16-9.76-25.55-1.42,8.72-6,22.36-1.76,22.36,8,0,11.89-20.23,9.94-25.55,20.76,2.95-12.4,14.59-12.4,14.59-18.85,0-2.5-1.91-4.17-4.53-4.17-7.59,0-19.83,17.07-12.9,38.46,4.2-12.84,13.13-18.46,23.42-21.83C480.79-30.8,473-21.11,473.61-9.58c3.68-14.95,26.56-18.53,24.31-40.46,6,14.91.91,26.37-8.7,34.42,21-9.36,13.87-27.25,22.48-43.77,8.13-15.57,25.09-20.55,36.79-20.1-5.68,2.09-12.84,6.33-17.23,22.18-2.9,10.48-4.76,20.25-17,27.15,7.69-12.27,4.54-25.69,14.91-36.73C515.22-57.06,518.65-39.21,508-25.2c10.62-3.4,19.68-9.38,23.6-18.62-2.92,15.75-19.71,32.52-49.15,36.54,30.33,1.3,36.17-15.55,51.45-16.16,9.69-.38,18.14,8.39,28,13.68-12.11-3.07-31.11-11.33-41.16,2.13,0,0,6.19-5.26,18.27-3.73C551.35-9.8,562.54-2,593.2,0c-30.66,2-41.85,9.8-54.12,11.36C527,12.89,520.81,7.63,520.81,7.63c10.05,13.46,29.05,5.2,41.16,2.13-9.9,5.28-18.35,14.06-28,13.68C518.65,22.83,512.81,6,482.48,7.27ZM515.84,0c4.61,1.24,8.63,3.77,14.49,3.77C537.44,3.77,541.4,1,547.07,0c-5.67-1-9.63-3.77-16.74-3.77C524.47-3.77,520.45-1.24,515.84,0ZM443.62-90.31c0,5.12,3,8.4,3,12.12,0-3.72,3-7,3-12.12,0-4.57-2.25-6.65-3-11.44C445.87-97,443.62-94.88,443.62-90.31ZM377.44,0c-4.61-1.24-8.63-3.77-14.49-3.77C355.84-3.77,351.88-1,346.21,0c5.67,1,9.63,3.77,16.74,3.77C368.81,3.77,372.83,1.24,377.44,0Zm72.22,90.31c0-5.12-3-8.4-3-12.12,0,3.72-3,7-3,12.12,0,4.57,2.25,6.65,3,11.43C447.41,97,449.66,94.88,449.66,90.31ZM491.71,0c-9.94,0-24.09-5-35-3a24.73,24.73,0,0,0,7.46-6.74c-4.41.43-6.76.8-10.12,2.31,2.66-6,3.2-9.4,3.73-15.44a31.47,31.47,0,0,0-6.57,10.65C452-24.66,447-27.49,446.64-44c-.36,16.51-5.32,19.34-4.61,31.76a31.47,31.47,0,0,0-6.57-10.65c.53,6,1.07,9.42,3.73,15.44-3.36-1.51-5.71-1.88-10.12-2.31A24.73,24.73,0,0,0,436.53-3c-10.87-2-25,3-35,3,9.94,0,24.09,5,35,3a24.6,24.6,0,0,0-7.46,6.74c4.41-.43,6.76-.8,10.12-2.31-2.66,6-3.2,9.4-3.73,15.44A31.47,31.47,0,0,0,442,12.24c-.71,12.42,4.25,15.25,4.61,31.76.36-16.51,5.32-19.34,4.61-31.76a31.47,31.47,0,0,0,6.57,10.65c-.53-6-1.07-9.42-3.73-15.44,3.36,1.51,5.71,1.88,10.12,2.31A24.6,24.6,0,0,0,456.75,3C467.62,5,481.77,0,491.71,0Z"/><path class="cls-12" d="M365.11,27.17c-4.69,4.6-6.91,12.19-7.27,21.72-.47,12.53-5.41,17.66-13.33,18.53,11.8-4.58,4.45-17.12,7.95-25.85C346,46.36,348.07,62.25,334.82,63c9.78-3.2,2.84-16.68,9.29-24.5-7.81.1-11.4-6.13-21.54-3.23,4.72-3.64,10-5.93,18.85-5.93-6.26-3.86-9-8.62-11.31-15.34C340.24,24.57,355,28.64,365.11,27.17Z"/><path class="cls-6" d="M464.86,0c-4.26-.66-9.39-3.2-14.13-1.22,2.32-1.8,1.14-3.51,2.53-5.2-1.92,1.39-3.51.51-5,2.75,1.54-5.31-.53-8.14-1.63-14.12-1.1,6-3.17,8.81-1.63,14.12-1.48-2.24-3.07-1.36-5-2.75,1.39,1.69.21,3.4,2.53,5.2-4.74-2-9.87.56-14.13,1.22,4.26.67,9.39,3.2,14.13,1.22-2.32,1.8-1.14,3.51-2.53,5.2,1.92-1.39,3.51-.5,5-2.75-1.54,5.31.53,8.14,1.63,14.12,1.1-6,3.17-8.81,1.63-14.12,1.48,2.25,3.07,1.36,5,2.75-1.39-1.69-.21-3.4-2.53-5.2C455.47,3.2,460.6.67,464.86,0Z"/><path class="cls-13" d="M168.44,250.86c2.64-13.83,25.37-16.26,30.29-34.06,3.77,19.11,21.29,19.87,21.54,33.11-3.18-7.8-10.84-5.78-15.89-12.11.85,6.15,4.64,11.89,12.39,15.07-7.68,1.08-15.63-1.83-19.12-9.55-2.56,4.17-2.81,8.45-.67,13.86a15.18,15.18,0,0,1-5.65-16.55C184.06,247.89,173.42,243.86,168.44,250.86Z"/><path class="cls-14" d="M278.2,250.86c-2.64-13.83-25.37-16.26-30.29-34.06-3.77,19.11-21.3,19.87-21.54,33.11,3.18-7.8,10.84-5.78,15.89-12.11-.85,6.15-4.64,11.89-12.39,15.07C237.54,254,245.5,251,249,243.32c2.55,4.17,2.81,8.45.67,13.86a15.18,15.18,0,0,0,5.65-16.55C262.58,247.89,273.22,243.86,278.2,250.86Z"/><path class="cls-15" d="M304.85,102.42c4.69-4.59,6.91-12.18,7.27-21.72.47-12.53,5.41-17.66,13.33-18.53C313.65,66.75,321,79.29,317.5,88c6.44-4.79,4.39-20.68,17.64-21.4-9.78,3.19-2.84,16.67-9.29,24.49,7.81-.1,11.4,6.13,21.54,3.24-4.72,3.63-10,5.92-18.85,5.92,6.26,3.86,9,8.63,11.31,15.34C329.72,105,315,101,304.85,102.42Z"/><path class="cls-2" d="M155.52,61.1A32.82,32.82,0,0,1,167,83.85c1.08-10.23,3.2-18.14,8.21-24,0,0-6.33,3.1-8.61,9.16C163.6,63.79,155.52,61.1,155.52,61.1Z"/><path class="cls-2" d="M141.52,10.21c1.22,6,6.31,11.18,12.92,13.73A21.14,21.14,0,0,1,156.6,4.15a21.46,21.46,0,0,0,5.78,18,18.17,18.17,0,0,1,1.08-13.86c-.94,8.48,6.17,12.79,15.62,18.44,12.66,7.58,17.27,16,19.25,27.23-3.46-6.87-9.91-13.14-27.86-17.29C148.17,31.54,140.07,24.29,141.52,10.21Z"/><path class="cls-16" d="M141.79,102.42c-4.69-4.59-6.91-12.18-7.27-21.72-.47-12.53-5.41-17.66-13.33-18.53,11.8,4.58,4.45,17.12,7.94,25.85-6.44-4.79-4.38-20.68-17.63-21.4,9.78,3.19,2.83,16.67,9.29,24.49-7.81-.1-11.4,6.13-21.54,3.24,4.71,3.63,10,5.92,18.85,5.92-6.26,3.86-9,8.63-11.31,15.34C116.92,105,131.64,101,141.79,102.42Z"/><path class="cls-2" d="M291.12,61.1a32.82,32.82,0,0,0-11.44,22.75c-1.08-10.23-3.2-18.14-8.21-24,0,0,6.32,3.1,8.61,9.16C283,63.79,291.12,61.1,291.12,61.1Z"/><path class="cls-2" d="M305.12,10.21c-1.22,6-6.31,11.18-12.92,13.73A21.14,21.14,0,0,0,290,4.15a21.41,21.41,0,0,1-5.79,18,18.12,18.12,0,0,0-1.07-13.86c.94,8.48-6.17,12.79-15.62,18.44-12.66,7.58-17.27,16-19.25,27.23,3.45-6.87,9.91-13.14,27.86-17.29C298.47,31.54,306.57,24.29,305.12,10.21Z"/><path class="cls-17" d="M278.2,8.33c-2.64,13.83-25.37,16.25-30.29,34.05-3.77-19.11-21.3-19.87-21.54-33.11,3.18,7.8,10.84,5.79,15.89,12.12-.85-6.16-4.64-11.9-12.39-15.08,7.67-1.08,15.63,1.83,19.12,9.56,2.55-4.18,2.81-8.45.67-13.87a15.2,15.2,0,0,1,5.65,16.56C262.58,11.29,273.22,15.33,278.2,8.33Z"/><path class="cls-2" d="M155.52,198.09A32.84,32.84,0,0,0,167,175.34c1.08,10.23,3.2,18.13,8.21,24,0,0-6.33-3.1-8.61-9.15C163.6,195.4,155.52,198.09,155.52,198.09Z"/><path class="cls-2" d="M141.52,249c1.22-6,6.31-11.18,12.92-13.73A21.14,21.14,0,0,0,156.6,255a21.47,21.47,0,0,1,5.78-18,18.19,18.19,0,0,0,1.08,13.87c-.94-8.48,6.17-12.79,15.62-18.45,12.66-7.57,17.27-16,19.25-27.22-3.46,6.86-9.91,13.14-27.86,17.29C148.17,227.64,140.07,234.9,141.52,249Z"/><path class="cls-18" d="M259.16,136.87c29.44,4,46.23,20.79,49.15,36.55-3.92-9.25-13-15.23-23.6-18.63,10.62,14,7.19,31.86,21.12,41.69-10.37-11-7.22-24.46-14.91-36.73,12.26,6.9,14.12,16.68,17,27.15,4.39,15.85,11.55,20.09,17.23,22.18-11.7.45-28.67-4.53-36.79-20.1-8.61-16.51-1.45-34.41-22.48-43.77,9.6,8,14.73,19.51,8.7,34.42,2.25-21.93-20.63-25.51-24.31-40.46-.63,11.53,7.18,21.23,14.55,25.91-10.29-3.37-19.22-9-23.42-21.83-6.93,21.4,5.31,38.46,12.9,38.46,2.62,0,4.53-1.67,4.53-4.17,0-6.44-11.64-6.44-14.59-18.85,5.32,10.82,25.55,8.87,25.55,20.76,0,9.74-13.64,14-22.36,8,6.39,8.34,21.26,8.62,25.55-1.42.66,4.31-1.31,10.76-7.45,13.13-7,2.7-13.49-2.48-13.49-2.48,7.64,11,20.94,3.67,34.07,3.9,10.87.2,18.11,5.82,21.29,11.18a15.32,15.32,0,0,0-7.63-2,21.14,21.14,0,0,1,9,21.47c-1.3-6.25-8.57-10.68-22.35-11.63-15.56-1.08-23.81-3.57-29.1-9.31,11.2,5,28.93-1.91,41,6-7.45-8.54-23.93-6.09-35.71-8C242,205.05,229.33,170.09,231,154.74c-5.66,23.42,9.46,36.2,12.79,49.14,3.63,14.13-3.37,23.82-10,28.8,10.28-15.4-7.42-24.63-4.62-44.36-5.22,19.19,4.44,24.66,4.44,34.6,0,9.76-8.58,13-10.29,25.55C221.61,235.91,213,232.68,213,222.92c0-9.94,9.66-15.41,4.43-34.6,2.81,19.73-14.89,29-4.61,44.36-6.58-5-13.58-14.67-9.95-28.8,3.33-12.94,18.44-25.72,12.79-49.14,1.62,15.35-11,50.31-31.71,53.63-11.78,1.9-28.26-.55-35.71,8,12-8,29.78-1.08,41-6-5.29,5.74-13.54,8.23-29.09,9.31-13.79,1-21.06,5.38-22.36,11.63a21.13,21.13,0,0,1,9-21.47,15.32,15.32,0,0,0-7.63,2c3.18-5.36,10.42-11,21.29-11.18,13.13-.23,26.42,7.11,34.07-3.9,0,0-6.5,5.18-13.49,2.48-6.14-2.37-8.11-8.82-7.45-13.13,4.29,10,19.16,9.76,25.55,1.42-8.72,6.06-22.36,1.76-22.36-8,0-11.89,20.23-9.94,25.55-20.76-2.95,12.41-14.59,12.41-14.59,18.85,0,2.5,1.91,4.17,4.53,4.17,7.59,0,19.83-17.06,12.9-38.46-4.2,12.84-13.13,18.46-23.42,21.83,7.37-4.68,15.18-14.38,14.55-25.91-3.68,15-26.56,18.53-24.31,40.46-6-14.91-.91-26.37,8.7-34.42-21,9.36-13.87,27.26-22.49,43.77-8.12,15.57-25.08,20.55-36.78,20.1,5.68-2.09,12.84-6.33,17.23-22.18,2.89-10.47,4.76-20.25,17-27.15-7.69,12.27-4.54,25.69-14.9,36.73,13.92-9.83,10.49-27.68,21.11-41.69-10.62,3.4-19.68,9.38-23.6,18.63,2.92-15.76,19.71-32.53,49.15-36.55C157.15,135.58,151.31,152.42,136,153c-9.68.38-18.13-8.39-28-13.68,12.11,3.07,31.11,11.33,41.16-2.13,0,0-6.19,5.26-18.27,3.73-12.27-1.56-23.46-9.4-54.12-11.36,30.66-2,41.85-9.79,54.12-11.35C143,116.7,149.15,122,149.15,122c-10.05-13.46-29.05-5.2-41.16-2.13,9.9-5.28,18.35-14.06,28-13.67,15.29.6,21.13,17.45,51.46,16.16-29.44-4-46.23-20.79-49.15-36.55,3.92,9.25,13,15.22,23.6,18.63-10.62-14-7.19-31.87-21.11-41.7,10.36,11,7.21,24.46,14.9,36.73-12.26-6.9-14.13-16.67-17-27.15-4.39-15.84-11.55-20.09-17.23-22.18,11.7-.45,28.66,4.53,36.78,20.11,8.62,16.51,1.45,34.41,22.49,43.77-9.61-8.06-14.73-19.52-8.7-34.42-2.25,21.92,20.63,25.5,24.31,40.45.63-11.53-7.18-21.22-14.55-25.9,10.29,3.37,19.22,9,23.42,21.82,6.93-21.39-5.31-38.46-12.9-38.46-2.62,0-4.53,1.68-4.53,4.17,0,6.45,11.64,6.45,14.59,18.85-5.32-10.82-25.55-8.87-25.55-20.75,0-9.74,13.64-14,22.36-8-6.39-8.34-21.26-8.62-25.55,1.42C173,68.86,175,62.41,181.09,60c7-2.7,13.49,2.48,13.49,2.48-7.65-11-20.94-3.67-34.07-3.9-10.87-.19-18.11-5.82-21.29-11.18a15.11,15.11,0,0,0,7.63,2,21.1,21.1,0,0,1-9-21.46c1.3,6.24,8.57,10.67,22.36,11.63,15.55,1.07,23.8,3.57,29.09,9.3-11.2-5-28.93,1.91-41-6,7.45,8.54,23.93,6.09,35.71,8,20.71,3.32,33.33,38.29,31.71,53.63,5.65-23.42-9.46-36.2-12.79-49.13-3.63-14.14,3.37-23.83,9.95-28.8-10.28,15.39,7.42,24.62,4.61,44.35C222.69,51.67,213,46.2,213,36.26c0-9.75,8.58-13,10.29-25.55,1.71,12.56,10.29,15.8,10.29,25.55,0,9.94-9.66,15.41-4.44,34.6-2.8-19.73,14.9-29,4.62-44.35,6.58,5,13.58,14.66,10,28.8C240.41,68.24,225.29,81,231,104.44c-1.62-15.34,11-50.31,31.71-53.63,11.78-1.89,28.26.56,35.71-8-12.05,7.94-29.78,1.07-41,6,5.29-5.73,13.54-8.23,29.1-9.3,13.78-1,21.05-5.39,22.35-11.63a21.12,21.12,0,0,1-9,21.46,15.11,15.11,0,0,0,7.63-2c-3.18,5.36-10.42,11-21.29,11.18-13.13.23-26.43-7.11-34.07,3.9,0,0,6.5-5.18,13.49-2.48,6.14,2.37,8.11,8.82,7.45,13.13-4.29-10-19.16-9.76-25.55-1.42,8.72-6,22.36-1.75,22.36,8,0,11.88-20.23,9.93-25.55,20.75,3-12.4,14.59-12.4,14.59-18.85,0-2.49-1.91-4.17-4.53-4.17-7.59,0-19.83,17.07-12.9,38.46,4.2-12.84,13.13-18.45,23.42-21.82-7.37,4.68-15.18,14.37-14.55,25.9,3.68-15,26.56-18.53,24.31-40.45,6,14.9.9,26.36-8.7,34.42,21-9.36,13.87-27.26,22.48-43.77,8.12-15.58,25.09-20.56,36.79-20.11-5.68,2.09-12.84,6.34-17.23,22.18-2.9,10.48-4.76,20.25-17,27.15,7.69-12.27,4.54-25.69,14.91-36.73-13.93,9.83-10.5,27.68-21.12,41.7,10.62-3.41,19.68-9.38,23.6-18.63-2.92,15.76-19.71,32.53-49.15,36.55,30.33,1.29,36.17-15.56,51.45-16.16,9.69-.39,18.14,8.39,28,13.67-12.11-3.07-31.11-11.33-41.16,2.13,0,0,6.19-5.26,18.27-3.72,12.27,1.56,23.46,9.39,54.12,11.35-30.66,2-41.85,9.8-54.12,11.36-12.08,1.53-18.27-3.73-18.27-3.73,10.05,13.46,29.05,5.2,41.16,2.13-9.9,5.29-18.35,14.06-28,13.68C295.33,152.42,289.49,135.58,259.16,136.87Zm33.36-7.28c4.61,1.24,8.63,3.77,14.48,3.77,7.12,0,11.08-2.75,16.75-3.77-5.67-1-9.63-3.77-16.75-3.77C301.15,125.82,297.13,128.35,292.52,129.59ZM220.3,39.28c0,5.12,3,8.4,3,12.12,0-3.72,3-7,3-12.12,0-4.57-2.25-6.65-3-11.43C222.55,32.63,220.3,34.71,220.3,39.28Zm-66.18,90.31c-4.61-1.24-8.63-3.77-14.49-3.77-7.11,0-11.07,2.76-16.74,3.77,5.67,1,9.63,3.77,16.74,3.77C145.49,133.36,149.51,130.83,154.12,129.59Zm72.22,90.31c0-5.12-3-8.4-3-12.12,0,3.72-3,7-3,12.12,0,4.57,2.25,6.66,3,11.44C224.09,226.56,226.34,224.47,226.34,219.9Zm42-90.31c-9.94,0-24.09-5-35-3a24.76,24.76,0,0,0,7.46-6.75c-4.41.44-6.76.8-10.12,2.31,2.66-6,3.2-9.4,3.73-15.44a31.47,31.47,0,0,0-6.57,10.65c.71-12.42-4.26-15.25-4.61-31.76-.36,16.51-5.32,19.34-4.61,31.76a31.47,31.47,0,0,0-6.57-10.65c.53,6,1.07,9.42,3.73,15.44-3.36-1.51-5.71-1.87-10.12-2.31a24.76,24.76,0,0,0,7.46,6.75c-10.87-2-25,3-35,3,9.94,0,24.09,5,35,3a24.73,24.73,0,0,0-7.46,6.74c4.41-.43,6.76-.8,10.12-2.31-2.66,6-3.2,9.4-3.73,15.44a31.37,31.37,0,0,0,6.57-10.65c-.71,12.42,4.25,15.25,4.61,31.76.35-16.51,5.32-19.34,4.61-31.76a31.37,31.37,0,0,0,6.57,10.65c-.53-6-1.07-9.42-3.73-15.44,3.36,1.51,5.71,1.88,10.12,2.31a24.73,24.73,0,0,0-7.46-6.74C244.3,134.57,258.45,129.59,268.39,129.59Z"/><path class="cls-2" d="M291.12,198.09a32.84,32.84,0,0,1-11.44-22.75c-1.08,10.23-3.2,18.13-8.21,24,0,0,6.32-3.1,8.61-9.15C283,195.4,291.12,198.09,291.12,198.09Z"/><path class="cls-2" d="M305.12,249c-1.22-6-6.31-11.18-12.92-13.73A21.14,21.14,0,0,1,290,255a21.42,21.42,0,0,0-5.79-18,18.14,18.14,0,0,1-1.07,13.87c.94-8.48-6.17-12.79-15.62-18.45-12.66-7.57-17.27-16-19.25-27.22,3.45,6.86,9.91,13.14,27.86,17.29C298.47,227.64,306.57,234.9,305.12,249Z"/><path class="cls-19" d="M304.85,156.76c4.69,4.6,6.91,12.19,7.27,21.72.47,12.53,5.41,17.66,13.33,18.53-11.8-4.58-4.45-17.11-7.95-25.85,6.44,4.79,4.39,20.68,17.64,21.41-9.78-3.2-2.84-16.68-9.29-24.5,7.81.11,11.4-6.13,21.54-3.23-4.72-3.64-10-5.93-18.85-5.93,6.26-3.85,9-8.62,11.31-15.34C329.72,154.16,315,158.24,304.85,156.76Z"/><path class="cls-20" d="M141.79,156.76c-4.69,4.6-6.91,12.19-7.27,21.72-.47,12.53-5.41,17.66-13.33,18.53,11.8-4.58,4.45-17.11,7.94-25.85-6.44,4.79-4.38,20.68-17.63,21.41,9.78-3.2,2.83-16.68,9.29-24.5-7.81.11-11.4-6.13-21.54-3.23,4.71-3.64,10-5.93,18.85-5.93-6.26-3.85-9-8.62-11.31-15.34C116.92,154.16,131.64,158.24,141.79,156.76Z"/><path class="cls-21" d="M168.44,8.33c2.64,13.83,25.37,16.25,30.29,34.05C202.5,23.27,220,22.51,220.27,9.27c-3.18,7.8-10.84,5.79-15.89,12.12.85-6.16,4.64-11.9,12.39-15.08-7.68-1.08-15.63,1.83-19.12,9.56C195.09,11.69,194.84,7.42,197,2a15.2,15.2,0,0,0-5.65,16.56C184.06,11.29,173.42,15.33,168.44,8.33Z"/><path class="cls-6" d="M241.54,129.59c-4.26-.66-9.39-3.2-14.13-1.22,2.32-1.8,1.14-3.51,2.53-5.19-1.92,1.38-3.51.5-5,2.74,1.54-5.31-.53-8.14-1.63-14.12-1.1,6-3.17,8.81-1.63,14.12-1.48-2.24-3.07-1.36-5-2.74,1.39,1.68.21,3.39,2.53,5.19-4.74-2-9.87.56-14.13,1.22,4.26.67,9.39,3.2,14.13,1.22-2.32,1.81-1.14,3.52-2.53,5.2,1.92-1.39,3.51-.5,5-2.74-1.54,5.3.53,8.14,1.63,14.11,1.1-6,3.17-8.81,1.63-14.11,1.48,2.24,3.07,1.35,5,2.74-1.39-1.68-.21-3.39-2.53-5.2C232.15,132.79,237.28,130.26,241.54,129.59Z"/><path class="cls-22" d="M54.88,121.26C52.24,107.43,29.51,105,24.59,87.21c-3.77,19.11-21.3,19.87-21.54,33.11,3.18-7.8,10.84-5.78,15.89-12.11-.85,6.15-4.64,11.89-12.39,15.07,7.67,1.08,15.63-1.83,19.12-9.56,2.55,4.18,2.81,8.45.67,13.87A15.19,15.19,0,0,0,32,111C39.26,118.3,49.9,114.26,54.88,121.26Z"/><path class="cls-23" d="M35.84,7.27C65.28,11.3,82.07,28.06,85,43.83c-3.92-9.26-13-15.23-23.6-18.64,10.61,14,7.19,31.87,21.11,41.7-10.36-11-7.21-24.46-14.9-36.73,12.26,6.9,14.12,16.67,17,27.15C89,73.15,96.17,77.4,101.84,79.49c-11.69.45-28.66-4.53-36.78-20.1C56.45,42.88,63.61,25,42.58,15.61c9.6,8.06,14.73,19.52,8.7,34.43C53.53,28.11,30.65,24.53,27,9.58c-.63,11.53,7.18,21.22,14.55,25.91-10.29-3.38-19.22-9-23.42-21.83C11.17,35.05,23.41,52.12,31,52.12c2.62,0,4.53-1.67,4.53-4.17,0-6.45-11.64-6.45-14.59-18.85C26.26,39.92,46.49,38,46.49,49.86c0,9.74-13.64,14-22.36,8,6.39,8.34,21.26,8.62,25.55-1.42.66,4.31-1.31,10.76-7.45,13.13-7,2.7-13.49-2.48-13.49-2.48,7.64,11,20.94,3.67,34.07,3.9,10.87.19,18.11,5.82,21.29,11.18a15.11,15.11,0,0,0-7.63-2,21.14,21.14,0,0,1,9,21.47C84.22,95.42,77,91,63.17,90c-15.56-1.07-23.81-3.57-29.1-9.3,11.2,5,28.93-1.91,41,6-7.45-8.54-23.93-6.09-35.71-8C18.63,75.46,6,40.5,7.63,25.15,2,48.57,17.09,61.35,20.42,74.28c3.63,14.14-3.37,23.83-10,28.81,10.28-15.4-7.42-24.63-4.62-44.36-5.22,19.19,4.44,24.66,4.44,34.6,0,9.76-8.58,13-10.29,25.55-1.71-12.56-10.29-15.79-10.29-25.55,0-9.94,9.66-15.41,4.43-34.6,2.81,19.73-14.89,29-4.61,44.36-6.58-5-13.58-14.67-10-28.81C-17.09,61.35-2,48.57-7.63,25.15-6,40.5-18.63,75.46-39.34,78.78c-11.78,1.89-28.26-.56-35.71,8,12-7.94,29.78-1.07,41-6C-39.36,86.46-47.61,89-63.16,90c-13.79,1-21.06,5.39-22.36,11.64a21.12,21.12,0,0,1,9-21.47,15.11,15.11,0,0,0-7.63,2c3.18-5.36,10.42-11,21.29-11.18,13.13-.23,26.42,7.11,34.07-3.9,0,0-6.5,5.18-13.49,2.48-6.14-2.37-8.11-8.82-7.45-13.13,4.29,10,19.16,9.76,25.55,1.42-8.72,6-22.36,1.76-22.36-8,0-11.89,20.23-9.94,25.55-20.76C-23.89,41.5-35.53,41.5-35.53,48c0,2.5,1.91,4.17,4.53,4.17,7.59,0,19.83-17.07,12.9-38.46C-22.3,26.5-31.23,32.11-41.52,35.49-34.15,30.8-26.34,21.11-27,9.58c-3.68,15-26.56,18.53-24.31,40.46-6-14.91-.91-26.37,8.7-34.43-21,9.37-13.87,27.27-22.49,43.78C-73.19,75-90.15,79.94-101.85,79.49-96.17,77.4-89,73.15-84.62,57.31c2.89-10.48,4.76-20.25,17-27.15-7.69,12.27-4.54,25.69-14.9,36.73C-68.58,57.06-72,39.21-61.39,25.19-72,28.6-81.07,34.57-85,43.83-82.08,28.06-65.28,11.3-35.84,7.27-66.17,6-72,22.83-87.3,23.44c-9.68.38-18.13-8.4-28-13.68,12.11,3.07,31.11,11.33,41.16-2.13,0,0-6.19,5.26-18.27,3.73C-104.71,9.8-115.9,2-146.56,0c30.66-2,41.85-9.8,54.12-11.36,12.08-1.53,18.27,3.73,18.27,3.73-10-13.46-29-5.2-41.16-2.13,9.9-5.29,18.35-14.06,28-13.68C-72-22.83-66.17-6-35.84-7.28-65.28-11.3-82.08-28.07-85-43.82c3.92,9.24,13,15.22,23.6,18.62C-72-39.21-68.58-57.06-82.5-66.89c10.36,11,7.21,24.46,14.9,36.73-12.26-6.9-14.13-16.67-17-27.15C-89-73.16-96.17-77.4-101.85-79.49c11.7-.45,28.66,4.53,36.78,20.1C-56.45-42.87-63.62-25-42.58-15.62c-9.61-8.05-14.73-19.51-8.7-34.42C-53.53-28.11-30.65-24.53-27-9.58c.63-11.53-7.18-21.22-14.55-25.91,10.29,3.37,19.22,9,23.42,21.83C-11.17-35-23.41-52.12-31-52.12c-2.62,0-4.53,1.67-4.53,4.17,0,6.45,11.64,6.45,14.59,18.85C-26.26-39.92-46.49-38-46.49-49.86c0-9.74,13.64-14,22.36-8-6.39-8.34-21.26-8.62-25.55,1.42-.66-4.31,1.31-10.76,7.45-13.13,7-2.7,13.49,2.48,13.49,2.48-7.65-11-20.94-3.67-34.07-3.9-10.87-.19-18.11-5.82-21.29-11.18a15.11,15.11,0,0,0,7.63,2,21.13,21.13,0,0,1-9-21.47C-84.22-95.42-76.95-91-63.16-90c15.55,1.07,23.8,3.57,29.09,9.3-11.2-5-28.93,1.91-41-6,7.45,8.54,23.93,6.09,35.71,8C-18.63-75.46-6-40.5-7.63-25.15-2-48.57-17.09-61.35-20.42-74.29c-3.63-14.13,3.37-23.82,10-28.8C-20.75-87.69-3-78.46-5.86-58.73c5.23-19.19-4.43-24.66-4.43-34.6,0-9.76,8.58-13,10.29-25.55,1.71,12.56,10.29,15.79,10.29,25.55,0,9.94-9.66,15.41-4.44,34.6-2.8-19.73,14.9-29,4.62-44.36,6.58,5,13.58,14.67,10,28.8C17.09-61.35,2-48.57,7.63-25.15,6-40.5,18.63-75.46,39.34-78.78c11.78-1.89,28.26.56,35.71-8-12,7.94-29.78,1.07-41,6C39.36-86.46,47.61-89,63.17-90c13.78-1,21-5.39,22.35-11.64a21.14,21.14,0,0,1-9,21.47,15.11,15.11,0,0,0,7.63-2c-3.18,5.36-10.42,11-21.29,11.18-13.13.23-26.43-7.11-34.07,3.9,0,0,6.5-5.18,13.49-2.48,6.14,2.37,8.11,8.82,7.45,13.13-4.29-10-19.16-9.76-25.55-1.42,8.72-6,22.36-1.76,22.36,8,0,11.89-20.23,9.94-25.55,20.76,2.95-12.4,14.59-12.4,14.59-18.85,0-2.5-1.91-4.17-4.53-4.17-7.59,0-19.83,17.07-12.9,38.46C22.3-26.5,31.23-32.12,41.52-35.49,34.15-30.8,26.34-21.11,27-9.58,30.65-24.53,53.53-28.11,51.28-50c6,14.91.9,26.37-8.7,34.42,21-9.36,13.87-27.25,22.48-43.77C73.18-75,90.15-79.94,101.84-79.49,96.17-77.4,89-73.16,84.62-57.31c-2.9,10.48-4.76,20.25-17,27.15,7.69-12.27,4.54-25.69,14.9-36.73C68.58-57.06,72-39.21,61.39-25.2,72-28.6,81.07-34.58,85-43.82,82.07-28.07,65.28-11.3,35.84-7.28,66.17-6,72-22.83,87.29-23.44c9.69-.38,18.14,8.39,28,13.68-12.11-3.07-31.11-11.33-41.16,2.13,0,0,6.19-5.26,18.27-3.73C104.71-9.8,115.9-2,146.56,0,115.9,2,104.71,9.8,92.44,11.36,80.36,12.89,74.17,7.63,74.17,7.63c10,13.46,29.05,5.2,41.16,2.13C105.43,15,97,23.82,87.29,23.44,72,22.83,66.17,6,35.84,7.27ZM69.2,0c4.61,1.24,8.63,3.77,14.48,3.77C90.8,3.77,94.76,1,100.42,0,94.76-1,90.8-3.77,83.68-3.77,77.83-3.77,73.81-1.24,69.2,0ZM-3-90.31c0,5.12,3,8.4,3,12.12,0-3.72,3-7,3-12.12C3-94.88.77-97,0-101.75-.77-97-3-94.88-3-90.31ZM-69.2,0c-4.61-1.24-8.63-3.77-14.49-3.77C-90.8-3.77-94.76-1-100.43,0c5.67,1,9.63,3.77,16.74,3.77C-77.83,3.77-73.81,1.24-69.2,0ZM3,90.31c0-5.12-3-8.4-3-12.12,0,3.72-3,7-3,12.12C-3,94.88-.77,97,0,101.74.77,97,3,94.88,3,90.31ZM45.07,0C35.13,0,21-5,10.11-3a24.73,24.73,0,0,0,7.46-6.74c-4.41.43-6.76.8-10.12,2.31,2.66-6,3.2-9.4,3.73-15.44A31.47,31.47,0,0,0,4.61-12.24C5.32-24.66.35-27.49,0-44-.36-27.49-5.32-24.66-4.61-12.24a31.47,31.47,0,0,0-6.57-10.65c.53,6,1.07,9.42,3.73,15.44C-10.81-9-13.16-9.33-17.57-9.76A24.73,24.73,0,0,0-10.11-3c-10.87-2-25,3-35,3,9.94,0,24.09,5,35,3a24.6,24.6,0,0,0-7.46,6.74c4.41-.43,6.76-.8,10.12-2.31-2.66,6-3.2,9.4-3.73,15.44A31.47,31.47,0,0,0-4.61,12.24C-5.32,24.66-.36,27.49,0,44,.35,27.49,5.32,24.66,4.61,12.24a31.47,31.47,0,0,0,6.57,10.65c-.53-6-1.07-9.42-3.73-15.44C10.81,9,13.16,9.33,17.57,9.76A24.6,24.6,0,0,0,10.11,3C21,5,35.13,0,45.07,0Z"/><path class="cls-2" d="M67.8,68.5A32.84,32.84,0,0,1,56.36,45.75c-1.08,10.23-3.2,18.13-8.21,24,0,0,6.32-3.1,8.61-9.16C59.72,65.8,67.8,68.5,67.8,68.5Z"/><path class="cls-2" d="M81.8,119.38c-1.22-6-6.31-11.18-12.92-13.73a21.14,21.14,0,0,1-2.16,19.79,21.45,21.45,0,0,0-5.79-18,18.11,18.11,0,0,1-1.07,13.86c.94-8.48-6.17-12.78-15.62-18.44C31.58,95.24,27,86.78,25,75.6c3.45,6.86,9.91,13.13,27.86,17.29C75.15,98.05,83.25,105.3,81.8,119.38Z"/><path class="cls-24" d="M81.53,27.17c4.69,4.6,6.91,12.19,7.27,21.72.47,12.53,5.41,17.66,13.33,18.53-11.8-4.58-4.45-17.12-7.95-25.85,6.44,4.79,4.39,20.68,17.64,21.41-9.78-3.2-2.84-16.68-9.29-24.5,7.81.1,11.4-6.13,21.54-3.23-4.72-3.64-10-5.93-18.85-5.93,6.26-3.86,9-8.62,11.31-15.34C106.4,24.57,91.68,28.64,81.53,27.17Z"/><path class="cls-6" d="M18.22,0C14-.66,8.83-3.2,4.09-1.22,6.41-3,5.23-4.73,6.62-6.42,4.7-5,3.11-5.91,1.63-3.67,3.17-9,1.1-11.81,0-17.79-1.1-11.81-3.17-9-1.63-3.67-3.11-5.91-4.7-5-6.62-6.42c1.39,1.69.21,3.4,2.53,5.2C-8.83-3.2-14-.66-18.22,0-14,.67-8.83,3.2-4.09,1.22-6.41,3-5.23,4.73-6.62,6.42c1.92-1.39,3.51-.5,5-2.75C-3.17,9-1.1,11.81,0,17.79,1.1,11.81,3.17,9,1.63,3.67,3.11,5.92,4.7,5,6.62,6.42,5.23,4.73,6.41,3,4.09,1.22,8.83,3.2,14,.67,18.22,0Z"/></pattern></defs><path class="cls-25" d="M139.23,974v-1.44H262.92l2.9,44.65H264l-8.36-35q-9.87-.85-22.18-.86-22.42,0-36.12,3.88-2.33,23.25-2.33,53.11,0,18.66.93,30.29,18.36,1.31,23.35,1.3a204.68,204.68,0,0,0,27.06-1.87l5.22-24.4h2v61.15h-2l-5.46-25.84a160,160,0,0,0-22.29-1.44,205.7,205.7,0,0,0-27.88,1.73,257.77,257.77,0,0,0-.93,32.59q.24,20.39.58,33.66t1.28,22.9q14.17,5.31,37.17,5.31a162,162,0,0,0,22.3-1.29l9.29-34.6h1.62l-2.55,44.94H139.57v-1.44l27.76-5q.93-5.9,1.69-18t1.33-27.06q.59-15,.81-25.12t.24-17.73v-36.18q0-6.88-.35-19.6T170,1006.3q-.69-13.63-2-27.28Zm35.3,4.16v199h8v-199Z" transform="translate(-51.68 -122.94)"/><path class="cls-25" d="M275.92,972.56h97.21V974l-37.05,4.73q6.27,12.06,11.68,21.54t11.84,19.45q6.45,10,14.11,21t15.8,22.69q9.06-11.49,21-28.21t21.2-31.37a289.27,289.27,0,0,0,14.51-25.13L410.76,974v-1.44h77.7V974l-27.29,4.45q-7.32,8.32-16.67,21.17t-19.8,28.43q-10.45,15.57-18.12,27.85t-10.34,17.73q7,11.49,18.24,29.07t20.32,31q9.06,13.43,17.31,24.69a219.22,219.22,0,0,0,14.52,18.16l21.6,4.74v1.44H393.8v-1.44l36.94-5a397,397,0,0,0-25-43.93q-15.51-24-30.14-43.65-11.85,15.08-23.11,31.3t-20.56,31.08q-9.28,14.87-14.86,25.2l35.42,5v1.44H275.34v-1.44l26.71-5q16.62-20.1,35.95-48.89t31.07-49q-11.26-18.52-23.06-36.83t-24-36a317.84,317.84,0,0,0-20.21-26.85L275.92,974ZM308,977.44l131.58,199.7H449L317.73,977.44Z" transform="translate(-51.68 -122.94)"/><path class="cls-25" d="M492.76,972h80.6q19.39,0,30.31,4.38a43.5,43.5,0,0,1,18,13.13,51.9,51.9,0,0,1,9.12,18,76.6,76.6,0,0,1,3.19,22,69.77,69.77,0,0,1-7.14,31.37A58.61,58.61,0,0,1,606.75,1084a51.83,51.83,0,0,1-29.56,8.68,101.55,101.55,0,0,1-23.81-2.58v-1.44a67.49,67.49,0,0,0,7.44.29,53.36,53.36,0,0,0,24.1-5.52,42.12,42.12,0,0,0,17.82-17.23q6.74-11.7,6.74-29.36a76.61,76.61,0,0,0-10.34-38.62q-10.33-18.09-30.54-18.09a59.53,59.53,0,0,0-17.31,2.3q-.81,5.74-1.74,28.57t-.93,32v68.48q0,4.31.52,19.45t1.11,26.2A183.66,183.66,0,0,0,552,1175.7l29,5.31-1.28,1.73h-87l.46-2,28.11-5q1.27-12.06,2-25.55t1.22-32.52q.53-19,.52-28.35v-34.46q0-18.22-.92-40.84t-2.33-35.25l-28.8-5Zm35.42,5.45v199.41h8.13V977.44Zm46.57-2h-4.18v1.44a38.18,38.18,0,0,1,22.94,9.26,52,52,0,0,1,14.81,21.75,81.26,81.26,0,0,1,5,28.71q0,17.52-6,29t-14.4,16.65a41,41,0,0,1-16.61,6.18v1.72h2.09q6.51,0,16.55-4.38t18.41-16.87q8.37-12.48,8.36-34.6a86,86,0,0,0-4.53-27.27A49.33,49.33,0,0,0,602,984.41Q591.36,975.43,574.75,975.43Z" transform="translate(-51.68 -122.94)"/><path class="cls-25" d="M641.65,974v-1.44h87.8V974l-28.8,5q-1.51,13.93-2.56,37.54t-1,41.28v61.73q0,22.26,1.86,46.37a111.73,111.73,0,0,0,41,7.75,114.21,114.21,0,0,0,18.82-1.43,75.35,75.35,0,0,0,12.08-2.73l12.07-39.19h1.75l-5.46,52.4H641.42v-1.44l27.76-5q1.38-6.9,2.38-24.55t1.56-36.47q.58-18.79.59-26.56v-36.17q0-11.92-.47-27.35t-1.1-27.06q-.64-11.64-1.69-19.1Zm35.19,3.87v199.27H685V977.87Z" transform="translate(-51.68 -122.94)"/><path class="cls-25" d="M889.73,969.55q24.74,0,42.85,10.19a89,89,0,0,1,29.68,26.7,118.78,118.78,0,0,1,17,35.1,127.87,127.87,0,0,1,5.4,35.68,123.68,123.68,0,0,1-6.09,38.33,114.36,114.36,0,0,1-18,34.38,89.4,89.4,0,0,1-29.5,24.91,82.4,82.4,0,0,1-39.2,9.33q-31.25,0-53-16.72A100.57,100.57,0,0,1,806.8,1126q-10.34-24.69-10.34-48.24a125.69,125.69,0,0,1,6.57-40.34,111.47,111.47,0,0,1,19-35A90.38,90.38,0,0,1,852,978.3,83,83,0,0,1,889.73,969.55Zm-4.77,5.6v-1.44a66.57,66.57,0,0,0-31.7,8.61,91.37,91.37,0,0,0-27.18,23,110.94,110.94,0,0,0-18.29,33,115.78,115.78,0,0,0-6.56,38.91,114.19,114.19,0,0,0,11,48.59q11,23.63,30.37,38.41t42.63,15.65v-1.58a71.49,71.49,0,0,1-39.84-17.37,95.81,95.81,0,0,1-26.31-37,120.39,120.39,0,0,1-9-45.8,133.49,133.49,0,0,1,5.23-37.47,107.87,107.87,0,0,1,15.1-32,82.35,82.35,0,0,1,23.86-22.83A72.18,72.18,0,0,1,885,975.15Zm5.46,4.45q-18,0-33.27,11.62t-24.27,33.6q-9,22-9,51.82,0,32.17,9.82,54.34t25.2,32.88q15.39,10.7,31.77,10.7a53.51,53.51,0,0,0,25.32-6.32,66.43,66.43,0,0,0,21.37-18.45q9.39-12.13,14.69-29.86a138.31,138.31,0,0,0,5.28-39.55q0-29.87-5.58-47.67a93.21,93.21,0,0,0-16.37-31.15,56.69,56.69,0,0,0-45-22Zm5.93-5.89v1.44A64.81,64.81,0,0,1,919,981.68q11.37,5.52,21.31,17.23t16,31.51q6,19.82,6,47.66a167.4,167.4,0,0,1-3.54,34.89,109.37,109.37,0,0,1-11.38,30.72,71,71,0,0,1-20.5,23.25q-12.66,9.19-30.31,11.35v1.58a68.46,68.46,0,0,0,28.22-7.9,74.7,74.7,0,0,0,23.75-20.17q10.4-13.14,16.44-32.09t6-42.21q0-25.39-6.27-44.86t-17.07-32.37a75.51,75.51,0,0,0-24-19.53A64.94,64.94,0,0,0,896.35,973.71Z" transform="translate(-51.68 -122.94)"/><path class="cls-25" d="M1027.7,1097.18v-44.37q0-17.08-.93-39.12T1024.45,979l-27.87-5v-1.44h76.3q21.72,0,34.67,10.7t17.94,24.4q5,13.71,5,23.62a56.82,56.82,0,0,1-5,24.33,45.61,45.61,0,0,1-13.06,17q-8.09,6.33-16.44,7.47v.57a38.41,38.41,0,0,1,13.13,10.34,113,113,0,0,1,9.29,14.14q5.22,9.12,13.82,24.91t13.82,24.69a131,131,0,0,0,9.64,14.5q9.75,12.06,19.28,12.06v1.44h-20.21q-17,0-26.94-12.64a91.75,91.75,0,0,1-7.85-11.55q-3.88-6.67-12.3-21.9t-14.17-25.12a123.39,123.39,0,0,0-9.12-14.07c-3.33-4.11-6.37-6.87-9.12-8.25s-6.79-2.09-12.13-2.09a49.94,49.94,0,0,0-11.39,1q-.69,7.75-.7,17.23v26.56q0,16.78,2.91,44.36l28.92,5v1.44H996.58v-1.44l27.29-5q1.74-14.51,2.79-40.78T1027.7,1097.18Zm2.91-119v199H1039v-199Zm20.2,53.41v23.54q0,12.5.7,23.26a75.6,75.6,0,0,0,13.12.86q14.86,0,24-6.32a34.92,34.92,0,0,0,13-16.43,65.45,65.45,0,0,0,.11-44.15,56.06,56.06,0,0,0-9.75-17,44.63,44.63,0,0,0-13.36-10.77,31.39,31.39,0,0,0-14.46-3.81,38.61,38.61,0,0,0-10.57,1.15q-1,8.33-1.91,23.83T1050.81,1031.57Zm11.62-55.85v1.43q15.91.44,26.65,9.55A52.8,52.8,0,0,1,1104.7,1009a75,75,0,0,1,4.88,26.12q0,28.72-20.21,41.49l.7.58q11.85-3.73,19.57-15.94t7.72-29.14a65.08,65.08,0,0,0-4.18-23.9,51.68,51.68,0,0,0-11.32-17.88,49.89,49.89,0,0,0-16-10.91,45.45,45.45,0,0,0-17.77-3.73Zm30.2,127,25.2,45.23q9.06,15.93,16.14,22.75a23.81,23.81,0,0,0,16.72,7v-1.43q-9.17-3.3-23.57-29.15l-20.21-35.89q-6.51-11.76-12.2-17.8a27.75,27.75,0,0,0-13.93-8l-.47,1.15Q1086.82,1091.72,1092.63,1102.77Z" transform="translate(-51.68 -122.94)"/><path class="cls-25" d="M1177.52,974v-1.44h123.69l2.9,44.65h-1.85l-8.37-35q-9.87-.85-22.18-.86-22.41,0-36.12,3.88-2.33,23.25-2.32,53.11,0,18.66.93,30.29,18.35,1.31,23.34,1.3a204.57,204.57,0,0,0,27.06-1.87l5.23-24.4h2v61.15h-2l-5.46-25.84a160.3,160.3,0,0,0-22.3-1.44,205.55,205.55,0,0,0-27.87,1.73,255.92,255.92,0,0,0-.93,32.59q.23,20.39.58,33.66t1.28,22.9q14.16,5.31,37.16,5.31a161.92,161.92,0,0,0,22.3-1.29l9.29-34.6h1.63l-2.55,44.94H1177.87v-1.44l27.76-5q.91-5.9,1.68-18t1.34-27.06q.57-15,.81-25.12t.23-17.73v-36.18q0-6.88-.35-19.6t-1-26.34q-.71-13.63-2-27.28Zm35.31,4.16v199h8v-199Z" transform="translate(-51.68 -122.94)"/><line class="cls-25" x1="736.77" y1="657.09" x2="700.12" y2="697.36"/><line class="cls-26" x1="736.77" y1="657.09" x2="700.12" y2="697.36"/><path class="cls-26" d="M778.8,779.11l-12.37,13.6L746.7,814.39l-4.55,5c-1.11,1.22-2.83,3-2.19,4.94s3.16,2.45,4.75,2.58a21.58,21.58,0,0,0,8.9-1.29c2.7-1,5.86-2.23,7.84-4.4l12.37-13.59,19.73-21.69,4.55-5c1.11-1.22,2.83-3,2.19-4.94s-3.16-2.46-4.75-2.58a21.58,21.58,0,0,0-8.9,1.28c-2.7,1-5.86,2.23-7.84,4.4Z" transform="translate(-51.68 -122.94)"/><line class="cls-26" x1="866.53" y1="559.95" x2="821.76" y2="585.8"/><line class="cls-27" x1="866.53" y1="559.95" x2="821.76" y2="585.8"/><path class="cls-26" d="M911.39,676.18l-15.16,8.75-24.05,13.88L866.62,702a7.1,7.1,0,0,0-3,5.63,8.92,8.92,0,0,0,2.75,6.12,12,12,0,0,0,7,3.29,11.39,11.39,0,0,0,6.87-1.6l15.16-8.75,24.05-13.89,5.56-3.21a7.06,7.06,0,0,0,3-5.62,8.8,8.8,0,0,0-2.75-6.12,11.93,11.93,0,0,0-7-3.29,11.34,11.34,0,0,0-6.88,1.6Z" transform="translate(-51.68 -122.94)"/><line class="cls-26" x1="801.8" y1="606.61" x2="760.63" y2="635.92"/><line class="cls-27" x1="801.8" y1="606.61" x2="760.63" y2="635.92"/><path class="cls-26" d="M844.49,721.37l-13.89,9.89L808.44,747l-5.12,3.64a2.21,2.21,0,0,0-1.51,1.78,3,3,0,0,0,0,2.62c.63,2.38,2.82,4.92,4.59,6.47a24.31,24.31,0,0,0,8.23,5.05l2.59.7a7.2,7.2,0,0,0,4.11-.25l13.89-9.89,22.15-15.78,5.12-3.65A2.17,2.17,0,0,0,864,736a3,3,0,0,0,0-2.62c-.63-2.38-2.81-4.92-4.59-6.48a24.09,24.09,0,0,0-8.22-5l-2.6-.71a7.16,7.16,0,0,0-4.1.26Z" transform="translate(-51.68 -122.94)"/><line class="cls-26" x1="894.89" y1="539.02" x2="929.11" y2="514.66"/><line class="cls-27" x1="894.89" y1="539.02" x2="929.11" y2="514.66"/><path class="cls-26" d="M956,659.7l29.93-21.31,4.28-3c1.13-.8-1.4-.8-1.27-.8a27,27,0,0,0-5.93,1c-3.87,1-8.26,2-11.56,4.33l-29.93,21.31-4.29,3.06c-1.12.8,1.4.79,1.28.79a27,27,0,0,0,5.93-1c3.87-1,8.25-2,11.56-4.33Z" transform="translate(-51.68 -122.94)"/><line class="cls-26" x1="679.41" y1="724.39" x2="657.68" y2="757.21"/><line class="cls-26" x1="679.41" y1="724.39" x2="657.68" y2="757.21"/><path class="cls-26" d="M724.28,837.22l-19,28.77-2.67,4a10.06,10.06,0,0,0-1.2,6.93,21.24,21.24,0,0,0,3.52,9c1.5,2.1,3.46,4.6,6,5.41,1.8.57,4.05.73,5.26-1.11l19.05-28.77,2.68-4a10,10,0,0,0,1.19-6.92,21.09,21.09,0,0,0-3.51-9c-1.51-2.1-3.47-4.6-6-5.41-1.79-.56-4-.72-5.26,1.11Z" transform="translate(-51.68 -122.94)"/><line class="cls-26" x1="993.32" y1="466.4" x2="955.59" y2="504.13"/><line class="cls-27" x1="993.32" y1="466.4" x2="955.59" y2="504.13"/><path class="cls-26" d="M1035.06,588.21l-12.71,12.71L1002,621.29,997.33,626c-.45.44,3.29,1.5,2.79,1.36a58,58,0,0,0,14,1.6c1-.06,2.29,0,3-.71l12.71-12.71,20.36-20.37,4.67-4.66c.44-.44-3.3-1.5-2.8-1.36a44.62,44.62,0,0,0-7-1.23,45.35,45.35,0,0,0-7.08-.37c-1,.06-2.28,0-3,.71Z" transform="translate(-51.68 -122.94)"/><line class="cls-25" x1="645.41" y1="787.55" x2="617.18" y2="830.18"/><line class="cls-26" x1="645.41" y1="787.55" x2="617.18" y2="830.18"/><path class="cls-26" d="M686.54,903.78,677,918.22l-15.16,22.91-3.49,5.27c-.67,1,1.69,3.26,2,3.62a38.51,38.51,0,0,0,7,5.43,37.28,37.28,0,0,0,7.89,4.06c.9.3,3.41,1.41,4.13.32L689,945.39l15.16-22.91,3.5-5.27c.66-1-1.7-3.27-2-3.62a38.85,38.85,0,0,0-7-5.43,37.76,37.76,0,0,0-7.89-4.06c-.91-.31-3.42-1.42-4.14-.32Z" transform="translate(-51.68 -122.94)"/><line class="cls-26" x1="1054.76" y1="430.36" x2="1015.63" y2="450.78"/><line class="cls-27" x1="1054.76" y1="430.36" x2="1015.63" y2="450.78"/><path class="cls-26" d="M1099.34,546.25l-13.24,6.92-21,11-4.88,2.55c-1,.5.49,3.24.64,3.51a24.39,24.39,0,0,0,4.41,5.59,23.78,23.78,0,0,0,5.62,4.38c1.09.55,2.31,1.25,3.52.62l13.24-6.92,21-11,4.88-2.55c1-.5-.49-3.24-.64-3.51a24.17,24.17,0,0,0-4.42-5.59,23.53,23.53,0,0,0-5.61-4.38c-1.1-.55-2.31-1.25-3.52-.62Z" transform="translate(-51.68 -122.94)"/><path d="M724.05,1369a328.5,328.5,0,0,0,40.28-12.06c12.95-4.76,25.5-10.27,37.93-16,24.81-11.68,49.08-24.72,74.2-37.48l9.46-4.76c3.18-1.58,6.35-3.19,9.56-4.71s6.45-3.07,9.71-4.53,6.57-2.89,9.88-4.29a330.52,330.52,0,0,1,41.5-14.18c3.59-1,7.23-1.84,10.84-2.75s7.32-1.66,11-2.49,7.43-1.44,11.14-2.18l11.27-1.91,11.41-1.6,11.55-1.24c2-.13,3.89-.27,5.84-.46s3.87-.51,5.83-.72a82,82,0,0,1,11.82-.62,285.26,285.26,0,0,1,46.24,5,407.37,407.37,0,0,1,43.63,11c14.1,4.38,27.82,9.25,41.2,14.5s26.41,10.87,39.22,16.59,25.39,11.63,37.91,17.3l9.37,4.25,9.36,4.18,18.64,8.32c12.42,5.51,24.84,10.92,37.59,16.09,1.58.7,3.19,1.25,4.8,1.88s3.21,1.29,4.83,1.94l9.81,3.7c1.65.65,3.31,1.17,5,1.78l5,1.86c3.39,1.15,6.83,2.3,10.32,3.67v1c-3.51,1.18-7.09,2.21-10.71,3.13-3.61.76-7.27,1.49-11,2.07-1.83.25-3.67.44-5.52.67s-3.72.44-5.56.54c-3.7.23-7.43.44-11.14.48a227.35,227.35,0,0,1-44.09-4.06c-3.58-.71-7.2-1.39-10.75-2.21s-7.1-1.65-10.61-2.56-7-1.87-10.47-2.88l-10.36-3.06q-20.58-6.36-40.4-13.55c-13.22-4.75-26.22-9.6-39.08-14.3s-25.58-9.24-38.29-13.12a321.58,321.58,0,0,0-38-9.5,196.2,196.2,0,0,0-37.4-3.39c-.77,0-1.54,0-2.31,0s-1.53,0-2.3,0c-1.53,0-3.07-.14-4.61-.26a64.46,64.46,0,0,0-9.32.26q-4.68.53-9.35,1.16c-3.13.55-6.26,1.09-9.38,1.7s-6.25,1.42-9.37,2.18-6.24,1.69-9.35,2.59-6.24,1.9-9.36,2.91-6.24,2.07-9.36,3.17c-12.49,4.33-25.07,9-38,13.42-3.23,1.13-6.47,2.24-9.74,3.28s-6.57,2.17-9.87,3.21-6.64,2.09-10,3.12l-10,3.13c-26.88,8.28-54.65,16.42-83.46,21.36a291.4,291.4,0,0,1-43.66,4.43,180.17,180.17,0,0,1-43.4-3.94Z" transform="translate(-51.68 -122.94)"/><path d="M735.36,1370a180.17,180.17,0,0,1-43.4,3.94,291.4,291.4,0,0,1-43.66-4.43c-28.81-4.94-56.58-13.08-83.46-21.36L554.79,1345c-3.33-1-6.67-2-10-3.12s-6.6-2.09-9.87-3.21-6.51-2.15-9.74-3.28c-12.93-4.38-25.51-9.09-38-13.42-3.12-1.1-6.24-2.11-9.36-3.17s-6.23-1.93-9.36-2.91-6.23-1.73-9.35-2.59-6.24-1.47-9.37-2.18-6.25-1.15-9.38-1.7-6.23-.81-9.35-1.16a64.46,64.46,0,0,0-9.32-.26c-1.54.12-3.08.23-4.61.26-.77,0-1.54,0-2.3,0s-1.54,0-2.31,0a196.2,196.2,0,0,0-37.4,3.39,321.58,321.58,0,0,0-38,9.5c-12.71,3.88-25.44,8.43-38.29,13.12s-25.86,9.55-39.08,14.3-26.68,9.31-40.4,13.55L209,1365.18c-3.47,1-7,1.94-10.47,2.88s-7.07,1.75-10.61,2.56-7.17,1.5-10.75,2.21a227.35,227.35,0,0,1-44.09,4.06c-3.71,0-7.44-.25-11.14-.48-1.84-.1-3.71-.33-5.56-.54s-3.69-.42-5.52-.67c-3.68-.58-7.34-1.31-11-2.07-3.62-.92-7.2-2-10.71-3.13v-1c3.49-1.37,6.93-2.52,10.32-3.67l5-1.86c1.68-.61,3.34-1.13,5-1.78l9.81-3.7c1.62-.65,3.23-1.32,4.83-1.94s3.22-1.18,4.8-1.88c12.75-5.17,25.17-10.58,37.59-16.09l18.64-8.32,9.36-4.18,9.37-4.25c12.52-5.67,25.08-11.6,37.91-17.3s25.84-11.34,39.22-16.59,27.1-10.12,41.2-14.5a407.37,407.37,0,0,1,43.63-11,285.26,285.26,0,0,1,46.24-5,82,82,0,0,1,11.82.62c2,.21,3.89.52,5.83.72s3.89.33,5.84.46L447.2,1260l11.41,1.6,11.27,1.91c3.71.74,7.44,1.41,11.14,2.18s7.34,1.62,11,2.49,7.25,1.79,10.84,2.75a330.52,330.52,0,0,1,41.5,14.18c3.31,1.4,6.61,2.81,9.88,4.29s6.49,3,9.71,4.53,6.38,3.13,9.56,4.71l9.46,4.76c25.12,12.76,49.39,25.8,74.2,37.48,12.43,5.78,25,11.29,37.93,16A328.5,328.5,0,0,0,735.36,1369Z" transform="translate(-51.68 -122.94)"/><path d="M704.33,1398.2c7.16-1.7,14.28-3.24,21.36-4.68,3.55-.8,7.08-1.6,10.61-2.35s7.06-1.5,10.57-2.24,7-1.6,10.55-2.35l10.51-2.27,10.5-2.37,10.49-2.27c28-6.22,55.86-12.36,84.07-18,7.08-1.36,14.14-2.81,21.23-4.09,3.55-.64,7.11-1.27,10.68-1.82s7.13-1.12,10.71-1.62q10.77-1.45,21.6-2.46c7.25-.63,14.51-1.11,21.79-1.52l21.92-.86q11-.22,22-.58c7.37-.08,14.72-.32,22.09-.52,1.84,0,3.69,0,5.54-.11s3.69-.24,5.53-.42a79.26,79.26,0,0,1,11.09-.51l22.16.6,22.05,1,21.93,1.38,21.83,1.69,21.7,2c7.2.73,14.41,1.52,21.59,2.34s14.32,1.76,21.46,2.73c3.56.46,7.11,1,10.67,1.49s7.11,1,10.66,1.57l10.61,1.62,10.6,1.72c7,1.11,14.08,2.35,21.12,3.54s14,2.37,21,3.67,14,2.58,21,4,14,2.86,21,4.49,14,3.2,21,5,14,3.53,21.09,5.56,14.16,4,21.32,6.57v1c-7.17,2.41-14.4,4.29-21.68,6q-10.87,2.25-21.87,3.93c-7.29,1-14.61,1.81-21.94,2.46s-14.6.93-21.91,1.19-14.56.21-21.84.14-14.48-.45-21.72-.67-14.42-.67-21.63-1.11l-10.76-.67-10.75-.78c-3.58-.25-7.14-.55-10.71-.84s-7.13-.57-10.69-.9c-7.11-.61-14.19-1.26-21.29-1.94s-14.13-1.3-21.18-2l-21.11-1.9-21-1.65c-7-.47-14-.81-21-1.22s-13.94-.5-20.91-.7-13.89,0-20.83,0c-6.93.32-13.89-.94-20.83-.54-3.47.09-7,.27-10.44.46s-7,.38-10.44.61c-7,.53-14,1.26-20.92,2l-21,2.43c-7,.85-14,1.72-21,2.39-3.51.39-7,.72-10.57,1.06s-7.06.63-10.6.84-7.1.53-10.66.72-7.12.38-10.69.52c-7.15.33-14.33.49-21.5.75-28.74.84-57.8,1.2-87-.13l-11-.58-10.93-.71c-3.65-.26-7.3-.64-10.94-1s-7.28-.69-10.92-1.07-7.28-.9-10.91-1.39-7.26-1-10.87-1.52q-10.87-1.85-21.63-4.09Z" transform="translate(-51.68 -122.94)"/><path d="M52.91,1398.2c7.16-1.7,14.27-3.24,21.36-4.68,3.54-.8,7.08-1.6,10.61-2.35s7.05-1.5,10.57-2.24,7-1.6,10.54-2.35l10.52-2.27,10.5-2.37,10.48-2.27c27.95-6.22,55.86-12.36,84.08-18,7.07-1.36,14.13-2.81,21.22-4.09,3.56-.64,7.12-1.27,10.68-1.82s7.13-1.12,10.72-1.62q10.77-1.45,21.6-2.46c7.25-.63,14.51-1.11,21.78-1.52l21.92-.86c7.35-.15,14.67-.35,22-.58,7.37-.08,14.71-.32,22.08-.52,1.85,0,3.7,0,5.54-.11s3.69-.24,5.54-.42a79.12,79.12,0,0,1,11.09-.51l22.16.6,22,1,21.94,1.38,21.82,1.69,21.71,2q10.8,1.1,21.59,2.34c7.15.87,14.31,1.76,21.45,2.73,3.56.46,7.12,1,10.67,1.49s7.12,1,10.66,1.57l10.61,1.62,10.61,1.72c7,1.11,14.08,2.35,21.12,3.54s14,2.37,21,3.67,14,2.58,21,4,14,2.86,21,4.49,14,3.2,21,5,14,3.53,21.1,5.56,14.15,4,21.32,6.57v1c-7.18,2.41-14.41,4.29-21.68,6q-10.89,2.25-21.87,3.93c-7.3,1-14.61,1.81-21.94,2.46s-14.61.93-21.92,1.19-14.56.21-21.83.14-14.48-.45-21.73-.67-14.42-.67-21.62-1.11l-10.76-.67-10.75-.78c-3.58-.25-7.14-.55-10.71-.84s-7.13-.57-10.69-.9q-10.66-.92-21.29-1.94c-7.07-.66-14.13-1.3-21.19-2l-21.11-1.9-21-1.65c-7-.47-14-.81-21-1.22s-13.94-.5-20.91-.7-13.89,0-20.84,0c-6.93.32-13.88-.94-20.82-.54-3.48.09-7,.27-10.45.46s-7,.38-10.44.61c-7,.53-13.95,1.26-20.91,2l-20.95,2.43c-7,.85-14,1.72-21,2.39-3.52.39-7.05.72-10.57,1.06s-7.06.63-10.6.84-7.1.53-10.66.72-7.12.38-10.69.52c-7.15.33-14.34.49-21.5.75-28.75.84-57.8,1.2-87-.13l-10.94-.58-10.93-.71c-3.65-.26-7.3-.64-11-1s-7.28-.69-10.91-1.07-7.28-.9-10.91-1.39-7.26-1-10.88-1.52q-10.86-1.85-21.62-4.09Z" transform="translate(-51.68 -122.94)"/><path class="cls-28" d="M823.47,1282.13" transform="translate(-51.68 -122.94)"/><path class="cls-28" d="M946.38,1038.88" transform="translate(-51.68 -122.94)"/><polygon points="6.09 1271.1 26.09 1252.22 87.55 567.43 71.38 543.61 6.09 1271.1"/><path d="M62,1398.29,76.5,1384.6c3.07-2.89,6.65-5.25,7.29-9.63.35-2.47.45-5,.67-7.5l4-44.43,6.72-74.92,8.59-95.72,9.58-106.7,9.72-108.35L132,838.2l7.24-80.64,4.69-52.32,1.12-12.5c.48-5.37-3-9-6-13.32l-10.79-15.9c-3.46-5.09-10.65-2.94-11.18,3L115.31,686l-4.75,52.93-7,78.29L95,912.73l-9.39,104.62L76.09,1123l-8.83,98.48-7.47,83.22-5.37,59.84c-.85,9.4-2.16,18.89-2.54,28.33,0,.4-.08.8-.11,1.2-.69,7.69,11.31,7.65,12,0l1.74-19.44,4.75-52.93,7-78.29,8.57-95.51,9.39-104.63,9.48-105.62,8.84-98.48L121,755.92l5.37-59.83c.84-9.3,2.58-19,2.55-28.34,0-.39.07-.81.11-1.2l-11.19,3,10.27,15.13c1.58,2.33,3.26,6.18,5.43,8,1.62,1.37-.39-2.09-.36-2.15-.87,1.49-.47,5.27-.62,7l-3.67,40.87L122.67,808l-8.06,89.76-9,100.72-9.34,104-8.81,98.21-7.52,83.74-5.44,60.63c-.86,9.54-2.33,19.26-2.59,28.84,0,.42-.07.83-.11,1.24l1.76-4.24-20,18.88C47.9,1395.11,56.39,1403.59,62,1398.29Z" transform="translate(-51.68 -122.94)"/><polygon points="1335.29 1268.81 1315.29 1249.92 1253.83 565.13 1270.01 541.31 1335.29 1268.81"/><path d="M1391.21,1387.5l-20-18.88,1.76,4.24-1.78-19.82-4.82-53.7-7.09-78.93-8.57-95.49L1341.48,1022l-9.22-102.69L1323.89,826l-6.76-75.33L1312.76,702l-1-11.63a6.67,6.67,0,0,0-.2-2.15c.19.3-2,3.78-.25,2,2.19-2.24,3.84-5.66,5.59-8.24l10-14.73-11.18-3,1.75,19.45,4.75,52.93,7,78.28,8.57,95.52,9.39,104.63,9.48,105.61,8.84,98.48,7.47,83.22,5.37,59.84c.85,9.44,1.6,18.9,2.54,28.33,0,.4.07.8.11,1.21.68,7.63,12.69,7.7,12,0l-1.75-19.45-4.75-52.93-7-78.28-8.57-95.52-9.39-104.63L1352,935.32l-8.84-98.48-7.47-83.22-5.37-59.83c-.85-9.44-1.61-18.9-2.54-28.33,0-.4-.07-.81-.11-1.21-.53-6-7.72-8.13-11.18-3l-11,16.28c-2.08,3.06-5.77,6.83-5.93,10.73a59.81,59.81,0,0,0,.66,7.3l4,44.1,6.7,74.69,8.58,95.57,9.57,106.65,9.72,108.38,8.91,99.27,7.26,80.86,4.72,52.62,1.14,12.68c.07.78.09,1.58.21,2.36.7,4.47,4.46,6.93,7.61,9.9l14.17,13.38C1388.34,1401.29,1396.84,1392.82,1391.21,1387.5Z" transform="translate(-51.68 -122.94)"/><path d="M726.37,818.84V717.25c0-7.72-12-7.74-12,0V818.84c0,7.72,12,7.74,12,0Z" transform="translate(-51.68 -122.94)"/><path d="M730.05,1277.58v-67.87c0-7.72-12-7.74-12,0v67.87c0,7.72,12,7.73,12,0Z" transform="translate(-51.68 -122.94)"/><path d="M726,692.72V624.85c0-7.72-12-7.74-12,0v67.87c0,7.72,12,7.73,12,0Z" transform="translate(-51.68 -122.94)"/><path d="M730.37,1398.32V1296.73c0-7.72-12-7.74-12,0v101.59c0,7.72,12,7.74,12,0Z" transform="translate(-51.68 -122.94)"/><path class="cls-26" d="M1126.63,122.94c-67.53,0-122.28,60.34-122.28,134.77s122.28,285.9,122.28,285.9,122.27-211.47,122.27-285.9S1194.16,122.94,1126.63,122.94Zm0,221.2a76.28,76.28,0,1,1,76.28-76.28A76.29,76.29,0,0,1,1126.63,344.14Z" transform="translate(-51.68 -122.94)"/></svg>