<svg id="圖層_1" data-name="圖層 1" xmlns="http://www.w3.org/2000/svg" xmlns:xlink="http://www.w3.org/1999/xlink" viewBox="0 0 184.17 190.98"><defs><style>.cls-1,.cls-25{fill:none;}.cls-2{fill:#199630;}.cls-3{fill:url(#linear-gradient);}.cls-4{fill:url(#radial-gradient);}.cls-5{fill:url(#linear-gradient-2);}.cls-6{fill:#fcc800;}.cls-7{fill:url(#linear-gradient-3);}.cls-8{fill:url(#linear-gradient-4);}.cls-9{fill:url(#radial-gradient-2);}.cls-10{fill:url(#linear-gradient-5);}.cls-11{fill:url(#radial-gradient-3);}.cls-12{fill:url(#linear-gradient-6);}.cls-13{fill:url(#linear-gradient-7);}.cls-14{fill:url(#linear-gradient-8);}.cls-15{fill:url(#linear-gradient-9);}.cls-16{fill:url(#linear-gradient-10);}.cls-17{fill:url(#linear-gradient-11);}.cls-18{fill:url(#radial-gradient-4);}.cls-19{fill:url(#linear-gradient-12);}.cls-20{fill:url(#linear-gradient-13);}.cls-21{fill:url(#linear-gradient-14);}.cls-22{fill:url(#linear-gradient-15);}.cls-23{fill:url(#radial-gradient-5);}.cls-24{fill:url(#linear-gradient-16);}.cls-25{stroke:#000;stroke-miterlimit:10;}.cls-26{fill:#888098;}.cls-27{fill:url(#葉子);}</style><linearGradient id="linear-gradient" x1="-39038.45" y1="-53021.07" x2="-39061.74" y2="-53013.14" gradientTransform="matrix(1, 0, 0, -1, 39406.56, -52792.32)" gradientUnits="userSpaceOnUse"><stop offset="0.23" stop-color="#f6ab00"/><stop offset="0.76" stop-color="#fcc800"/></linearGradient><radialGradient id="radial-gradient" cx="-38959.92" cy="-53051.51" r="133.44" gradientTransform="matrix(1, 0, 0, -1, 39406.56, -52792.32)" gradientUnits="userSpaceOnUse"><stop offset="0.35" stop-color="#56aa2d"/><stop offset="0.76" stop-color="#7fbe26"/></radialGradient><linearGradient id="linear-gradient-2" x1="55120.19" y1="-52965.25" x2="55120.19" y2="-52937.15" gradientTransform="translate(55537.87 -52792.32) rotate(180)" xlink:href="#linear-gradient"/><linearGradient id="linear-gradient-3" x1="55459.34" y1="-53021.07" x2="55436.05" y2="-53013.14" gradientTransform="translate(55537.87 -52792.32) rotate(180)" xlink:href="#linear-gradient"/><linearGradient id="linear-gradient-4" x1="-39377.59" y1="-52965.25" x2="-39377.59" y2="-52937.15" xlink:href="#linear-gradient"/><radialGradient id="radial-gradient-2" cx="-39406.56" cy="-53051.51" r="133.44" xlink:href="#radial-gradient"/><linearGradient id="linear-gradient-5" x1="55056.19" y1="37148.94" x2="55056.19" y2="37177.05" gradientTransform="matrix(-1, 0, 0, 1, 55473.87, -37062.69)" xlink:href="#linear-gradient"/><radialGradient id="radial-gradient-3" cx="-38959.92" cy="-52792.32" r="133.44" xlink:href="#radial-gradient"/><linearGradient id="linear-gradient-6" x1="-39038.45" y1="37107.66" x2="-39061.74" y2="37115.6" gradientTransform="translate(39406.56 -37077.23)" xlink:href="#linear-gradient"/><linearGradient id="linear-gradient-7" x1="55279.51" y1="37278.53" x2="55279.51" y2="37306.64" gradientTransform="matrix(-1, 0, 0, 1, 55473.87, -37062.69)" xlink:href="#linear-gradient"/><linearGradient id="linear-gradient-8" x1="-39090.27" y1="37278.53" x2="-39090.27" y2="37306.64" gradientTransform="translate(39342.56 -37062.69)" xlink:href="#linear-gradient"/><linearGradient id="linear-gradient-9" x1="55236.02" y1="-52891.48" x2="55212.73" y2="-52883.54" gradientTransform="translate(55537.87 -52792.32) rotate(180)" xlink:href="#linear-gradient"/><linearGradient id="linear-gradient-10" x1="-39261.77" y1="-52891.48" x2="-39285.06" y2="-52883.54" xlink:href="#linear-gradient"/><linearGradient id="linear-gradient-11" x1="-39154.27" y1="-52835.66" x2="-39154.27" y2="-52807.55" xlink:href="#linear-gradient"/><radialGradient id="radial-gradient-4" cx="-39183.24" cy="-52921.91" r="133.44" xlink:href="#radial-gradient"/><linearGradient id="linear-gradient-12" x1="55236.02" y1="37237.25" x2="55212.73" y2="37245.19" gradientTransform="matrix(-1, 0, 0, 1, 55537.87, -37077.23)" xlink:href="#linear-gradient"/><linearGradient id="linear-gradient-13" x1="-39261.77" y1="37237.25" x2="-39285.06" y2="37245.19" gradientTransform="translate(39406.56 -37077.23)" xlink:href="#linear-gradient"/><linearGradient id="linear-gradient-14" x1="55343.51" y1="-52835.66" x2="55343.51" y2="-52807.55" gradientTransform="translate(55537.87 -52792.32) rotate(180)" xlink:href="#linear-gradient"/><linearGradient id="linear-gradient-15" x1="-39313.59" y1="37148.94" x2="-39313.59" y2="37177.05" gradientTransform="translate(39342.56 -37062.69)" xlink:href="#linear-gradient"/><radialGradient id="radial-gradient-5" cx="-39406.56" cy="-52792.32" r="133.44" xlink:href="#radial-gradient"/><linearGradient id="linear-gradient-16" x1="55459.34" y1="37107.66" x2="55436.05" y2="37115.6" gradientTransform="matrix(-1, 0, 0, 1, 55537.87, -37077.23)" xlink:href="#linear-gradient"/><pattern id="葉子" data-name="葉子" width="446.64" height="259.18" patternTransform="translate(-181.11 -64.4) rotate(-90) scale(0.7)" patternUnits="userSpaceOnUse" viewBox="0 0 446.64 259.18"><rect class="cls-1" width="446.64" height="259.18"/><path class="cls-2" d="M378.84,190.69a32.84,32.84,0,0,1,11.44,22.75c1.08-10.23,3.2-18.13,8.21-24,0,0-6.32,3.09-8.61,9.15C386.92,193.38,378.84,190.69,378.84,190.69Z"/><path class="cls-2" d="M364.84,139.81c1.22,6,6.31,11.17,12.92,13.73a21.14,21.14,0,0,1,2.16-19.79,21.48,21.48,0,0,0,5.78,18,18.19,18.19,0,0,1,1.08-13.87c-.94,8.48,6.17,12.79,15.62,18.44,12.66,7.58,17.27,16,19.25,27.23-3.46-6.87-9.91-13.14-27.86-17.29C371.49,161.14,363.39,153.88,364.84,139.81Z"/><path class="cls-3" d="M365.11,232c-4.69-4.59-6.91-12.18-7.27-21.72-.47-12.52-5.41-17.65-13.33-18.52,11.8,4.57,4.45,17.11,7.95,25.84-6.45-4.78-4.39-20.68-17.64-21.4,9.78,3.19,2.84,16.67,9.29,24.5-7.81-.11-11.4,6.12-21.54,3.23,4.72,3.63,10,5.92,18.85,5.92-6.26,3.86-9,8.63-11.31,15.35C340.24,234.61,355,230.54,365.11,232Z"/><path class="cls-4" d="M482.48,266.46c29.44,4,46.23,20.79,49.15,36.55-3.92-9.25-13-15.22-23.6-18.63,10.62,14,7.19,31.87,21.12,41.7-10.37-11-7.22-24.47-14.91-36.73,12.26,6.89,14.12,16.67,17,27.15,4.39,15.84,11.55,20.08,17.23,22.17-11.7.45-28.66-4.53-36.79-20.1-8.61-16.51-1.45-34.41-22.48-43.77,9.61,8.05,14.73,19.52,8.7,34.42,2.25-21.92-20.63-25.51-24.31-40.45-.63,11.53,7.18,21.22,14.55,25.9-10.29-3.37-19.22-9-23.42-21.82-6.93,21.39,5.31,38.45,12.9,38.45,2.62,0,4.53-1.67,4.53-4.16,0-6.45-11.64-6.45-14.59-18.86,5.32,10.83,25.55,8.88,25.55,20.76,0,9.74-13.64,14-22.36,8,6.39,8.34,21.26,8.62,25.55-1.42.66,4.3-1.31,10.75-7.45,13.13-7,2.7-13.49-2.49-13.49-2.49,7.64,11,20.94,3.67,34.07,3.91,10.87.19,18.11,5.82,21.29,11.17a15.32,15.32,0,0,0-7.63-1.95,21.13,21.13,0,0,1,9,21.47c-1.3-6.25-8.57-10.68-22.35-11.63-15.56-1.08-23.81-3.57-29.1-9.3,11.2,4.95,28.93-1.91,41,6-7.45-8.54-23.93-6.09-35.71-8-20.71-3.33-33.33-38.29-31.71-53.64-5.66,23.43,9.46,36.21,12.79,49.14,3.63,14.13-3.37,23.82-9.95,28.8,10.28-15.4-7.42-24.63-4.61-44.36-5.23,19.19,4.43,24.67,4.43,34.6,0,9.76-8.58,13-10.29,25.55-1.71-12.55-10.29-15.79-10.29-25.55,0-9.93,9.66-15.41,4.43-34.6,2.81,19.73-14.89,29-4.61,44.36-6.58-5-13.58-14.67-9.95-28.8,3.33-12.93,18.45-25.71,12.79-49.14,1.62,15.35-11,50.31-31.71,53.64-11.78,1.89-28.26-.56-35.71,8,12.05-7.94,29.78-1.08,41-6-5.29,5.73-13.54,8.22-29.09,9.3-13.79.95-21.06,5.38-22.36,11.63a21.13,21.13,0,0,1,9.05-21.47,15.32,15.32,0,0,0-7.63,1.95c3.18-5.35,10.42-11,21.29-11.17,13.13-.24,26.42,7.11,34.07-3.91,0,0-6.5,5.19-13.49,2.49-6.14-2.38-8.11-8.83-7.45-13.13,4.29,10,19.16,9.76,25.55,1.42-8.72,6.05-22.36,1.75-22.36-8,0-11.88,20.23-9.93,25.55-20.76-2.95,12.41-14.59,12.41-14.59,18.86,0,2.49,1.91,4.16,4.53,4.16,7.59,0,19.83-17.06,12.9-38.45-4.2,12.83-13.13,18.45-23.42,21.82,7.37-4.68,15.18-14.37,14.55-25.9-3.68,14.94-26.56,18.53-24.31,40.45-6-14.9-.91-26.37,8.7-34.42-21,9.36-13.87,27.26-22.48,43.77-8.13,15.57-25.09,20.55-36.79,20.1,5.68-2.09,12.84-6.33,17.23-22.17,2.89-10.48,4.76-20.26,17-27.15-7.69,12.26-4.54,25.69-14.9,36.73,13.92-9.83,10.49-27.69,21.11-41.7-10.62,3.41-19.68,9.38-23.6,18.63,2.92-15.76,19.71-32.53,49.15-36.55-30.33-1.29-36.17,15.55-51.46,16.16-9.68.39-18.13-8.39-28-13.68,12.11,3.08,31.11,11.33,41.16-2.13,0,0-6.19,5.27-18.27,3.73-12.27-1.56-23.46-9.4-54.12-11.35,30.66-2,41.85-9.8,54.12-11.36,12.08-1.54,18.27,3.72,18.27,3.72-10.05-13.45-29.05-5.19-41.16-2.12,9.9-5.29,18.35-14.06,28-13.68,15.29.61,21.13,17.45,51.46,16.16-29.44-4-46.23-20.79-49.15-36.55,3.92,9.25,13,15.22,23.6,18.63-10.62-14-7.19-31.87-21.11-41.7,10.36,11,7.21,24.47,14.9,36.73-12.26-6.89-14.13-16.67-17-27.14-4.39-15.85-11.55-20.09-17.23-22.18,11.7-.45,28.66,4.53,36.79,20.1,8.61,16.51,1.44,34.41,22.48,43.77-9.61-8.06-14.73-19.52-8.7-34.42-2.25,21.92,20.63,25.5,24.31,40.45.63-11.53-7.18-21.22-14.55-25.9,10.29,3.37,19.22,9,23.42,21.82,6.93-21.39-5.31-38.45-12.9-38.45-2.62,0-4.53,1.67-4.53,4.16,0,6.45,11.64,6.45,14.59,18.86-5.32-10.83-25.55-8.87-25.55-20.76,0-9.74,13.64-14,22.36-8-6.39-8.34-21.26-8.62-25.55,1.42-.66-4.3,1.31-10.75,7.45-13.13,7-2.7,13.49,2.49,13.49,2.49-7.65-11-20.94-3.67-34.07-3.91C373,188,365.72,182.39,362.54,177a15.32,15.32,0,0,0,7.63,2,21.13,21.13,0,0,1-9.05-21.47c1.3,6.25,8.57,10.68,22.36,11.63,15.55,1.08,23.8,3.57,29.09,9.31-11.2-5-28.93,1.9-41-6,7.45,8.54,23.93,6.09,35.71,8C428,183.73,440.63,218.69,439,234c5.66-23.42-9.46-36.2-12.79-49.13-3.63-14.13,3.37-23.83,9.95-28.8-10.28,15.4,7.42,24.63,4.61,44.36,5.23-19.19-4.43-24.67-4.43-34.6,0-9.76,8.58-13,10.29-25.55,1.71,12.55,10.29,15.79,10.29,25.55,0,9.93-9.66,15.41-4.43,34.6-2.81-19.73,14.89-29,4.61-44.36,6.58,5,13.58,14.67,9.95,28.8-3.33,12.93-18.45,25.71-12.79,49.13-1.62-15.34,11-50.3,31.71-53.63,11.78-1.89,28.26.56,35.71-8-12.05,7.94-29.78,1.08-41,6,5.29-5.74,13.54-8.23,29.1-9.31,13.78-1,21.05-5.38,22.35-11.63a21.13,21.13,0,0,1-9,21.47,15.32,15.32,0,0,0,7.63-2c-3.18,5.35-10.42,11-21.29,11.17-13.13.24-26.43-7.11-34.07,3.91,0,0,6.5-5.19,13.49-2.49,6.14,2.38,8.11,8.83,7.45,13.13-4.29-10-19.16-9.76-25.55-1.42,8.72-6.05,22.36-1.75,22.36,8,0,11.89-20.23,9.93-25.55,20.76,2.95-12.41,14.59-12.41,14.59-18.86,0-2.49-1.91-4.16-4.53-4.16-7.59,0-19.83,17.06-12.9,38.45,4.2-12.83,13.13-18.45,23.42-21.82-7.37,4.68-15.18,14.37-14.55,25.9,3.68-14.95,26.56-18.53,24.31-40.45,6,14.9.91,26.36-8.7,34.42,21-9.36,13.87-27.26,22.48-43.77,8.13-15.57,25.09-20.55,36.79-20.1-5.68,2.09-12.84,6.33-17.23,22.18-2.9,10.47-4.76,20.25-17,27.14,7.69-12.26,4.54-25.69,14.91-36.73C515.22,202.12,518.65,220,508,234c10.62-3.41,19.68-9.38,23.6-18.63-2.92,15.76-19.71,32.53-49.15,36.55,30.33,1.29,36.17-15.55,51.45-16.16,9.69-.38,18.14,8.39,28,13.68-12.11-3.07-31.11-11.33-41.16,2.12,0,0,6.19-5.26,18.27-3.72,12.27,1.56,23.46,9.4,54.12,11.36-30.66,1.95-41.85,9.79-54.12,11.35-12.08,1.54-18.27-3.73-18.27-3.73,10.05,13.46,29.05,5.21,41.16,2.13-9.9,5.29-18.35,14.07-28,13.68C518.65,282,512.81,265.17,482.48,266.46Zm33.36-7.27c4.61,1.24,8.63,3.77,14.49,3.77,7.11,0,11.07-2.76,16.74-3.77-5.67-1-9.63-3.77-16.74-3.77C524.47,255.42,520.45,257.94,515.84,259.19Zm-72.22-90.32c0,5.13,3,8.4,3,12.13,0-3.73,3-7,3-12.13,0-4.56-2.25-6.65-3-11.43C445.87,162.22,443.62,164.31,443.62,168.87Zm-66.18,90.32c-4.61-1.25-8.63-3.77-14.49-3.77-7.11,0-11.07,2.75-16.74,3.77,5.67,1,9.63,3.77,16.74,3.77C368.81,263,372.83,260.43,377.44,259.19Zm72.22,90.31c0-5.13-3-8.4-3-12.13,0,3.73-3,7-3,12.13,0,4.56,2.25,6.65,3,11.43C447.41,356.15,449.66,354.06,449.66,349.5Zm42-90.31c-9.94,0-24.09-5-35-3a24.73,24.73,0,0,0,7.46-6.74c-4.41.43-6.76.79-10.12,2.3,2.66-6,3.2-9.4,3.73-15.43a31.42,31.42,0,0,0-6.57,10.64c.71-12.42-4.25-15.24-4.61-31.76-.36,16.52-5.32,19.34-4.61,31.76a31.42,31.42,0,0,0-6.57-10.64c.53,6,1.07,9.42,3.73,15.43-3.36-1.51-5.71-1.87-10.12-2.3a24.73,24.73,0,0,0,7.46,6.74c-10.87-2-25,3-35,3,9.94,0,24.09,5,35,3a24.73,24.73,0,0,0-7.46,6.74c4.41-.43,6.76-.79,10.12-2.3-2.66,6-3.2,9.4-3.73,15.43A31.42,31.42,0,0,0,442,271.43c-.71,12.42,4.25,15.24,4.61,31.76.36-16.52,5.32-19.34,4.61-31.76a31.42,31.42,0,0,0,6.57,10.64c-.53-6-1.07-9.42-3.73-15.43,3.36,1.51,5.71,1.87,10.12,2.3a24.73,24.73,0,0,0-7.46-6.74C467.62,264.17,481.77,259.19,491.71,259.19Z"/><path class="cls-5" d="M391.76,137.92c2.64,13.83,25.37,16.26,30.29,34.06,3.77-19.12,21.29-19.87,21.54-33.12-3.18,7.8-10.84,5.79-15.89,12.12.85-6.15,4.64-11.89,12.39-15.08-7.67-1.07-15.63,1.83-19.12,9.56-2.55-4.17-2.81-8.45-.67-13.87a15.2,15.2,0,0,0-5.65,16.56C407.38,140.88,396.74,144.92,391.76,137.92Z"/><path class="cls-6" d="M464.86,259.19c-4.26-.67-9.39-3.21-14.13-1.22,2.32-1.81,1.14-3.52,2.53-5.2-1.92,1.39-3.51.5-5,2.74,1.54-5.31-.53-8.14-1.63-14.11-1.1,6-3.17,8.8-1.63,14.11-1.48-2.24-3.07-1.35-5-2.74,1.39,1.68.21,3.39,2.53,5.2-4.74-2-9.87.55-14.13,1.22,4.26.66,9.39,3.19,14.13,1.21-2.32,1.81-1.14,3.52-2.53,5.2,1.92-1.39,3.51-.5,5-2.74-1.54,5.31.53,8.14,1.63,14.12,1.1-6,3.17-8.81,1.63-14.12,1.48,2.24,3.07,1.35,5,2.74-1.39-1.68-.21-3.39-2.53-5.2C455.47,262.38,460.6,259.85,464.86,259.19Z"/><path class="cls-7" d="M81.53,232c4.69-4.59,6.91-12.18,7.27-21.72.47-12.52,5.41-17.65,13.33-18.52-11.8,4.57-4.45,17.11-7.95,25.84,6.44-4.78,4.39-20.68,17.64-21.4-9.78,3.19-2.84,16.67-9.29,24.5,7.81-.11,11.4,6.12,21.54,3.23-4.72,3.63-10,5.92-18.85,5.92,6.26,3.86,9,8.63,11.31,15.35C106.4,234.61,91.68,230.54,81.53,232Z"/><path class="cls-2" d="M67.8,190.69a32.84,32.84,0,0,0-11.44,22.75c-1.08-10.23-3.2-18.13-8.21-24,0,0,6.32,3.09,8.61,9.15C59.72,193.38,67.8,190.69,67.8,190.69Z"/><path class="cls-2" d="M81.8,139.81c-1.22,6-6.31,11.17-12.92,13.73a21.14,21.14,0,0,0-2.16-19.79,21.46,21.46,0,0,1-5.79,18,18.14,18.14,0,0,0-1.07-13.87c.94,8.48-6.17,12.79-15.62,18.44C31.58,163.94,27,172.41,25,183.59c3.45-6.87,9.91-13.14,27.86-17.29C75.15,161.14,83.25,153.88,81.8,139.81Z"/><path class="cls-8" d="M54.88,137.92C52.24,151.75,29.51,154.18,24.59,172c-3.77-19.12-21.3-19.87-21.54-33.12,3.18,7.8,10.84,5.79,15.89,12.12-.85-6.15-4.64-11.89-12.39-15.08,7.67-1.07,15.63,1.83,19.12,9.56,2.55-4.17,2.81-8.45.67-13.87A15.2,15.2,0,0,1,32,148.15C39.26,140.88,49.9,144.92,54.88,137.92Z"/><path class="cls-9" d="M35.84,266.46c29.44,4,46.23,20.79,49.15,36.55-3.92-9.25-13-15.22-23.6-18.63,10.61,14,7.19,31.87,21.11,41.7-10.36-11-7.21-24.47-14.9-36.73,12.26,6.89,14.12,16.67,17,27.15,4.39,15.84,11.55,20.08,17.22,22.17-11.69.45-28.66-4.53-36.78-20.1-8.61-16.51-1.45-34.41-22.48-43.77,9.6,8.05,14.73,19.52,8.7,34.42C53.53,287.3,30.65,283.71,27,268.77c-.63,11.53,7.18,21.22,14.55,25.9-10.29-3.37-19.22-9-23.42-21.82C11.17,294.24,23.41,311.3,31,311.3c2.62,0,4.53-1.67,4.53-4.16,0-6.45-11.64-6.45-14.59-18.86,5.32,10.83,25.55,8.88,25.55,20.76,0,9.74-13.64,14-22.36,8,6.39,8.34,21.26,8.62,25.55-1.42.66,4.3-1.31,10.75-7.45,13.13-7,2.7-13.49-2.49-13.49-2.49,7.64,11,20.94,3.67,34.07,3.91,10.87.19,18.11,5.82,21.29,11.17a15.32,15.32,0,0,0-7.63-1.95,21.14,21.14,0,0,1,9,21.47c-1.3-6.25-8.57-10.68-22.35-11.63-15.56-1.08-23.81-3.57-29.1-9.3,11.2,4.95,28.93-1.91,41,6-7.45-8.54-23.93-6.09-35.71-8C18.63,334.64,6,299.68,7.63,284.33,2,307.76,17.09,320.54,20.42,333.47c3.63,14.13-3.37,23.82-10,28.8,10.28-15.4-7.42-24.63-4.62-44.36-5.22,19.19,4.44,24.67,4.44,34.6,0,9.76-8.58,13-10.29,25.55-1.71-12.55-10.29-15.79-10.29-25.55,0-9.93,9.66-15.41,4.43-34.6,2.81,19.73-14.89,29-4.61,44.36-6.58-5-13.58-14.67-10-28.8C-17.09,320.54-2,307.76-7.63,284.33c1.62,15.35-11,50.31-31.71,53.64-11.78,1.89-28.26-.56-35.71,8,12-7.94,29.78-1.08,41-6-5.29,5.73-13.54,8.22-29.09,9.3-13.79.95-21.06,5.38-22.36,11.63a21.13,21.13,0,0,1,9-21.47,15.32,15.32,0,0,0-7.63,1.95c3.18-5.35,10.42-11,21.29-11.17,13.13-.24,26.42,7.11,34.07-3.91,0,0-6.5,5.19-13.49,2.49-6.14-2.38-8.11-8.83-7.45-13.13,4.29,10,19.16,9.76,25.55,1.42-8.72,6.05-22.36,1.75-22.36-8,0-11.88,20.23-9.93,25.55-20.76-2.95,12.41-14.59,12.41-14.59,18.86,0,2.49,1.91,4.16,4.53,4.16,7.59,0,19.83-17.06,12.9-38.45-4.2,12.83-13.13,18.45-23.42,21.82C-34.15,290-26.34,280.3-27,268.77c-3.68,14.94-26.56,18.53-24.31,40.45-6-14.9-.91-26.37,8.7-34.42-21,9.36-13.87,27.26-22.49,43.77-8.12,15.57-25.08,20.55-36.78,20.1,5.68-2.09,12.84-6.33,17.23-22.17,2.89-10.48,4.76-20.26,17-27.15-7.69,12.26-4.54,25.69-14.9,36.73,13.92-9.83,10.49-27.69,21.11-41.7C-72,287.79-81.07,293.76-85,303c2.91-15.76,19.71-32.53,49.15-36.55C-66.17,265.17-72,282-87.3,282.62c-9.68.39-18.13-8.39-28-13.68,12.11,3.08,31.11,11.33,41.16-2.13,0,0-6.19,5.27-18.27,3.73-12.27-1.56-23.46-9.4-54.12-11.35,30.66-2,41.85-9.8,54.12-11.36,12.08-1.54,18.27,3.72,18.27,3.72-10-13.45-29-5.19-41.16-2.12,9.9-5.29,18.35-14.06,28-13.68,15.29.61,21.13,17.45,51.46,16.16-29.44-4-46.24-20.79-49.15-36.55,3.92,9.25,13,15.22,23.6,18.63-10.62-14-7.19-31.87-21.11-41.7,10.36,11,7.21,24.47,14.9,36.73-12.26-6.89-14.13-16.67-17-27.14C-89,186-96.17,181.79-101.85,179.7c11.7-.45,28.66,4.53,36.78,20.1,8.62,16.51,1.45,34.41,22.49,43.77-9.61-8.06-14.73-19.52-8.7-34.42-2.25,21.92,20.63,25.5,24.31,40.45.63-11.53-7.18-21.22-14.55-25.9,10.29,3.37,19.22,9,23.42,21.82,6.93-21.39-5.31-38.45-12.9-38.45-2.62,0-4.53,1.67-4.53,4.16,0,6.45,11.64,6.45,14.59,18.86-5.32-10.83-25.55-8.87-25.55-20.76,0-9.74,13.64-14,22.36-8-6.39-8.34-21.26-8.62-25.55,1.42-.66-4.3,1.31-10.75,7.45-13.13,7-2.7,13.49,2.49,13.49,2.49-7.65-11-20.94-3.67-34.07-3.91C-73.68,188-80.92,182.39-84.1,177a15.32,15.32,0,0,0,7.63,2,21.13,21.13,0,0,1-9-21.47c1.3,6.25,8.57,10.68,22.36,11.63,15.55,1.08,23.8,3.57,29.09,9.31-11.2-5-28.93,1.9-41-6,7.45,8.54,23.93,6.09,35.71,8C-18.63,183.73-6,218.69-7.63,234c5.65-23.42-9.46-36.2-12.79-49.13-3.63-14.13,3.37-23.83,10-28.8C-20.75,171.5-3,180.73-5.86,200.46c5.23-19.19-4.43-24.67-4.43-34.6,0-9.76,8.58-13,10.29-25.55,1.71,12.55,10.29,15.79,10.29,25.55,0,9.93-9.66,15.41-4.44,34.6-2.8-19.73,14.9-29,4.62-44.36,6.58,5,13.58,14.67,10,28.8C17.09,197.83,2,210.61,7.63,234c-1.62-15.34,11-50.3,31.71-53.63,11.78-1.89,28.26.56,35.71-8-12,7.94-29.78,1.08-41,6,5.29-5.74,13.54-8.23,29.1-9.31,13.78-1,21-5.38,22.35-11.63a21.14,21.14,0,0,1-9,21.47,15.32,15.32,0,0,0,7.63-2c-3.18,5.35-10.42,11-21.29,11.17-13.13.24-26.43-7.11-34.07,3.91,0,0,6.5-5.19,13.49-2.49,6.14,2.38,8.11,8.83,7.45,13.13-4.29-10-19.16-9.76-25.55-1.42,8.72-6.05,22.36-1.75,22.36,8,0,11.89-20.23,9.93-25.55,20.76,2.95-12.41,14.59-12.41,14.59-18.86,0-2.49-1.91-4.16-4.53-4.16-7.59,0-19.83,17.06-12.9,38.45,4.2-12.83,13.13-18.45,23.42-21.82-7.37,4.68-15.18,14.37-14.55,25.9,3.68-14.95,26.56-18.53,24.31-40.45,6,14.9.9,26.36-8.7,34.42,21-9.36,13.87-27.26,22.48-43.77,8.12-15.57,25.09-20.55,36.78-20.1C96.17,181.79,89,186,84.62,201.88c-2.9,10.47-4.76,20.25-17,27.14,7.69-12.26,4.54-25.69,14.9-36.73C68.58,202.12,72,220,61.39,234,72,230.58,81.07,224.61,85,215.36c-2.92,15.76-19.71,32.53-49.15,36.55C66.17,253.2,72,236.36,87.29,235.75c9.69-.38,18.14,8.39,28,13.68-12.11-3.07-31.11-11.33-41.16,2.12,0,0,6.19-5.26,18.27-3.72,12.27,1.56,23.46,9.4,54.12,11.36-30.66,1.95-41.85,9.79-54.12,11.35-12.08,1.54-18.27-3.73-18.27-3.73,10,13.46,29.05,5.21,41.16,2.13-9.9,5.29-18.35,14.07-28,13.68C72,282,66.17,265.17,35.84,266.46Zm33.36-7.27c4.61,1.24,8.63,3.77,14.48,3.77,7.12,0,11.08-2.76,16.74-3.77-5.66-1-9.62-3.77-16.74-3.77C77.83,255.42,73.81,257.94,69.2,259.19ZM-3,168.87c0,5.13,3,8.4,3,12.13,0-3.73,3-7,3-12.13,0-4.56-2.25-6.65-3-11.43C-.77,162.22-3,164.31-3,168.87ZM-69.2,259.19c-4.61-1.25-8.63-3.77-14.49-3.77-7.11,0-11.07,2.75-16.74,3.77,5.67,1,9.63,3.77,16.74,3.77C-77.83,263-73.81,260.43-69.2,259.19ZM3,349.5c0-5.13-3-8.4-3-12.13,0,3.73-3,7-3,12.13,0,4.56,2.25,6.65,3,11.43C.77,356.15,3,354.06,3,349.5Zm42.05-90.31c-9.94,0-24.09-5-35-3a24.73,24.73,0,0,0,7.46-6.74c-4.41.43-6.76.79-10.12,2.3,2.66-6,3.2-9.4,3.73-15.43a31.42,31.42,0,0,0-6.57,10.64C5.32,234.52.35,231.7,0,215.18c-.36,16.52-5.32,19.34-4.61,31.76a31.42,31.42,0,0,0-6.57-10.64c.53,6,1.07,9.42,3.73,15.43-3.36-1.51-5.71-1.87-10.12-2.3a24.73,24.73,0,0,0,7.46,6.74c-10.87-2-25,3-35,3,9.94,0,24.09,5,35,3a24.73,24.73,0,0,0-7.46,6.74c4.41-.43,6.76-.79,10.12-2.3-2.66,6-3.2,9.4-3.73,15.43a31.42,31.42,0,0,0,6.57-10.64C-5.32,283.85-.36,286.67,0,303.19c.35-16.52,5.32-19.34,4.61-31.76a31.42,31.42,0,0,0,6.57,10.64c-.53-6-1.07-9.42-3.73-15.43,3.36,1.51,5.71,1.87,10.12,2.3a24.73,24.73,0,0,0-7.46-6.74C21,264.17,35.13,259.19,45.07,259.19Z"/><path class="cls-6" d="M18.22,259.19C14,258.52,8.83,256,4.09,258c2.32-1.81,1.14-3.52,2.53-5.2-1.92,1.39-3.51.5-5,2.74C3.17,250.2,1.1,247.37,0,241.4c-1.1,6-3.17,8.8-1.63,14.11-1.48-2.24-3.07-1.35-5-2.74,1.39,1.68.21,3.39,2.53,5.2-4.74-2-9.87.55-14.13,1.22,4.26.66,9.39,3.19,14.13,1.21-2.32,1.81-1.14,3.52-2.53,5.2,1.92-1.39,3.51-.5,5-2.74C-3.17,268.17-1.1,271,0,277c1.1-6,3.17-8.81,1.63-14.12,1.48,2.24,3.07,1.35,5,2.74-1.39-1.68-.21-3.39-2.53-5.2C8.83,262.38,14,259.85,18.22,259.19Z"/><path class="cls-10" d="M391.76,121.26c2.64-13.83,25.37-16.25,30.29-34.05,3.77,19.11,21.29,19.87,21.54,33.11-3.18-7.8-10.84-5.78-15.89-12.11.85,6.15,4.64,11.89,12.39,15.07-7.67,1.08-15.63-1.83-19.12-9.56-2.55,4.18-2.81,8.45-.67,13.87A15.19,15.19,0,0,1,414.65,111C407.38,118.3,396.74,114.26,391.76,121.26Z"/><path class="cls-2" d="M378.84,68.5a32.84,32.84,0,0,0,11.44-22.75c1.08,10.23,3.2,18.13,8.21,24,0,0-6.32-3.1-8.61-9.16C386.92,65.8,378.84,68.5,378.84,68.5Z"/><path class="cls-2" d="M364.84,119.38c1.22-6,6.31-11.18,12.92-13.73a21.14,21.14,0,0,0,2.16,19.79,21.47,21.47,0,0,1,5.78-18,18.16,18.16,0,0,0,1.08,13.86c-.94-8.48,6.17-12.78,15.62-18.44,12.66-7.58,17.27-16,19.25-27.22-3.46,6.86-9.91,13.13-27.86,17.29C371.49,98.05,363.39,105.3,364.84,119.38Z"/><path class="cls-11" d="M482.48,7.27c29.44,4,46.23,20.79,49.15,36.56-3.92-9.26-13-15.23-23.6-18.64,10.62,14,7.19,31.87,21.12,41.7-10.37-11-7.22-24.46-14.91-36.73,12.26,6.9,14.12,16.67,17,27.15,4.39,15.84,11.55,20.09,17.23,22.18-11.7.45-28.66-4.53-36.79-20.1-8.61-16.51-1.45-34.41-22.48-43.78,9.61,8.06,14.73,19.52,8.7,34.43,2.25-21.93-20.63-25.51-24.31-40.46-.63,11.53,7.18,21.22,14.55,25.91-10.29-3.38-19.22-9-23.42-21.83-6.93,21.39,5.31,38.46,12.9,38.46,2.62,0,4.53-1.67,4.53-4.17,0-6.45-11.64-6.45-14.59-18.85,5.32,10.82,25.55,8.87,25.55,20.76,0,9.74-13.64,14-22.36,8,6.39,8.34,21.26,8.62,25.55-1.42.66,4.31-1.31,10.76-7.45,13.13-7,2.7-13.49-2.48-13.49-2.48,7.64,11,20.94,3.67,34.07,3.9,10.87.19,18.11,5.82,21.29,11.18a15.11,15.11,0,0,0-7.63-2,21.12,21.12,0,0,1,9,21.47C530.86,95.42,523.59,91,509.81,90c-15.56-1.07-23.81-3.57-29.1-9.3,11.2,5,28.93-1.91,41,6-7.45-8.54-23.93-6.09-35.71-8-20.71-3.32-33.33-38.28-31.71-53.63-5.66,23.42,9.46,36.2,12.79,49.13,3.63,14.14-3.37,23.83-9.95,28.81,10.28-15.4-7.42-24.63-4.61-44.36-5.23,19.19,4.43,24.66,4.43,34.6,0,9.76-8.58,13-10.29,25.55-1.71-12.56-10.29-15.79-10.29-25.55,0-9.94,9.66-15.41,4.43-34.6,2.81,19.73-14.89,29-4.61,44.36-6.58-5-13.58-14.67-9.95-28.81,3.33-12.93,18.45-25.71,12.79-49.13,1.62,15.35-11,50.31-31.71,53.63-11.78,1.89-28.26-.56-35.71,8,12.05-7.94,29.78-1.07,41-6C407.28,86.46,399,89,383.48,90c-13.79,1-21.06,5.39-22.36,11.64a21.12,21.12,0,0,1,9.05-21.47,15.11,15.11,0,0,0-7.63,2c3.18-5.36,10.42-11,21.29-11.18,13.13-.23,26.42,7.11,34.07-3.9,0,0-6.5,5.18-13.49,2.48-6.14-2.37-8.11-8.82-7.45-13.13,4.29,10,19.16,9.76,25.55,1.42-8.72,6-22.36,1.76-22.36-8,0-11.89,20.23-9.94,25.55-20.76C422.75,41.5,411.11,41.5,411.11,48c0,2.5,1.91,4.17,4.53,4.17,7.59,0,19.83-17.07,12.9-38.46-4.2,12.84-13.13,18.45-23.42,21.83,7.37-4.69,15.18-14.38,14.55-25.91C416,24.53,393.11,28.11,395.36,50c-6-14.91-.91-26.37,8.7-34.43C383,25,390.19,42.88,381.58,59.39c-8.13,15.57-25.09,20.55-36.79,20.1,5.68-2.09,12.84-6.34,17.23-22.18,2.89-10.48,4.76-20.25,17-27.15-7.69,12.27-4.54,25.69-14.9,36.73,13.92-9.83,10.49-27.68,21.11-41.7-10.62,3.41-19.68,9.38-23.6,18.64,2.92-15.77,19.71-32.53,49.15-36.56C380.47,6,374.63,22.83,359.34,23.44c-9.68.38-18.13-8.4-28-13.68,12.11,3.07,31.11,11.33,41.16-2.13,0,0-6.19,5.26-18.27,3.73C341.93,9.8,330.74,2,300.08,0c30.66-2,41.85-9.8,54.12-11.36,12.08-1.53,18.27,3.73,18.27,3.73-10.05-13.46-29.05-5.2-41.16-2.13,9.9-5.29,18.35-14.06,28-13.68C374.63-22.83,380.47-6,410.8-7.28c-29.44-4-46.23-20.79-49.15-36.54,3.92,9.24,13,15.22,23.6,18.62-10.62-14-7.19-31.86-21.11-41.69,10.36,11,7.21,24.46,14.9,36.73-12.26-6.9-14.13-16.67-17-27.15-4.39-15.85-11.55-20.09-17.23-22.18,11.7-.45,28.66,4.53,36.79,20.1C390.19-42.87,383-25,404.06-15.62c-9.61-8.05-14.73-19.51-8.7-34.42C393.11-28.11,416-24.53,419.67-9.58c.63-11.53-7.18-21.22-14.55-25.91,10.29,3.37,19.22,9,23.42,21.83,6.93-21.39-5.31-38.46-12.9-38.46-2.62,0-4.53,1.67-4.53,4.17,0,6.45,11.64,6.45,14.59,18.85-5.32-10.82-25.55-8.87-25.55-20.76,0-9.74,13.64-14,22.36-8-6.39-8.34-21.26-8.62-25.55,1.42-.66-4.31,1.31-10.76,7.45-13.13,7-2.7,13.49,2.48,13.49,2.48-7.65-11-20.94-3.67-34.07-3.9-10.87-.19-18.11-5.82-21.29-11.18a15.11,15.11,0,0,0,7.63,2,21.13,21.13,0,0,1-9.05-21.47c1.3,6.25,8.57,10.68,22.36,11.64,15.55,1.07,23.8,3.57,29.09,9.3-11.2-5-28.93,1.91-41-6,7.45,8.54,23.93,6.09,35.71,8C428-75.46,440.63-40.5,439-25.15c5.66-23.42-9.46-36.2-12.79-49.14-3.63-14.13,3.37-23.82,9.95-28.8-10.28,15.4,7.42,24.63,4.61,44.36,5.23-19.19-4.43-24.66-4.43-34.6,0-9.76,8.58-13,10.29-25.55,1.71,12.56,10.29,15.79,10.29,25.55,0,9.94-9.66,15.41-4.43,34.6-2.81-19.73,14.89-29,4.61-44.36,6.58,5,13.58,14.67,9.95,28.8-3.33,12.94-18.45,25.72-12.79,49.14-1.62-15.35,11-50.31,31.71-53.63,11.78-1.89,28.26.56,35.71-8-12.05,7.94-29.78,1.07-41,6C486-86.46,494.25-89,509.81-90c13.78-1,21.05-5.39,22.35-11.64a21.13,21.13,0,0,1-9,21.47,15.11,15.11,0,0,0,7.63-2c-3.18,5.36-10.42,11-21.29,11.18-13.13.23-26.43-7.11-34.07,3.9,0,0,6.5-5.18,13.49-2.48,6.14,2.37,8.11,8.82,7.45,13.13-4.29-10-19.16-9.76-25.55-1.42,8.72-6,22.36-1.76,22.36,8,0,11.89-20.23,9.94-25.55,20.76,2.95-12.4,14.59-12.4,14.59-18.85,0-2.5-1.91-4.17-4.53-4.17-7.59,0-19.83,17.07-12.9,38.46,4.2-12.84,13.13-18.46,23.42-21.83C480.79-30.8,473-21.11,473.61-9.58c3.68-14.95,26.56-18.53,24.31-40.46,6,14.91.91,26.37-8.7,34.42,21-9.36,13.87-27.25,22.48-43.77,8.13-15.57,25.09-20.55,36.79-20.1-5.68,2.09-12.84,6.33-17.23,22.18-2.9,10.48-4.76,20.25-17,27.15,7.69-12.27,4.54-25.69,14.91-36.73C515.22-57.06,518.65-39.21,508-25.2c10.62-3.4,19.68-9.38,23.6-18.62-2.92,15.75-19.71,32.52-49.15,36.54,30.33,1.3,36.17-15.55,51.45-16.16,9.69-.38,18.14,8.39,28,13.68-12.11-3.07-31.11-11.33-41.16,2.13,0,0,6.19-5.26,18.27-3.73C551.35-9.8,562.54-2,593.2,0c-30.66,2-41.85,9.8-54.12,11.36C527,12.89,520.81,7.63,520.81,7.63c10.05,13.46,29.05,5.2,41.16,2.13-9.9,5.28-18.35,14.06-28,13.68C518.65,22.83,512.81,6,482.48,7.27ZM515.84,0c4.61,1.24,8.63,3.77,14.49,3.77C537.44,3.77,541.4,1,547.07,0c-5.67-1-9.63-3.77-16.74-3.77C524.47-3.77,520.45-1.24,515.84,0ZM443.62-90.31c0,5.12,3,8.4,3,12.12,0-3.72,3-7,3-12.12,0-4.57-2.25-6.65-3-11.44C445.87-97,443.62-94.88,443.62-90.31ZM377.44,0c-4.61-1.24-8.63-3.77-14.49-3.77C355.84-3.77,351.88-1,346.21,0c5.67,1,9.63,3.77,16.74,3.77C368.81,3.77,372.83,1.24,377.44,0Zm72.22,90.31c0-5.12-3-8.4-3-12.12,0,3.72-3,7-3,12.12,0,4.57,2.25,6.65,3,11.43C447.41,97,449.66,94.88,449.66,90.31ZM491.71,0c-9.94,0-24.09-5-35-3a24.73,24.73,0,0,0,7.46-6.74c-4.41.43-6.76.8-10.12,2.31,2.66-6,3.2-9.4,3.73-15.44a31.47,31.47,0,0,0-6.57,10.65C452-24.66,447-27.49,446.64-44c-.36,16.51-5.32,19.34-4.61,31.76a31.47,31.47,0,0,0-6.57-10.65c.53,6,1.07,9.42,3.73,15.44-3.36-1.51-5.71-1.88-10.12-2.31A24.73,24.73,0,0,0,436.53-3c-10.87-2-25,3-35,3,9.94,0,24.09,5,35,3a24.6,24.6,0,0,0-7.46,6.74c4.41-.43,6.76-.8,10.12-2.31-2.66,6-3.2,9.4-3.73,15.44A31.47,31.47,0,0,0,442,12.24c-.71,12.42,4.25,15.25,4.61,31.76.36-16.51,5.32-19.34,4.61-31.76a31.47,31.47,0,0,0,6.57,10.65c-.53-6-1.07-9.42-3.73-15.44,3.36,1.51,5.71,1.88,10.12,2.31A24.6,24.6,0,0,0,456.75,3C467.62,5,481.77,0,491.71,0Z"/><path class="cls-12" d="M365.11,27.17c-4.69,4.6-6.91,12.19-7.27,21.72-.47,12.53-5.41,17.66-13.33,18.53,11.8-4.58,4.45-17.12,7.95-25.85C346,46.36,348.07,62.25,334.82,63c9.78-3.2,2.84-16.68,9.29-24.5-7.81.1-11.4-6.13-21.54-3.23,4.72-3.64,10-5.93,18.85-5.93-6.26-3.86-9-8.62-11.31-15.34C340.24,24.57,355,28.64,365.11,27.17Z"/><path class="cls-6" d="M464.86,0c-4.26-.66-9.39-3.2-14.13-1.22,2.32-1.8,1.14-3.51,2.53-5.2-1.92,1.39-3.51.51-5,2.75,1.54-5.31-.53-8.14-1.63-14.12-1.1,6-3.17,8.81-1.63,14.12-1.48-2.24-3.07-1.36-5-2.75,1.39,1.69.21,3.4,2.53,5.2-4.74-2-9.87.56-14.13,1.22,4.26.67,9.39,3.2,14.13,1.22-2.32,1.8-1.14,3.51-2.53,5.2,1.92-1.39,3.51-.5,5-2.75-1.54,5.31.53,8.14,1.63,14.12,1.1-6,3.17-8.81,1.63-14.12,1.48,2.25,3.07,1.36,5,2.75-1.39-1.69-.21-3.4-2.53-5.2C455.47,3.2,460.6.67,464.86,0Z"/><path class="cls-13" d="M168.44,250.86c2.64-13.83,25.37-16.26,30.29-34.06,3.77,19.11,21.29,19.87,21.54,33.11-3.18-7.8-10.84-5.78-15.89-12.11.85,6.15,4.64,11.89,12.39,15.07-7.68,1.08-15.63-1.83-19.12-9.55-2.56,4.17-2.81,8.45-.67,13.86a15.18,15.18,0,0,1-5.65-16.55C184.06,247.89,173.42,243.86,168.44,250.86Z"/><path class="cls-14" d="M278.2,250.86c-2.64-13.83-25.37-16.26-30.29-34.06-3.77,19.11-21.3,19.87-21.54,33.11,3.18-7.8,10.84-5.78,15.89-12.11-.85,6.15-4.64,11.89-12.39,15.07C237.54,254,245.5,251,249,243.32c2.55,4.17,2.81,8.45.67,13.86a15.18,15.18,0,0,0,5.65-16.55C262.58,247.89,273.22,243.86,278.2,250.86Z"/><path class="cls-15" d="M304.85,102.42c4.69-4.59,6.91-12.18,7.27-21.72.47-12.53,5.41-17.66,13.33-18.53C313.65,66.75,321,79.29,317.5,88c6.44-4.79,4.39-20.68,17.64-21.4-9.78,3.19-2.84,16.67-9.29,24.49,7.81-.1,11.4,6.13,21.54,3.24-4.72,3.63-10,5.92-18.85,5.92,6.26,3.86,9,8.63,11.31,15.34C329.72,105,315,101,304.85,102.42Z"/><path class="cls-2" d="M155.52,61.1A32.82,32.82,0,0,1,167,83.85c1.08-10.23,3.2-18.14,8.21-24,0,0-6.33,3.1-8.61,9.16C163.6,63.79,155.52,61.1,155.52,61.1Z"/><path class="cls-2" d="M141.52,10.21c1.22,6,6.31,11.18,12.92,13.73A21.14,21.14,0,0,1,156.6,4.15a21.46,21.46,0,0,0,5.78,18,18.17,18.17,0,0,1,1.08-13.86c-.94,8.48,6.17,12.79,15.62,18.44,12.66,7.58,17.27,16,19.25,27.23-3.46-6.87-9.91-13.14-27.86-17.29C148.17,31.54,140.07,24.29,141.52,10.21Z"/><path class="cls-16" d="M141.79,102.42c-4.69-4.59-6.91-12.18-7.27-21.72-.47-12.53-5.41-17.66-13.33-18.53,11.8,4.58,4.45,17.12,7.94,25.85-6.44-4.79-4.38-20.68-17.63-21.4,9.78,3.19,2.83,16.67,9.29,24.49-7.81-.1-11.4,6.13-21.54,3.24,4.71,3.63,10,5.92,18.85,5.92-6.26,3.86-9,8.63-11.31,15.34C116.92,105,131.64,101,141.79,102.42Z"/><path class="cls-2" d="M291.12,61.1a32.82,32.82,0,0,0-11.44,22.75c-1.08-10.23-3.2-18.14-8.21-24,0,0,6.32,3.1,8.61,9.16C283,63.79,291.12,61.1,291.12,61.1Z"/><path class="cls-2" d="M305.12,10.21c-1.22,6-6.31,11.18-12.92,13.73A21.14,21.14,0,0,0,290,4.15a21.41,21.41,0,0,1-5.79,18,18.12,18.12,0,0,0-1.07-13.86c.94,8.48-6.17,12.79-15.62,18.44-12.66,7.58-17.27,16-19.25,27.23,3.45-6.87,9.91-13.14,27.86-17.29C298.47,31.54,306.57,24.29,305.12,10.21Z"/><path class="cls-17" d="M278.2,8.33c-2.64,13.83-25.37,16.25-30.29,34.05-3.77-19.11-21.3-19.87-21.54-33.11,3.18,7.8,10.84,5.79,15.89,12.12-.85-6.16-4.64-11.9-12.39-15.08,7.67-1.08,15.63,1.83,19.12,9.56,2.55-4.18,2.81-8.45.67-13.87a15.2,15.2,0,0,1,5.65,16.56C262.58,11.29,273.22,15.33,278.2,8.33Z"/><path class="cls-2" d="M155.52,198.09A32.84,32.84,0,0,0,167,175.34c1.08,10.23,3.2,18.13,8.21,24,0,0-6.33-3.1-8.61-9.15C163.6,195.4,155.52,198.09,155.52,198.09Z"/><path class="cls-2" d="M141.52,249c1.22-6,6.31-11.18,12.92-13.73A21.14,21.14,0,0,0,156.6,255a21.47,21.47,0,0,1,5.78-18,18.19,18.19,0,0,0,1.08,13.87c-.94-8.48,6.17-12.79,15.62-18.45,12.66-7.57,17.27-16,19.25-27.22-3.46,6.86-9.91,13.14-27.86,17.29C148.17,227.64,140.07,234.9,141.52,249Z"/><path class="cls-18" d="M259.16,136.87c29.44,4,46.23,20.79,49.15,36.55-3.92-9.25-13-15.23-23.6-18.63,10.62,14,7.19,31.86,21.12,41.69-10.37-11-7.22-24.46-14.91-36.73,12.26,6.9,14.12,16.68,17,27.15,4.39,15.85,11.55,20.09,17.23,22.18-11.7.45-28.67-4.53-36.79-20.1-8.61-16.51-1.45-34.41-22.48-43.77,9.6,8,14.73,19.51,8.7,34.42,2.25-21.93-20.63-25.51-24.31-40.46-.63,11.53,7.18,21.23,14.55,25.91-10.29-3.37-19.22-9-23.42-21.83-6.93,21.4,5.31,38.46,12.9,38.46,2.62,0,4.53-1.67,4.53-4.17,0-6.44-11.64-6.44-14.59-18.85,5.32,10.82,25.55,8.87,25.55,20.76,0,9.74-13.64,14-22.36,8,6.39,8.34,21.26,8.62,25.55-1.42.66,4.31-1.31,10.76-7.45,13.13-7,2.7-13.49-2.48-13.49-2.48,7.64,11,20.94,3.67,34.07,3.9,10.87.2,18.11,5.82,21.29,11.18a15.32,15.32,0,0,0-7.63-2,21.14,21.14,0,0,1,9,21.47c-1.3-6.25-8.57-10.68-22.35-11.63-15.56-1.08-23.81-3.57-29.1-9.31,11.2,5,28.93-1.91,41,6-7.45-8.54-23.93-6.09-35.71-8C242,205.05,229.33,170.09,231,154.74c-5.66,23.42,9.46,36.2,12.79,49.14,3.63,14.13-3.37,23.82-10,28.8,10.28-15.4-7.42-24.63-4.62-44.36-5.22,19.19,4.44,24.66,4.44,34.6,0,9.76-8.58,13-10.29,25.55C221.61,235.91,213,232.68,213,222.92c0-9.94,9.66-15.41,4.43-34.6,2.81,19.73-14.89,29-4.61,44.36-6.58-5-13.58-14.67-9.95-28.8,3.33-12.94,18.44-25.72,12.79-49.14,1.62,15.35-11,50.31-31.71,53.63-11.78,1.9-28.26-.55-35.71,8,12-8,29.78-1.08,41-6-5.29,5.74-13.54,8.23-29.09,9.31-13.79,1-21.06,5.38-22.36,11.63a21.13,21.13,0,0,1,9-21.47,15.32,15.32,0,0,0-7.63,2c3.18-5.36,10.42-11,21.29-11.18,13.13-.23,26.42,7.11,34.07-3.9,0,0-6.5,5.18-13.49,2.48-6.14-2.37-8.11-8.82-7.45-13.13,4.29,10,19.16,9.76,25.55,1.42-8.72,6.06-22.36,1.76-22.36-8,0-11.89,20.23-9.94,25.55-20.76-2.95,12.41-14.59,12.41-14.59,18.85,0,2.5,1.91,4.17,4.53,4.17,7.59,0,19.83-17.06,12.9-38.46-4.2,12.84-13.13,18.46-23.42,21.83,7.37-4.68,15.18-14.38,14.55-25.91-3.68,15-26.56,18.53-24.31,40.46-6-14.91-.91-26.37,8.7-34.42-21,9.36-13.87,27.26-22.49,43.77-8.12,15.57-25.08,20.55-36.78,20.1,5.68-2.09,12.84-6.33,17.23-22.18,2.89-10.47,4.76-20.25,17-27.15-7.69,12.27-4.54,25.69-14.9,36.73,13.92-9.83,10.49-27.68,21.11-41.69-10.62,3.4-19.68,9.38-23.6,18.63,2.92-15.76,19.71-32.53,49.15-36.55C157.15,135.58,151.31,152.42,136,153c-9.68.38-18.13-8.39-28-13.68,12.11,3.07,31.11,11.33,41.16-2.13,0,0-6.19,5.26-18.27,3.73-12.27-1.56-23.46-9.4-54.12-11.36,30.66-2,41.85-9.79,54.12-11.35C143,116.7,149.15,122,149.15,122c-10.05-13.46-29.05-5.2-41.16-2.13,9.9-5.28,18.35-14.06,28-13.67,15.29.6,21.13,17.45,51.46,16.16-29.44-4-46.23-20.79-49.15-36.55,3.92,9.25,13,15.22,23.6,18.63-10.62-14-7.19-31.87-21.11-41.7,10.36,11,7.21,24.46,14.9,36.73-12.26-6.9-14.13-16.67-17-27.15-4.39-15.84-11.55-20.09-17.23-22.18,11.7-.45,28.66,4.53,36.78,20.11,8.62,16.51,1.45,34.41,22.49,43.77-9.61-8.06-14.73-19.52-8.7-34.42-2.25,21.92,20.63,25.5,24.31,40.45.63-11.53-7.18-21.22-14.55-25.9,10.29,3.37,19.22,9,23.42,21.82,6.93-21.39-5.31-38.46-12.9-38.46-2.62,0-4.53,1.68-4.53,4.17,0,6.45,11.64,6.45,14.59,18.85-5.32-10.82-25.55-8.87-25.55-20.75,0-9.74,13.64-14,22.36-8-6.39-8.34-21.26-8.62-25.55,1.42C173,68.86,175,62.41,181.09,60c7-2.7,13.49,2.48,13.49,2.48-7.65-11-20.94-3.67-34.07-3.9-10.87-.19-18.11-5.82-21.29-11.18a15.11,15.11,0,0,0,7.63,2,21.1,21.1,0,0,1-9-21.46c1.3,6.24,8.57,10.67,22.36,11.63,15.55,1.07,23.8,3.57,29.09,9.3-11.2-5-28.93,1.91-41-6,7.45,8.54,23.93,6.09,35.71,8,20.71,3.32,33.33,38.29,31.71,53.63,5.65-23.42-9.46-36.2-12.79-49.13-3.63-14.14,3.37-23.83,9.95-28.8-10.28,15.39,7.42,24.62,4.61,44.35C222.69,51.67,213,46.2,213,36.26c0-9.75,8.58-13,10.29-25.55,1.71,12.56,10.29,15.8,10.29,25.55,0,9.94-9.66,15.41-4.44,34.6-2.8-19.73,14.9-29,4.62-44.35,6.58,5,13.58,14.66,10,28.8C240.41,68.24,225.29,81,231,104.44c-1.62-15.34,11-50.31,31.71-53.63,11.78-1.89,28.26.56,35.71-8-12.05,7.94-29.78,1.07-41,6,5.29-5.73,13.54-8.23,29.1-9.3,13.78-1,21.05-5.39,22.35-11.63a21.12,21.12,0,0,1-9,21.46,15.11,15.11,0,0,0,7.63-2c-3.18,5.36-10.42,11-21.29,11.18-13.13.23-26.43-7.11-34.07,3.9,0,0,6.5-5.18,13.49-2.48,6.14,2.37,8.11,8.82,7.45,13.13-4.29-10-19.16-9.76-25.55-1.42,8.72-6,22.36-1.75,22.36,8,0,11.88-20.23,9.93-25.55,20.75,3-12.4,14.59-12.4,14.59-18.85,0-2.49-1.91-4.17-4.53-4.17-7.59,0-19.83,17.07-12.9,38.46,4.2-12.84,13.13-18.45,23.42-21.82-7.37,4.68-15.18,14.37-14.55,25.9,3.68-15,26.56-18.53,24.31-40.45,6,14.9.9,26.36-8.7,34.42,21-9.36,13.87-27.26,22.48-43.77,8.12-15.58,25.09-20.56,36.79-20.11-5.68,2.09-12.84,6.34-17.23,22.18-2.9,10.48-4.76,20.25-17,27.15,7.69-12.27,4.54-25.69,14.91-36.73-13.93,9.83-10.5,27.68-21.12,41.7,10.62-3.41,19.68-9.38,23.6-18.63-2.92,15.76-19.71,32.53-49.15,36.55,30.33,1.29,36.17-15.56,51.45-16.16,9.69-.39,18.14,8.39,28,13.67-12.11-3.07-31.11-11.33-41.16,2.13,0,0,6.19-5.26,18.27-3.72,12.27,1.56,23.46,9.39,54.12,11.35-30.66,2-41.85,9.8-54.12,11.36-12.08,1.53-18.27-3.73-18.27-3.73,10.05,13.46,29.05,5.2,41.16,2.13-9.9,5.29-18.35,14.06-28,13.68C295.33,152.42,289.49,135.58,259.16,136.87Zm33.36-7.28c4.61,1.24,8.63,3.77,14.48,3.77,7.12,0,11.08-2.75,16.75-3.77-5.67-1-9.63-3.77-16.75-3.77C301.15,125.82,297.13,128.35,292.52,129.59ZM220.3,39.28c0,5.12,3,8.4,3,12.12,0-3.72,3-7,3-12.12,0-4.57-2.25-6.65-3-11.43C222.55,32.63,220.3,34.71,220.3,39.28Zm-66.18,90.31c-4.61-1.24-8.63-3.77-14.49-3.77-7.11,0-11.07,2.76-16.74,3.77,5.67,1,9.63,3.77,16.74,3.77C145.49,133.36,149.51,130.83,154.12,129.59Zm72.22,90.31c0-5.12-3-8.4-3-12.12,0,3.72-3,7-3,12.12,0,4.57,2.25,6.66,3,11.44C224.09,226.56,226.34,224.47,226.34,219.9Zm42-90.31c-9.94,0-24.09-5-35-3a24.76,24.76,0,0,0,7.46-6.75c-4.41.44-6.76.8-10.12,2.31,2.66-6,3.2-9.4,3.73-15.44a31.47,31.47,0,0,0-6.57,10.65c.71-12.42-4.26-15.25-4.61-31.76-.36,16.51-5.32,19.34-4.61,31.76a31.47,31.47,0,0,0-6.57-10.65c.53,6,1.07,9.42,3.73,15.44-3.36-1.51-5.71-1.87-10.12-2.31a24.76,24.76,0,0,0,7.46,6.75c-10.87-2-25,3-35,3,9.94,0,24.09,5,35,3a24.73,24.73,0,0,0-7.46,6.74c4.41-.43,6.76-.8,10.12-2.31-2.66,6-3.2,9.4-3.73,15.44a31.37,31.37,0,0,0,6.57-10.65c-.71,12.42,4.25,15.25,4.61,31.76.35-16.51,5.32-19.34,4.61-31.76a31.37,31.37,0,0,0,6.57,10.65c-.53-6-1.07-9.42-3.73-15.44,3.36,1.51,5.71,1.88,10.12,2.31a24.73,24.73,0,0,0-7.46-6.74C244.3,134.57,258.45,129.59,268.39,129.59Z"/><path class="cls-2" d="M291.12,198.09a32.84,32.84,0,0,1-11.44-22.75c-1.08,10.23-3.2,18.13-8.21,24,0,0,6.32-3.1,8.61-9.15C283,195.4,291.12,198.09,291.12,198.09Z"/><path class="cls-2" d="M305.12,249c-1.22-6-6.31-11.18-12.92-13.73A21.14,21.14,0,0,1,290,255a21.42,21.42,0,0,0-5.79-18,18.14,18.14,0,0,1-1.07,13.87c.94-8.48-6.17-12.79-15.62-18.45-12.66-7.57-17.27-16-19.25-27.22,3.45,6.86,9.91,13.14,27.86,17.29C298.47,227.64,306.57,234.9,305.12,249Z"/><path class="cls-19" d="M304.85,156.76c4.69,4.6,6.91,12.19,7.27,21.72.47,12.53,5.41,17.66,13.33,18.53-11.8-4.58-4.45-17.11-7.95-25.85,6.44,4.79,4.39,20.68,17.64,21.41-9.78-3.2-2.84-16.68-9.29-24.5,7.81.11,11.4-6.13,21.54-3.23-4.72-3.64-10-5.93-18.85-5.93,6.26-3.85,9-8.62,11.31-15.34C329.72,154.16,315,158.24,304.85,156.76Z"/><path class="cls-20" d="M141.79,156.76c-4.69,4.6-6.91,12.19-7.27,21.72-.47,12.53-5.41,17.66-13.33,18.53,11.8-4.58,4.45-17.11,7.94-25.85-6.44,4.79-4.38,20.68-17.63,21.41,9.78-3.2,2.83-16.68,9.29-24.5-7.81.11-11.4-6.13-21.54-3.23,4.71-3.64,10-5.93,18.85-5.93-6.26-3.85-9-8.62-11.31-15.34C116.92,154.16,131.64,158.24,141.79,156.76Z"/><path class="cls-21" d="M168.44,8.33c2.64,13.83,25.37,16.25,30.29,34.05C202.5,23.27,220,22.51,220.27,9.27c-3.18,7.8-10.84,5.79-15.89,12.12.85-6.16,4.64-11.9,12.39-15.08-7.68-1.08-15.63,1.83-19.12,9.56C195.09,11.69,194.84,7.42,197,2a15.2,15.2,0,0,0-5.65,16.56C184.06,11.29,173.42,15.33,168.44,8.33Z"/><path class="cls-6" d="M241.54,129.59c-4.26-.66-9.39-3.2-14.13-1.22,2.32-1.8,1.14-3.51,2.53-5.19-1.92,1.38-3.51.5-5,2.74,1.54-5.31-.53-8.14-1.63-14.12-1.1,6-3.17,8.81-1.63,14.12-1.48-2.24-3.07-1.36-5-2.74,1.39,1.68.21,3.39,2.53,5.19-4.74-2-9.87.56-14.13,1.22,4.26.67,9.39,3.2,14.13,1.22-2.32,1.81-1.14,3.52-2.53,5.2,1.92-1.39,3.51-.5,5-2.74-1.54,5.3.53,8.14,1.63,14.11,1.1-6,3.17-8.81,1.63-14.11,1.48,2.24,3.07,1.35,5,2.74-1.39-1.68-.21-3.39-2.53-5.2C232.15,132.79,237.28,130.26,241.54,129.59Z"/><path class="cls-22" d="M54.88,121.26C52.24,107.43,29.51,105,24.59,87.21c-3.77,19.11-21.3,19.87-21.54,33.11,3.18-7.8,10.84-5.78,15.89-12.11-.85,6.15-4.64,11.89-12.39,15.07,7.67,1.08,15.63-1.83,19.12-9.56,2.55,4.18,2.81,8.45.67,13.87A15.19,15.19,0,0,0,32,111C39.26,118.3,49.9,114.26,54.88,121.26Z"/><path class="cls-23" d="M35.84,7.27C65.28,11.3,82.07,28.06,85,43.83c-3.92-9.26-13-15.23-23.6-18.64,10.61,14,7.19,31.87,21.11,41.7-10.36-11-7.21-24.46-14.9-36.73,12.26,6.9,14.12,16.67,17,27.15C89,73.15,96.17,77.4,101.84,79.49c-11.69.45-28.66-4.53-36.78-20.1C56.45,42.88,63.61,25,42.58,15.61c9.6,8.06,14.73,19.52,8.7,34.43C53.53,28.11,30.65,24.53,27,9.58c-.63,11.53,7.18,21.22,14.55,25.91-10.29-3.38-19.22-9-23.42-21.83C11.17,35.05,23.41,52.12,31,52.12c2.62,0,4.53-1.67,4.53-4.17,0-6.45-11.64-6.45-14.59-18.85C26.26,39.92,46.49,38,46.49,49.86c0,9.74-13.64,14-22.36,8,6.39,8.34,21.26,8.62,25.55-1.42.66,4.31-1.31,10.76-7.45,13.13-7,2.7-13.49-2.48-13.49-2.48,7.64,11,20.94,3.67,34.07,3.9,10.87.19,18.11,5.82,21.29,11.18a15.11,15.11,0,0,0-7.63-2,21.14,21.14,0,0,1,9,21.47C84.22,95.42,77,91,63.17,90c-15.56-1.07-23.81-3.57-29.1-9.3,11.2,5,28.93-1.91,41,6-7.45-8.54-23.93-6.09-35.71-8C18.63,75.46,6,40.5,7.63,25.15,2,48.57,17.09,61.35,20.42,74.28c3.63,14.14-3.37,23.83-10,28.81,10.28-15.4-7.42-24.63-4.62-44.36-5.22,19.19,4.44,24.66,4.44,34.6,0,9.76-8.58,13-10.29,25.55-1.71-12.56-10.29-15.79-10.29-25.55,0-9.94,9.66-15.41,4.43-34.6,2.81,19.73-14.89,29-4.61,44.36-6.58-5-13.58-14.67-10-28.81C-17.09,61.35-2,48.57-7.63,25.15-6,40.5-18.63,75.46-39.34,78.78c-11.78,1.89-28.26-.56-35.71,8,12-7.94,29.78-1.07,41-6C-39.36,86.46-47.61,89-63.16,90c-13.79,1-21.06,5.39-22.36,11.64a21.12,21.12,0,0,1,9-21.47,15.11,15.11,0,0,0-7.63,2c3.18-5.36,10.42-11,21.29-11.18,13.13-.23,26.42,7.11,34.07-3.9,0,0-6.5,5.18-13.49,2.48-6.14-2.37-8.11-8.82-7.45-13.13,4.29,10,19.16,9.76,25.55,1.42-8.72,6-22.36,1.76-22.36-8,0-11.89,20.23-9.94,25.55-20.76C-23.89,41.5-35.53,41.5-35.53,48c0,2.5,1.91,4.17,4.53,4.17,7.59,0,19.83-17.07,12.9-38.46C-22.3,26.5-31.23,32.11-41.52,35.49-34.15,30.8-26.34,21.11-27,9.58c-3.68,15-26.56,18.53-24.31,40.46-6-14.91-.91-26.37,8.7-34.43-21,9.37-13.87,27.27-22.49,43.78C-73.19,75-90.15,79.94-101.85,79.49-96.17,77.4-89,73.15-84.62,57.31c2.89-10.48,4.76-20.25,17-27.15-7.69,12.27-4.54,25.69-14.9,36.73C-68.58,57.06-72,39.21-61.39,25.19-72,28.6-81.07,34.57-85,43.83-82.08,28.06-65.28,11.3-35.84,7.27-66.17,6-72,22.83-87.3,23.44c-9.68.38-18.13-8.4-28-13.68,12.11,3.07,31.11,11.33,41.16-2.13,0,0-6.19,5.26-18.27,3.73C-104.71,9.8-115.9,2-146.56,0c30.66-2,41.85-9.8,54.12-11.36,12.08-1.53,18.27,3.73,18.27,3.73-10-13.46-29-5.2-41.16-2.13,9.9-5.29,18.35-14.06,28-13.68C-72-22.83-66.17-6-35.84-7.28-65.28-11.3-82.08-28.07-85-43.82c3.92,9.24,13,15.22,23.6,18.62C-72-39.21-68.58-57.06-82.5-66.89c10.36,11,7.21,24.46,14.9,36.73-12.26-6.9-14.13-16.67-17-27.15C-89-73.16-96.17-77.4-101.85-79.49c11.7-.45,28.66,4.53,36.78,20.1C-56.45-42.87-63.62-25-42.58-15.62c-9.61-8.05-14.73-19.51-8.7-34.42C-53.53-28.11-30.65-24.53-27-9.58c.63-11.53-7.18-21.22-14.55-25.91,10.29,3.37,19.22,9,23.42,21.83C-11.17-35-23.41-52.12-31-52.12c-2.62,0-4.53,1.67-4.53,4.17,0,6.45,11.64,6.45,14.59,18.85C-26.26-39.92-46.49-38-46.49-49.86c0-9.74,13.64-14,22.36-8-6.39-8.34-21.26-8.62-25.55,1.42-.66-4.31,1.31-10.76,7.45-13.13,7-2.7,13.49,2.48,13.49,2.48-7.65-11-20.94-3.67-34.07-3.9-10.87-.19-18.11-5.82-21.29-11.18a15.11,15.11,0,0,0,7.63,2,21.13,21.13,0,0,1-9-21.47C-84.22-95.42-76.95-91-63.16-90c15.55,1.07,23.8,3.57,29.09,9.3-11.2-5-28.93,1.91-41-6,7.45,8.54,23.93,6.09,35.71,8C-18.63-75.46-6-40.5-7.63-25.15-2-48.57-17.09-61.35-20.42-74.29c-3.63-14.13,3.37-23.82,10-28.8C-20.75-87.69-3-78.46-5.86-58.73c5.23-19.19-4.43-24.66-4.43-34.6,0-9.76,8.58-13,10.29-25.55,1.71,12.56,10.29,15.79,10.29,25.55,0,9.94-9.66,15.41-4.44,34.6-2.8-19.73,14.9-29,4.62-44.36,6.58,5,13.58,14.67,10,28.8C17.09-61.35,2-48.57,7.63-25.15,6-40.5,18.63-75.46,39.34-78.78c11.78-1.89,28.26.56,35.71-8-12,7.94-29.78,1.07-41,6C39.36-86.46,47.61-89,63.17-90c13.78-1,21-5.39,22.35-11.64a21.14,21.14,0,0,1-9,21.47,15.11,15.11,0,0,0,7.63-2c-3.18,5.36-10.42,11-21.29,11.18-13.13.23-26.43-7.11-34.07,3.9,0,0,6.5-5.18,13.49-2.48,6.14,2.37,8.11,8.82,7.45,13.13-4.29-10-19.16-9.76-25.55-1.42,8.72-6,22.36-1.76,22.36,8,0,11.89-20.23,9.94-25.55,20.76,2.95-12.4,14.59-12.4,14.59-18.85,0-2.5-1.91-4.17-4.53-4.17-7.59,0-19.83,17.07-12.9,38.46C22.3-26.5,31.23-32.12,41.52-35.49,34.15-30.8,26.34-21.11,27-9.58,30.65-24.53,53.53-28.11,51.28-50c6,14.91.9,26.37-8.7,34.42,21-9.36,13.87-27.25,22.48-43.77C73.18-75,90.15-79.94,101.84-79.49,96.17-77.4,89-73.16,84.62-57.31c-2.9,10.48-4.76,20.25-17,27.15,7.69-12.27,4.54-25.69,14.9-36.73C68.58-57.06,72-39.21,61.39-25.2,72-28.6,81.07-34.58,85-43.82,82.07-28.07,65.28-11.3,35.84-7.28,66.17-6,72-22.83,87.29-23.44c9.69-.38,18.14,8.39,28,13.68-12.11-3.07-31.11-11.33-41.16,2.13,0,0,6.19-5.26,18.27-3.73C104.71-9.8,115.9-2,146.56,0,115.9,2,104.71,9.8,92.44,11.36,80.36,12.89,74.17,7.63,74.17,7.63c10,13.46,29.05,5.2,41.16,2.13C105.43,15,97,23.82,87.29,23.44,72,22.83,66.17,6,35.84,7.27ZM69.2,0c4.61,1.24,8.63,3.77,14.48,3.77C90.8,3.77,94.76,1,100.42,0,94.76-1,90.8-3.77,83.68-3.77,77.83-3.77,73.81-1.24,69.2,0ZM-3-90.31c0,5.12,3,8.4,3,12.12,0-3.72,3-7,3-12.12C3-94.88.77-97,0-101.75-.77-97-3-94.88-3-90.31ZM-69.2,0c-4.61-1.24-8.63-3.77-14.49-3.77C-90.8-3.77-94.76-1-100.43,0c5.67,1,9.63,3.77,16.74,3.77C-77.83,3.77-73.81,1.24-69.2,0ZM3,90.31c0-5.12-3-8.4-3-12.12,0,3.72-3,7-3,12.12C-3,94.88-.77,97,0,101.74.77,97,3,94.88,3,90.31ZM45.07,0C35.13,0,21-5,10.11-3a24.73,24.73,0,0,0,7.46-6.74c-4.41.43-6.76.8-10.12,2.31,2.66-6,3.2-9.4,3.73-15.44A31.47,31.47,0,0,0,4.61-12.24C5.32-24.66.35-27.49,0-44-.36-27.49-5.32-24.66-4.61-12.24a31.47,31.47,0,0,0-6.57-10.65c.53,6,1.07,9.42,3.73,15.44C-10.81-9-13.16-9.33-17.57-9.76A24.73,24.73,0,0,0-10.11-3c-10.87-2-25,3-35,3,9.94,0,24.09,5,35,3a24.6,24.6,0,0,0-7.46,6.74c4.41-.43,6.76-.8,10.12-2.31-2.66,6-3.2,9.4-3.73,15.44A31.47,31.47,0,0,0-4.61,12.24C-5.32,24.66-.36,27.49,0,44,.35,27.49,5.32,24.66,4.61,12.24a31.47,31.47,0,0,0,6.57,10.65c-.53-6-1.07-9.42-3.73-15.44C10.81,9,13.16,9.33,17.57,9.76A24.6,24.6,0,0,0,10.11,3C21,5,35.13,0,45.07,0Z"/><path class="cls-2" d="M67.8,68.5A32.84,32.84,0,0,1,56.36,45.75c-1.08,10.23-3.2,18.13-8.21,24,0,0,6.32-3.1,8.61-9.16C59.72,65.8,67.8,68.5,67.8,68.5Z"/><path class="cls-2" d="M81.8,119.38c-1.22-6-6.31-11.18-12.92-13.73a21.14,21.14,0,0,1-2.16,19.79,21.45,21.45,0,0,0-5.79-18,18.11,18.11,0,0,1-1.07,13.86c.94-8.48-6.17-12.78-15.62-18.44C31.58,95.24,27,86.78,25,75.6c3.45,6.86,9.91,13.13,27.86,17.29C75.15,98.05,83.25,105.3,81.8,119.38Z"/><path class="cls-24" d="M81.53,27.17c4.69,4.6,6.91,12.19,7.27,21.72.47,12.53,5.41,17.66,13.33,18.53-11.8-4.58-4.45-17.12-7.95-25.85,6.44,4.79,4.39,20.68,17.64,21.41-9.78-3.2-2.84-16.68-9.29-24.5,7.81.1,11.4-6.13,21.54-3.23-4.72-3.64-10-5.93-18.85-5.93,6.26-3.86,9-8.62,11.31-15.34C106.4,24.57,91.68,28.64,81.53,27.17Z"/><path class="cls-6" d="M18.22,0C14-.66,8.83-3.2,4.09-1.22,6.41-3,5.23-4.73,6.62-6.42,4.7-5,3.11-5.91,1.63-3.67,3.17-9,1.1-11.81,0-17.79-1.1-11.81-3.17-9-1.63-3.67-3.11-5.91-4.7-5-6.62-6.42c1.39,1.69.21,3.4,2.53,5.2C-8.83-3.2-14-.66-18.22,0-14,.67-8.83,3.2-4.09,1.22-6.41,3-5.23,4.73-6.62,6.42c1.92-1.39,3.51-.5,5-2.75C-3.17,9-1.1,11.81,0,17.79,1.1,11.81,3.17,9,1.63,3.67,3.11,5.92,4.7,5,6.62,6.42,5.23,4.73,6.41,3,4.09,1.22,8.83,3.2,14,.67,18.22,0Z"/></pattern></defs><path class="cls-25" d="M175.24,215.76" transform="translate(-49.65 -21.69)"/><path class="cls-25" d="M206.22,150.88" transform="translate(-49.65 -21.69)"/><path class="cls-26" d="M146.38,21.69c-8.84,0-16,8.23-16,18.39s16,39,16,39,16-28.85,16-39S155.22,21.69,146.38,21.69Zm0,30.18a10.2,10.2,0,0,1-10-10.41,10,10,0,1,1,20,0A10.2,10.2,0,0,1,146.38,51.87Z" transform="translate(-49.65 -21.69)"/><path d="M78.05,137.58c0-2.35-1-4.69-4.6-4.69-11,0-15.64,5.25-21.54,18.21H49.65l6.86-21.68h46.91l7.73,21.23H109c-6.52-13.74-10.08-17.76-21.89-17.76a4.45,4.45,0,0,0-4.61,4.69v64c0,4.8,2.09,5.92,4.26,5.92h4.52V211H69.37v-3.46h4.25c3,0,4.43-2.35,4.43-5.92Z" transform="translate(-49.65 -21.69)"/><path d="M146.86,212.67c-16.51,0-29.28-17-29.28-42.35,0-23.69,12.77-42.69,29.28-42.69,16.07,0,28.4,19.34,28.4,42.69C175.26,195.8,162.41,212.67,146.86,212.67Zm-24.32-42.35c0,21.79,9.38,38.88,24.32,38.88,13.38,0,23.37-15.64,23.37-38.88,0-22.46-9.91-39.11-23.37-39.11-6.6,0-12.08,3.24-16.59,9.83C125.14,148.86,122.54,158.59,122.54,170.32Z" transform="translate(-49.65 -21.69)"/><path d="M189.6,139.7c0-3.8-1.22-6.81-4.52-6.81h-4v-3.47h26.75c12.43,0,26,2.8,26,20.34,0,6.59-2.17,12.07-6.43,16.09-4.52,4.13-11.9,6.26-22.15,6.26h-11.3v29.16c0,5.7,3.39,6.26,4.87,6.26h3.82V211H181v-3.46h4.52c2.34,0,4.08-2.24,4.08-6.26Zm15.64,28.94c7.73,0,24.15-.89,24.15-18.88A16.93,16.93,0,0,0,224.17,137c-3.21-2.68-8.6-4.13-16.33-4.13h-7.55c-4.87,0-6.35,1.67-6.35,6.81v28.94Z" transform="translate(-49.65 -21.69)"/><line class="cls-26" x1="96.73" y1="63.37" x2="96.73" y2="75.48"/><line class="cls-27" x1="96.73" y1="63.37" x2="96.73" y2="75.48"/><path class="cls-26" d="M143.44,85.25v12.1a2.28,2.28,0,0,0,2.72,2.06c1.19-.11,3.17-.94,3.17-2.43V84.87a2.29,2.29,0,0,0-2.73-2.06c-1.19.12-3.16.94-3.16,2.44Z" transform="translate(-49.65 -21.69)"/><line class="cls-26" x1="96.69" y1="84.93" x2="96.69" y2="97.03"/><line class="cls-27" x1="96.69" y1="84.93" x2="96.69" y2="97.03"/><path class="cls-26" d="M143.39,106.8v12.11a2.28,2.28,0,0,0,2.72,2c1.19-.11,3.17-.94,3.17-2.43v-12.1a2.27,2.27,0,0,0-2.72-2.06c-1.19.11-3.17.94-3.17,2.43Z" transform="translate(-49.65 -21.69)"/></svg>