<svg id="圖層_1" data-name="圖層 1" xmlns="http://www.w3.org/2000/svg" viewBox="0 0 283.46 141.73"><defs><style>.cls-1{fill:#231815;}</style></defs><path class="cls-1" d="M1.85,37.89v-.47H31.47l.7,14.65h-.45l-2-11.5a47,47,0,0,0-5.31-.28,24.58,24.58,0,0,0-8.65,1.27Q15.21,49.19,15.2,59q0,6.13.23,9.94,4.39.43,5.59.43a36.72,36.72,0,0,0,6.48-.61l1.25-8h.47V80.81h-.47l-1.31-8.48a27.46,27.46,0,0,0-5.34-.48,35.83,35.83,0,0,0-6.67.57c-.25,3.64-.32,7.21-.23,10.69,0,4.46.09,8.15.14,11s.16,5.41.31,7.52a19.55,19.55,0,0,0,8.9,1.74,27.81,27.81,0,0,0,5.34-.43l2.22-11.35h.39l-.61,14.75H1.94v-.47l6.64-1.65q.22-1.93.41-5.89c.12-2.64.22-5.6.32-8.88s.15-6,.19-8.25.06-4.15.06-5.81V63.56c0-1.5,0-3.65-.09-6.43s-.14-5.66-.25-8.64-.27-6-.47-9Zm8.46,1.36v65.3h1.92V39.25Z"/><path class="cls-1" d="M34.59,37.42H57.87v.47L49,39.44q1.5,4,2.79,7.07t2.84,6.38c1,2.19,2.15,4.49,3.38,6.9s2.48,4.9,3.78,7.45q2.18-3.76,5-9.26t5.08-10.29c1.48-3.21,2.64-5.95,3.47-8.25l-8.48-1.55v-.47H85.49v.47L79,39.35q-1.76,2.73-4,6.95t-4.74,9.33q-2.5,5.1-4.34,9.13c-1.23,2.69-2,4.63-2.48,5.82q1.68,3.78,4.37,9.54T72.64,90.3q2.16,4.41,4.14,8.1c1.32,2.47,2.48,4.45,3.48,6l5.17,1.56v.47H62.82v-.47l8.84-1.65a147.67,147.67,0,0,0-6-14.42Q62,82,58.45,75.53q-2.84,4.95-5.53,10.27T48,96q-2.22,4.88-3.56,8.27l8.49,1.65v.47H34.45v-.47l6.4-1.65q4-6.6,8.61-16t7.43-16.09q-2.69-6.08-5.52-12.09t-5.74-11.8q-2.93-5.79-4.84-8.81l-6.2-1.55ZM42.27,39l31.51,65.53H76L44.6,39Z"/><path class="cls-1" d="M86.52,37.23h19.3a15.22,15.22,0,0,1,7.26,1.44A11.28,11.28,0,0,1,117.39,43a20.1,20.1,0,0,1,2.18,5.91,33.86,33.86,0,0,1,.77,7.23,30,30,0,0,1-1.71,10.29A18.68,18.68,0,0,1,113.81,74a10.14,10.14,0,0,1-7.07,2.85A18,18,0,0,1,101,76v-.47a12.86,12.86,0,0,0,1.78.09,10.06,10.06,0,0,0,5.78-1.81,12.45,12.45,0,0,0,4.27-5.65,25.11,25.11,0,0,0,1.61-9.64A32.6,32.6,0,0,0,112,45.85q-2.47-5.94-7.31-5.94a10.78,10.78,0,0,0-4.15.76c-.13,1.25-.27,4.38-.41,9.37s-.23,8.5-.23,10.51V83c0,.94,0,3.07.13,6.38s.17,6.18.26,8.6.24,4.45.42,6.08l7,1.74-.3.57H86.52l.11-.66,6.73-1.65q.3-4,.47-8.39T94.12,85q.13-6.24.13-9.3V64.41q0-6-.22-13.4t-.56-11.57l-6.9-1.65ZM95,39v65.43h2V39Zm11.15-.66h-1v.47a8,8,0,0,1,5.49,3A18.27,18.27,0,0,1,114.19,49a35.53,35.53,0,0,1,1.2,9.42,26.87,26.87,0,0,1-1.45,9.51,13.15,13.15,0,0,1-3.45,5.47,8.37,8.37,0,0,1-4,2V76h.5a8.34,8.34,0,0,0,4-1.44c1.6-1,3.07-2.8,4.41-5.53s2-6.52,2-11.36a37.59,37.59,0,0,0-1.09-9,17.39,17.39,0,0,0-3.63-7.42A8.23,8.23,0,0,0,106.15,38.36Z"/><path class="cls-1" d="M122.17,37.89v-.47h21v.47l-6.9,1.65q-.36,4.56-.61,12.32t-.25,13.54V85.66q0,7.31.44,15.22A20.72,20.72,0,0,0,150.21,103a13.89,13.89,0,0,0,2.89-.9L156,89.19h.42l-1.31,17.2h-33v-.47l6.64-1.65q.35-2.26.57-8.06t.38-12c.09-4.12.14-7,.14-8.72V63.66q0-3.91-.11-9c-.08-3.37-.16-6.33-.27-8.88s-.23-4.63-.4-6.26Zm8.43,1.27v65.39h2V39.16Z"/><path class="cls-1" d="M181.58,36.43a16.35,16.35,0,0,1,10.27,3.34,25.46,25.46,0,0,1,7.1,8.76A46.25,46.25,0,0,1,203,60.05a56.62,56.62,0,0,1,1.29,11.71,54.08,54.08,0,0,1-1.46,12.58,43.64,43.64,0,0,1-4.31,11.28,25,25,0,0,1-7.06,8.18,15.61,15.61,0,0,1-9.39,3.06,16.8,16.8,0,0,1-12.68-5.49,33.71,33.71,0,0,1-7.68-13.59A54,54,0,0,1,159.25,72a55.28,55.28,0,0,1,1.57-13.24,42.43,42.43,0,0,1,4.56-11.47,24.61,24.61,0,0,1,7.16-7.94A15.67,15.67,0,0,1,181.58,36.43Zm-1.14,1.84v-.48a12.86,12.86,0,0,0-7.59,2.83,25.32,25.32,0,0,0-6.51,7.54A41.89,41.89,0,0,0,162,59a50.77,50.77,0,0,0-1.57,12.77A49.12,49.12,0,0,0,163,87.71a33.37,33.37,0,0,0,7.27,12.6c3.1,3.23,6.5,5,10.21,5.13v-.51a15.37,15.37,0,0,1-9.54-5.7,33,33,0,0,1-6.3-12.16,52.32,52.32,0,0,1-2.16-15,59.22,59.22,0,0,1,1.25-12.29,42.3,42.3,0,0,1,3.62-10.51,24.42,24.42,0,0,1,5.71-7.49A14.55,14.55,0,0,1,180.44,38.27Zm1.31,1.46c-2.88,0-5.53,1.27-8,3.81s-4.38,6.22-5.81,11a59.49,59.49,0,0,0-2.16,17,58.46,58.46,0,0,0,2.35,17.83q2.35,7.29,6,10.79c2.45,2.34,5,3.51,7.6,3.51a10.18,10.18,0,0,0,6.07-2.07A18.67,18.67,0,0,0,193,95.57a34.83,34.83,0,0,0,3.51-9.79,60.84,60.84,0,0,0,1.27-13,72.91,72.91,0,0,0-1.34-15.64,35.4,35.4,0,0,0-3.92-10.23,15.53,15.53,0,0,0-5-5.46A10.78,10.78,0,0,0,181.75,39.73Zm1.42-1.94v.48a12.53,12.53,0,0,1,5.42,2.14,17.92,17.92,0,0,1,5.1,5.65,33.78,33.78,0,0,1,3.83,10.34A73.41,73.41,0,0,1,199,72a75.3,75.3,0,0,1-.84,11.45,45.41,45.41,0,0,1-2.73,10.08,22.57,22.57,0,0,1-4.91,7.63,13.19,13.19,0,0,1-7.26,3.73v.51a13.1,13.1,0,0,0,6.76-2.59,20.7,20.7,0,0,0,5.69-6.62,38.27,38.27,0,0,0,3.93-10.52,61,61,0,0,0,1.45-13.86,64.81,64.81,0,0,0-1.5-14.72,36.28,36.28,0,0,0-4.09-10.62,20.64,20.64,0,0,0-5.74-6.41A12.47,12.47,0,0,0,183.17,37.79Z"/><path class="cls-1" d="M214.62,78.31V63.75c0-3.74-.07-8-.22-12.84s-.33-8.61-.56-11.37l-6.67-1.65v-.47h18.27a10.51,10.51,0,0,1,8.3,3.51,19.52,19.52,0,0,1,4.3,8,30.77,30.77,0,0,1,1.2,7.74,24.62,24.62,0,0,1-1.2,8,15.31,15.31,0,0,1-3.13,5.58A7.36,7.36,0,0,1,231,72.7v.19a10.35,10.35,0,0,1,3.14,3.39,40.59,40.59,0,0,1,2.23,4.64c.83,2,1.93,4.72,3.31,8.18s2.47,6.15,3.31,8.1a47,47,0,0,0,2.3,4.76q2.34,4,4.62,4v.47h-4.84q-4.06,0-6.45-4.15a32.65,32.65,0,0,1-1.88-3.79q-.93-2.19-2.95-7.19T230.38,83a45.33,45.33,0,0,0-2.18-4.62A8.82,8.82,0,0,0,226,75.69a5.13,5.13,0,0,0-2.9-.68,8.87,8.87,0,0,0-2.73.33c-.11,1.7-.17,3.58-.17,5.65v8.72q0,5.51.7,14.56l6.93,1.65v.47H207.17v-.47l6.54-1.65c.27-3.17.5-7.63.66-13.38S214.62,81,214.62,78.31Zm.7-39.06v65.3h2V39.25Zm4.84,17.53v7.73c0,2.73.05,5.27.17,7.63a13.16,13.16,0,0,0,3.14.28,8,8,0,0,0,5.74-2.07,11.5,11.5,0,0,0,3.12-5.4,28.95,28.95,0,0,0,0-14.48A21.08,21.08,0,0,0,230,44.88a12.16,12.16,0,0,0-3.2-3.53,6,6,0,0,0-3.46-1.25,6.83,6.83,0,0,0-2.53.38q-.26,2.73-.46,7.82T220.16,56.78Zm2.78-18.33v.47a8.53,8.53,0,0,1,6.38,3.14,18.28,18.28,0,0,1,3.74,7.32A32.82,32.82,0,0,1,234.23,58q0,9.42-4.84,13.61l.17.19q2.83-1.23,4.69-5.23A22.71,22.71,0,0,0,236.1,57a28.5,28.5,0,0,0-1-7.85,18.39,18.39,0,0,0-2.71-5.86,12.6,12.6,0,0,0-3.82-3.58,8.4,8.4,0,0,0-4.26-1.23Zm7.23,41.7,6,14.84a35.85,35.85,0,0,0,3.86,7.46,5.09,5.09,0,0,0,4,2.29v-.47c-1.47-.73-3.35-3.91-5.65-9.57l-4.84-11.77a31.42,31.42,0,0,0-2.92-5.85,6.59,6.59,0,0,0-3.34-2.63l-.11.37A17,17,0,0,1,230.17,80.15Z"/><path class="cls-1" d="M250.5,37.89v-.47h29.62l.7,14.65h-.45l-2-11.5a47,47,0,0,0-5.31-.28,24.58,24.58,0,0,0-8.65,1.27q-.56,7.63-.56,17.43,0,6.13.23,9.94c2.92.29,4.79.43,5.59.43a36.72,36.72,0,0,0,6.48-.61l1.25-8h.47V80.81h-.47l-1.31-8.48a27.46,27.46,0,0,0-5.34-.48,35.83,35.83,0,0,0-6.67.57c-.25,3.64-.32,7.21-.23,10.69,0,4.46.09,8.15.14,11s.16,5.41.31,7.52a19.55,19.55,0,0,0,8.9,1.74,27.81,27.81,0,0,0,5.34-.43l2.22-11.35h.39l-.61,14.75h-30v-.47l6.64-1.65q.22-1.93.41-5.89c.12-2.64.22-5.6.32-8.88s.15-6,.19-8.25.06-4.15.06-5.81V63.56c0-1.5,0-3.65-.09-6.43s-.14-5.66-.25-8.64-.27-6-.47-9ZM259,39.25v65.3h1.92V39.25Z"/></svg>